
<svg width="46px" height="46px" viewBox="0 0 46 46" version="1.1" xmlns="http://www.w3.org/2000/svg" xmlns:xlink="http://www.w3.org/1999/xlink">
    <g id="Page-1" stroke="none" stroke-width="1" fill="none" fill-rule="evenodd">
        <g id="Dashboard---Action-Menu" transform="translate(-873.000000, -281.000000)" fill-rule="nonzero" fill="#7ED321">
            <g id="Popup-action-menu" transform="translate(433.000000, 200.000000)">
                <g id="Buttons" transform="translate(64.000000, 67.000000)">
                    <g id="Pop_icon" transform="translate(351.000000, 0.000000)">
                        <g id="success-(1)-copy" transform="translate(25.000000, 14.000000)">
                            <path d="M23,0 C10.3181538,0 0,10.3172692 0,23 C0,35.6827308 10.3181538,46 23,46 C35.6818462,46 46,35.6827308 46,23 C46,10.3172692 35.6818462,0 23,0 Z M23,44.2307692 C11.2938846,44.2307692 1.76923077,34.7061154 1.76923077,23 C1.76923077,11.2938846 11.2938846,1.76923077 23,1.76923077 C34.7061154,1.76923077 44.2307692,11.2938846 44.2307692,23 C44.2307692,34.7061154 34.7061154,44.2307692 23,44.2307692 Z" id="Shape"></path>
                            <path d="M33.8383077,13.5664615 L20.2426538,28.8614615 L12.052,22.3091154 C11.6716154,22.0039231 11.1134231,22.0667308 10.8091154,22.4471154 C10.5039231,22.8292692 10.5658462,23.3856923 10.9471154,23.6908846 L19.7932692,30.7678077 C19.9560385,30.8978462 20.1515385,30.9615385 20.3461538,30.9615385 C20.5903077,30.9615385 20.8335769,30.8606923 21.0078462,30.6643077 L35.1616923,14.7412308 C35.4863462,14.3767692 35.4536154,13.8168077 35.0882692,13.4930385 C34.7220385,13.1675 34.1638462,13.2002308 33.8383077,13.5664615 Z" id="Shape"></path>
                        </g>
                    </g>
                </g>
            </g>
        </g>
    </g>
</svg>
