
<svg width="12px" height="12px" viewBox="0 0 12 12" version="1.1" xmlns="http://www.w3.org/2000/svg" xmlns:xlink="http://www.w3.org/1999/xlink">
    <g id="-----" stroke="none" stroke-width="1" fill="none" fill-rule="evenodd">
        <g id="Dashboard---Interaction-02" transform="translate(-833.000000, -112.000000)" fill-rule="nonzero" fill="#D80027">
            <g id="cancel" transform="translate(833.000000, 112.000000)">
                <path d="M10.2252101,1.75462185 C9.09327731,0.622689076 7.5907563,0 5.98991597,0 C4.38907563,0 2.88655462,0.622689076 1.75462185,1.75462185 C0.622689076,2.88655462 0,4.38907563 0,5.98991597 C0,7.5907563 0.622689076,9.09327731 1.75462185,10.2252101 C2.88655462,11.3571429 4.38907563,11.9798319 5.98991597,11.9798319 C7.5907563,11.9798319 9.09327731,11.3571429 10.2252101,10.2252101 C11.3571429,9.09327731 11.9798319,7.5907563 11.9798319,5.98991597 C11.9798319,4.38907563 11.3571429,2.88655462 10.2252101,1.75462185 Z M9.74369748,9.74369748 C8.74033613,10.7470588 7.40672269,11.2991597 5.98991597,11.2991597 C4.57310924,11.2991597 3.2394958,10.7470588 2.23613445,9.74369748 C0.166386555,7.67394958 0.166386555,4.30588235 2.23613445,2.23613445 C3.2394958,1.23277311 4.57310924,0.680672269 5.98991597,0.680672269 C7.40672269,0.680672269 8.74033613,1.23277311 9.74369748,2.23613445 C11.8134454,4.30588235 11.8134454,7.67394958 9.74369748,9.74369748 Z" id="Shape"></path>
                <path d="M8.62941176,3.35042017 C8.49579832,3.21680672 8.28151261,3.21680672 8.14789916,3.35042017 L5.98991597,5.50840336 L3.83193277,3.35042017 C3.69831933,3.21680672 3.48403361,3.21680672 3.35042017,3.35042017 C3.21680672,3.48403361 3.21680672,3.69831933 3.35042017,3.83193277 L5.50840336,5.98991597 L3.35042017,8.14789916 C3.21680672,8.28151261 3.21680672,8.49579832 3.35042017,8.62941176 C3.41596639,8.69495798 3.50420168,8.7302521 3.58991597,8.7302521 C3.67563025,8.7302521 3.76386555,8.69747899 3.82941176,8.62941176 L5.98739496,6.47142857 L8.14537815,8.62941176 C8.21092437,8.69495798 8.29915966,8.7302521 8.38487395,8.7302521 C8.47310924,8.7302521 8.55882353,8.69747899 8.62436975,8.62941176 C8.75798319,8.49579832 8.75798319,8.28151261 8.62436975,8.14789916 L6.47142857,5.98991597 L8.62941176,3.83193277 C8.76302521,3.69831933 8.76302521,3.48403361 8.62941176,3.35042017 Z" id="Shape"></path>
            </g>
        </g>
    </g>
</svg>
