
<svg width="36px" height="37px" viewBox="0 0 36 37" version="1.1" xmlns="http://www.w3.org/2000/svg" xmlns:xlink="http://www.w3.org/1999/xlink">
    <g id="Page-1" stroke="none" stroke-width="1" fill="none" fill-rule="evenodd">
        <g id="Dashboard---Alert" transform="translate(-1341.000000, -41.000000)" fill-rule="nonzero" fill="#FFFFFF">
            <g id="cancel" transform="translate(1341.000000, 41.000000)">
                <path d="M16.2793125,18.442125 L0.3448125,34.376625 C-0.097875,34.8193125 -0.097875,35.5365 0.3448125,35.9791875 C0.565875,36.2008125 0.856125,36.3110625 1.1458125,36.3110625 C1.4360625,36.3110625 1.72575,36.2008125 1.9468125,35.9791875 L18.001125,19.924875 L34.0554375,35.9791875 C34.2770625,36.2008125 34.56675,36.3110625 34.8564375,36.3110625 C35.146125,36.3110625 35.436375,36.2008125 35.6574375,35.9791875 C36.100125,35.5365 36.100125,34.8193125 35.6574375,34.376625 L19.7235,18.442125 L35.668125,2.496375 C36.1108125,2.0536875 36.1108125,1.3365 35.668125,0.8938125 C35.2254375,0.4516875 34.50825,0.4516875 34.066125,0.8938125 L18.0016875,16.959375 L1.9355625,0.894375 C1.492875,0.45225 0.77625,0.45225 0.3335625,0.894375 C-0.109125,1.3370625 -0.109125,2.05425 0.3335625,2.4969375 L16.2793125,18.442125 Z" id="Shape"></path>
            </g>
        </g>
    </g>
</svg>
