
<svg width="16px" height="10px" viewBox="0 0 16 10" version="1.1" xmlns="http://www.w3.org/2000/svg" xmlns:xlink="http://www.w3.org/1999/xlink">
    <g id="Symbols" stroke="none" stroke-width="1" fill="none" fill-rule="evenodd">
        <g id="Header" transform="translate(-365.000000, -19.000000)" fill-rule="nonzero" fill="#FFFFFF">
            <g id="QB-Items">
                <g transform="translate(238.000000, 0.000000)">
                    <g id="angle-arrow-down" transform="translate(127.000000, 19.000000)">
                        <path d="M15.8361825,0.983073684 L15.0348351,0.181782456 C14.9280561,0.0747789474 14.8050526,0.021445614 14.665993,0.021445614 C14.5272702,0.021445614 14.4043228,0.0747789474 14.2975439,0.181782456 L7.99809123,6.48089825 L1.6989193,0.181950877 C1.59208421,0.0749473684 1.46913684,0.0216140351 1.33024561,0.0216140351 C1.19129825,0.0216140351 1.06835088,0.0749473684 0.96157193,0.181950877 L0.160336842,0.983298246 C0.0533333333,1.09007719 0,1.21302456 0,1.35197193 C0,1.49080702 0.0535017544,1.61375439 0.160336842,1.72053333 L7.62941754,9.18978246 C7.73619649,9.29661754 7.8592,9.35000702 7.99809123,9.35000702 C8.13698246,9.35000702 8.2597614,9.29661754 8.36648421,9.18978246 L15.8361825,1.72053333 C15.9429614,1.61369825 15.996014,1.49075088 15.996014,1.35197193 C15.996014,1.21302456 15.9429614,1.09007719 15.8361825,0.983073684 Z" id="Shape"></path>
                    </g>
                </g>
            </g>
        </g>
    </g>
</svg>
