
<svg width="80px" height="80px" viewBox="0 0 80 80" version="1.1" xmlns="http://www.w3.org/2000/svg" xmlns:xlink="http://www.w3.org/1999/xlink">
    <g id="Page-1" stroke="none" stroke-width="1" fill="none" fill-rule="evenodd">
        <g id="Dashboard---Alert" transform="translate(-312.000000, -351.000000)" fill-rule="nonzero" fill="#FFFFFF">
            <g id="Iocn" transform="translate(252.000000, 291.000000)">
                <g id="radiation" transform="translate(60.000000, 60.000000)">
                    <path d="M65.8776223,9.49907888 C49.0321547,-4.79215397 23.791375,-2.72278146 9.4993447,14.1228233 C-4.79268563,30.9684281 -2.72237326,56.2090229 14.1232507,70.501037 C30.9671558,84.7921136 56.2094979,82.722741 70.5015283,65.8772925 C84.7916836,49.0316877 82.7229337,23.7909367 65.8776223,9.49907888 Z M39.9999677,7.06236306 C46.0004361,7.06236306 51.6259045,8.66782988 56.4710604,11.471264 L44.8257487,31.6415523 C41.8165301,29.8998357 38.1210616,29.9373356 35.1727805,31.6393648 L23.5287188,11.4709515 C28.3743435,8.66767363 33.9994994,7.06236306 39.9999677,7.06236306 Z M23.528875,68.5288518 C18.6782504,65.7344802 14.4752819,61.6655788 11.4751258,56.4688663 C8.47481352,51.2721538 7.05262611,45.5979418 7.05778236,39.9999798 L30.3484059,39.9999798 C30.3446559,43.4768506 32.2249682,46.6585656 35.1729368,48.3609073 L23.528875,68.5288518 Z M36.4521555,44.1816935 C34.1426244,42.2221646 33.8587181,38.7617 35.8182493,36.4521716 C37.7777804,34.1426431 41.2382489,33.8587372 43.54778,35.8182661 C45.8573111,37.777795 46.1410611,41.2382596 44.1816862,43.547788 C42.2223113,45.8574728 38.7615303,46.1410662 36.4521555,44.1816935 Z M68.5249659,56.4688663 C65.5246536,61.6655788 61.3216851,65.7344802 56.4712167,68.5288518 L44.8259049,48.3585635 C47.8388735,46.6234094 49.6540296,43.4043507 49.6541859,39.9999798 L72.9423094,39.9999798 C72.9474656,45.5979418 71.5252782,51.2721538 68.5249659,56.4688663 Z" id="Shape"></path>
                </g>
            </g>
        </g>
    </g>
</svg>
