<?xml version="1.0" encoding="utf-8"?>
<!-- Generator: Adobe Illustrator 21.0.0, SVG Export Plug-In . SVG Version: 6.00 Build 0)  -->
<svg version="1.1" id="Layer_1" xmlns="http://www.w3.org/2000/svg" xmlns:xlink="http://www.w3.org/1999/xlink" x="0px" y="0px"
	 viewBox="0 0 145 76.5" style="enable-background:new 0 0 145 76.5;" xml:space="preserve">
<style type="text/css">
	.st0{fill:#FFFFFF;}
</style>
<title>Icons</title>
<path class="st0" d="M39.2,76.4h91.8c1.7,0,3.2-1.3,3.5-3L145,4c0.2-1-0.1-2-0.9-2.8c-0.7-0.7-1.7-1.2-2.8-1.2H49.7
	c-1.7,0-3.2,1.3-3.5,3L35.8,72.4c-0.2,1,0.2,2,0.9,2.8C37.3,76,38.2,76.5,39.2,76.4 M134.2,7L90.6,42.2L56.1,7H134.2L134.2,7z
	 M51.8,12.6l36.1,36.8c0.6,0.6,1.5,1,2.4,1c0.8,0,1.6-0.2,2.2-0.7l43.8-35.2l-8.3,55H43.2L51.8,12.6z"/>
<path class="st0" d="M0,57.4c0,1.9,1.6,3.5,3.5,3.5c0,0,0,0,0,0h22.6c1.9,0,3.5-1.6,3.5-3.5s-1.6-3.5-3.5-3.5H3.5
	C1.6,53.9,0,55.4,0,57.4L0,57.4"/>
<path class="st0" d="M15.6,41.7h13.9c1.9,0,3.5-1.6,3.5-3.5s-1.6-3.5-3.5-3.5l0,0H15.6c-1.9,0-3.5,1.6-3.5,3.5S13.7,41.7,15.6,41.7"
	/>
<path class="st0" d="M36.5,19.1c0-1.9-1.6-3.5-3.5-3.5h-3.5c-1.9,0-3.5,1.6-3.5,3.5c0,1.9,1.6,3.5,3.5,3.5H33
	C34.9,22.7,36.5,21.1,36.5,19.1C36.5,19.2,36.5,19.2,36.5,19.1"/>
</svg>
