<?xml version="1.0" encoding="utf-8"?>
<!-- Generator: Adobe Illustrator 21.0.0, SVG Export Plug-In . SVG Version: 6.00 Build 0)  -->
<svg version="1.1" id="Layer_1" xmlns="http://www.w3.org/2000/svg" xmlns:xlink="http://www.w3.org/1999/xlink" x="0px" y="0px"
	 viewBox="0 0 166 137" style="enable-background:new 0 0 166 137;" xml:space="preserve">
<style type="text/css">
	.st0{fill:#FFFFFF;}
</style>
<title>Icons</title>
<path class="st0" d="M128.1,137h-90v-27.7h90V137z M46.5,128.6h73.2v-10.9H46.5V128.6z"/>
<path class="st0" d="M128.1,115.5H38.4v-39c0-25,20.1-45.4,44.8-45.4s44.9,20.4,44.9,45.4V115.5z M46.8,107.1h72.9V76.5
	c0-20.4-16.4-37-36.4-37s-36.4,16.6-36.4,37L46.8,107.1L46.8,107.1z"/>
<path class="st0" d="M75.4,50.4c0.5-0.3,1.1-0.1,1.4,0.4c0.3,0.5,0.1,1.1-0.4,1.4c-0.1,0-0.1,0.1-0.2,0.1
	c-9.2,4.5-15.6,13.2-17.1,23.4c-0.1,0.6-0.7,1-1.3,0.9c-0.4,0-0.7-0.4-0.7-0.8c0-0.1,0-0.1,0-0.2C58.8,64.8,65.6,55.4,75.4,50.4"/>
<path class="st0" d="M57.5,78.6c-1.5-0.2-2.7-1.6-2.5-3.1c0-0.1,0-0.2,0-0.3c1.8-11.5,9-21.4,19.4-26.6c0.6-0.3,1.3-0.4,2-0.3
	c1.1,0.2,2,0.9,2.3,2c0.3,0.8,0.3,1.7-0.1,2.5c-0.4,0.7-1,1.2-1.7,1.4c-8.4,4.2-14.3,12.3-15.7,21.6C60.9,77.7,59.2,78.8,57.5,78.6"
	/>
<path class="st0" d="M113.1,31.1c0.3,0.2,0.7,0.3,1.1,0.3c0.8,0,1.6-0.4,1.9-1.1l9.1-16c0.6-1.1,0.2-2.4-0.8-3
	c-1.1-0.6-2.4-0.2-3,0.8l-9.1,16C111.8,29.2,112.1,30.5,113.1,31.1"/>
<path class="st0" d="M154.9,42.2c-0.6-1-1.9-1.4-3-0.8l-15.8,9.4c-1.1,0.6-1.4,1.9-0.8,3c0.3,0.8,1.1,1.2,1.9,1.1
	c0.4,0,0.8-0.1,1.1-0.3l15.8-9.4C155.1,44.5,155.5,43.2,154.9,42.2"/>
<path class="st0" d="M20.5,82H2.3C1,82.1,0.1,83,0,84.2c0,1.2,0.9,2.2,2.1,2.2c0,0,0,0,0.1,0h18.3c1.2,0,2.2-1,2.2-2.2
	S21.7,82,20.5,82C20.5,82,20.5,82,20.5,82"/>
<path class="st0" d="M163.8,82h-18.3c-1.2,0.1-2.1,1-2.2,2.2c0,1.2,0.9,2.2,2.1,2.2c0,0,0,0,0.1,0h18.3c1.2-0.1,2.1-1,2.2-2.2
	C166,83,165,82,163.8,82C163.8,82,163.8,82,163.8,82"/>
<path class="st0" d="M29.9,50.5l-15.8-9.4c-1.1-0.5-2.4-0.2-3,0.8c-0.6,1.1-0.2,2.4,0.8,3l15.8,9.4c0.3,0.2,0.7,0.3,1.1,0.3
	c0.8,0,1.6-0.4,1.9-1.1C31.3,52.4,31,51.1,29.9,50.5"/>
<path class="st0" d="M49.8,30.3c0.3,0.8,1.1,1.2,1.9,1.1c0.4,0,0.8-0.1,1.1-0.3c1-0.6,1.4-1.9,0.8-3l-9.1-16c-0.6-1.1-1.9-1.5-3-0.9
	c-1.1,0.6-1.5,1.9-0.9,3c0,0.1,0.1,0.1,0.1,0.2L49.8,30.3z"/>
<path class="st0" d="M83,23.1c1.2-0.1,2.1-1,2.2-2.2V2.4c0.1-1.2-0.8-2.3-2.1-2.4c-1.2-0.1-2.3,0.8-2.4,2.1c0,0.1,0,0.2,0,0.3v18.5
	C80.9,22.1,81.8,23,83,23.1"/>
</svg>
