<?xml version="1.0" encoding="utf-8"?>
<!-- Generator: Adobe Illustrator 21.0.0, SVG Export Plug-In . SVG Version: 6.00 Build 0)  -->
<svg version="1.1" id="Layer_1" xmlns="http://www.w3.org/2000/svg" xmlns:xlink="http://www.w3.org/1999/xlink" x="0px" y="0px"
	 viewBox="0 0 170.7 156.1" style="enable-background:new 0 0 170.7 156.1;" xml:space="preserve">
<style type="text/css">
	.st0{fill:#0d09c6;}
</style>
<title>Icons</title>
<path class="st0" d="M50.5,43.9c-0.6-12.6-4.6-22.8-9.9-25.4"/>
<path class="st0" d="M40.6,18.6c1.5-0.3,2.5-1,2.5-1.8c0-1.2-2.2-2.1-5-2.1s-5,0.9-5,2.1c0,0.8,1,1.4,2.5,1.8
	c-5.7,2.8-9.9,14.5-9.9,28.6c0,12.9,3.6,23.8,8.5,27.7c1.2,1,2.6,0,4,0s2.7,1,4,0c5-3.9,8.5-14.8,8.5-27.7c0-1.1,0-2.2-0.1-3.2"/>
<path class="st0" d="M142,23.7c-0.1-0.6-0.1-1.1-0.1-1.7c0.3-6.3,5.6-11.2,11.8-10.9c6.3,0.3,11.2,5.6,10.9,11.8
	c-0.2,5-3.7,9.3-8.6,10.6v4.7c0,1.2-0.5,2.3-1.3,3.2L140,57.3c-1.8,1.9-4.8,2-6.8,0.2c-0.1-0.1-0.2-0.2-0.2-0.2l-14.9-15.9
	c-0.8-0.9-1.3-2-1.3-3.2v-4.7c-6.1-1.6-9.7-7.8-8.1-13.9c1.6-6.1,7.8-9.7,13.9-8.1c5,1.3,8.5,5.9,8.5,11c0,0.4,0,0.8-0.1,1.2
	c-0.1,0.6,0.4,1.2,1,1.3c0,0,0.1,0,0.1,0h8.6c0.7,0,1.2-0.5,1.2-1.2C142.1,23.8,142.1,23.8,142,23.7"/>
<path class="st0" d="M42.4,113.7L42.4,113.7c3.4-1.9,4.9-5.9,3.8-9.6c0.2-0.1,0.4-0.2,0.6-0.4c1-1,0.5-3-1-4.6s-3.6-2-4.6-1
	c-0.2,0.2-0.3,0.3-0.3,0.6c-1.6-0.5-3.3-0.5-4.9,0c-0.1-0.2-0.2-0.4-0.4-0.6c-1-1-3-0.5-4.6,1s-2,3.6-1,4.6c0.2,0.2,0.3,0.3,0.6,0.4
	c-0.2,0.8-0.4,1.6-0.4,2.4c0,3,1.6,5.7,4.2,7.2h-0.1c-6.6,6.2-12.5,15.3-12.3,24.9c0.1,4.7,3.2,9,8.2,9c4.4,0,8-3.5,8.2-7.9
	c0.2,4.4,3.8,7.9,8.2,7.9c5,0,8.1-4.3,8.2-9C55.1,129,49,119.9,42.4,113.7"/>
<path class="st0" d="M142.5,110.5c1.6-3.4,0.1-7.4-3.2-9c-0.9-0.4-1.9-0.6-2.9-0.6c-3.7,0-6.8,3-6.8,6.7c0,1,0.2,2,0.6,2.9
	c-6.4,2.8-10.9,9.8-10.9,18.1c0,10.7,7.6,19.4,17.1,19.4c9.4,0,17.1-8.7,17.1-19.4C153.5,120.4,148.9,113.3,142.5,110.5"/>
<polygon class="st0" points="115.2,67.5 112.7,64.3 125.3,54.1 103.2,55.7 102.9,51.6 138.1,49.1 "/>
<polygon class="st0" points="158.4,67.5 135.6,49.1 170.7,51.6 170.4,55.7 148.3,54.1 161,64.3 "/>
<polygon class="st0" points="136.1,105.3 121.7,90.9 124.6,88 136.1,99.5 147.6,88 150.5,90.9 "/>
<polygon class="st0" points="37.9,17.3 23.5,2.9 26.4,0 37.9,11.5 49.4,0 52.3,2.9 "/>
<polygon class="st0" points="152.8,108.6 141.6,108.6 141.6,104.5 150.9,104.5 160.5,92.9 163.6,95.6 "/>
<polygon class="st0" points="162.7,131.1 153.8,116.1 149.4,118.6 147.4,115 155.3,110.6 164.2,125.6 168.6,123.2 170.6,126.7 "/>
<rect x="153.5" y="136.1" transform="matrix(0.8268 -0.5625 0.5625 0.8268 -55.4386 112.8901)" class="st0" width="4.1" height="20.6"/>
<polygon class="st0" points="131.4,108.6 120.2,108.6 109.3,95.6 112.5,92.9 122.1,104.5 131.4,104.5 "/>
<polygon class="st0" points="110.3,131.1 102.4,126.7 104.4,123.2 108.8,125.6 117.6,110.6 125.5,115 123.5,118.6 119.1,116.1 "/>
<rect x="107" y="144.4" transform="matrix(0.5619 -0.8272 0.8272 0.5619 -69.7218 161.2252)" class="st0" width="20.6" height="4.1"/>
<polygon class="st0" points="59.9,122.2 46.7,122.2 46.7,118.1 58.1,118.1 71.2,103.8 74.2,106.5 "/>
<polygon class="st0" points="64,130.4 50.8,130.4 50.8,126.3 62.2,126.3 71.2,116.7 74.2,119.5 "/>
<rect x="59.4" y="135.2" transform="matrix(0.6742 -0.7386 0.7386 0.6742 -87.6643 92.8544)" class="st0" width="4.1" height="21.3"/>
<polygon class="st0" points="29.7,122.2 16.5,122.2 2.2,106.5 5.2,103.8 18.3,118.1 29.7,118.1 "/>
<polygon class="st0" points="25.6,130.4 12.4,130.4 2.2,119.5 5.2,116.7 14.2,126.3 25.6,126.3 "/>
<polygon class="st0" points="8.5,154.5 5.8,151.4 21.5,137.1 24.2,140.1 "/>
<polygon class="st0" points="46.5,27.1 44.2,23.6 54.2,17.2 50.1,10.4 62,2.5 64.3,5.9 55.6,11.6 59.8,18.5 "/>
<polygon class="st0" points="63.1,47.9 59.7,34.4 48.3,40.1 46.5,36.5 62.4,28.5 65.9,42.3 74,39.1 75.5,42.9 "/>
<polygon class="st0" points="58.7,74.4 57.1,60.1 46.5,55.2 48.3,51.5 60.9,57.4 62.1,67.7 73.7,61.1 75.7,64.6 "/>
<polygon class="st0" points="29.2,27.1 16,18.5 20.1,11.6 11.5,5.9 13.8,2.5 25.6,10.4 21.5,17.2 31.5,23.6 "/>
<polygon class="st0" points="12.7,47.9 0.2,42.9 1.8,39.1 9.8,42.3 13.3,28.5 29.2,36.5 27.4,40.1 16,34.4 "/>
<polygon class="st0" points="17,74.4 0,64.6 2,61.1 13.7,67.7 14.8,57.4 27.4,51.5 29.2,55.2 18.6,60.1 "/>
</svg>
