<?xml version="1.0" encoding="utf-8"?>
<!-- Generator: Adobe Illustrator 21.0.0, SVG Export Plug-In . SVG Version: 6.00 Build 0)  -->
<svg version="1.1" id="Layer_1" xmlns="http://www.w3.org/2000/svg" xmlns:xlink="http://www.w3.org/1999/xlink" x="0px" y="0px"
	 viewBox="0 0 190.9 11.4" style="enable-background:new 0 0 190.9 11.4;" xml:space="preserve">
 <style type="text/css">
 	.text-logo-st0{fill:#abb3b7;}
 </style>
<title>Icons</title>
<rect class="text-logo-st0" y="0.4" width="2" height="10.5"/>
<polygon class="text-logo-st0" points="13.5,0.4 15.5,0.4 15.5,10.9 14.2,10.9 14.2,10.9 8.7,3.8 8.7,10.9 6.7,10.9 6.7,0.4 8.3,0.4 13.5,6.9 "/>
<polygon class="text-logo-st0" points="22.7,2.2 19.4,2.2 19.4,0.4 28,0.4 28,2.2 24.7,2.2 24.7,10.9 22.7,10.9 "/>
<polygon class="text-logo-st0" points="39.8,10.9 31.9,10.9 31.9,0.4 39.8,0.4 39.8,2.3 33.9,2.3 33.9,4.7 39.6,4.7 39.6,6.6 33.9,6.6 33.9,8.9 39.8,8.9
	"/>
<path class="text-logo-st0" d="M46,2.2v3.4h3C50,5.7,50.8,5,50.8,4c0.1-0.9-0.6-1.7-1.6-1.8c-0.1,0-0.2,0-0.3,0H46z M53.4,10.9H51l-3.1-3.5H46v3.5h-2V0.4
	h5c1.9-0.2,3.6,1.3,3.8,3.2c0,0.1,0,0.2,0,0.3c0.1,1.6-1,3.1-2.7,3.3l3.2,3.6L53.4,10.9L53.4,10.9z"/>
<polygon class="text-logo-st0" points="63.8,0.4 65.8,0.4 65.8,10.9 64.6,10.9 64.6,10.9 59,3.8 59,10.9 57,10.9 57,0.4 58.7,0.4 63.8,6.9 "/>
<polygon class="text-logo-st0" points="78.2,10.9 70.3,10.9 70.3,0.4 78.2,0.4 78.2,2.3 72.3,2.3 72.3,4.7 78,4.7 78,6.6 72.3,6.6 72.3,8.9 78.2,8.9 "/>
<polygon class="text-logo-st0" points="85.8,2.2 82.4,2.2 82.4,0.4 91.1,0.4 91.1,2.2 87.7,2.2 87.7,10.9 85.8,10.9 "/>
<path class="text-logo-st0" d="M102.2,5.7c0,1.9,1.5,3.5,3.4,3.5s3.5-1.5,3.5-3.4c0,0,0,0,0,0c0.1-1.9-1.3-3.6-3.2-3.7s-3.6,1.3-3.7,3.2
	C102.2,5.4,102.2,5.6,102.2,5.7 M111.1,5.7c0.1,3-2.2,5.5-5.2,5.6c-3,0.1-5.5-2.2-5.6-5.2c0-0.2,0-0.3,0-0.5c-0.1-3,2.2-5.5,5.2-5.6
	c3-0.1,5.5,2.2,5.6,5.2C111.1,5.4,111.1,5.6,111.1,5.7"/>
<polygon class="text-logo-st0" points="115.2,10.9 115.2,0.4 122.8,0.4 122.8,2.3 117.2,2.3 117.2,5.2 122.5,5.2 122.5,7 117.2,7 117.2,10.9 "/>
<path class="text-logo-st0" d="M134.6,6h3c1,0.1,1.9-0.7,2-1.7c0.1-1-0.7-1.9-1.7-2c-0.1,0-0.2,0-0.3,0h-3V6z M137.6,7.8h-3v3.1h-2V0.4h5
	c2.1,0,3.7,1.7,3.7,3.7S139.7,7.8,137.6,7.8"/>
<polygon class="text-logo-st0" points="153.4,10.9 145.5,10.9 145.5,0.4 153.4,0.4 153.4,2.3 147.5,2.3 147.5,4.7 153.2,4.7 153.2,6.6 147.5,6.6
	147.5,8.9 153.4,8.9 "/>
<path class="text-logo-st0" d="M164.4,2.9c-0.6-0.8-1.5-1.2-2.5-1.2c-1.5,0-2.2,0.6-2.2,1.4s1.1,1.2,2.4,1.3c2.2,0.3,4.2,0.8,4.2,3.4
	c0,2.4-2.1,3.4-4.4,3.4c-2.1,0-3.8-0.7-4.6-2.6l1.6-0.9c0.6,1.1,1.7,1.8,3,1.7c1.2,0,2.4-0.4,2.4-1.6c0-1-1-1.4-2.4-1.6
	c-2.1-0.3-4.1-0.8-4.1-3.2c0-2.2,2.1-3.1,4.1-3.1c1.6,0,3.3,0.5,4.1,2.1L164.4,2.9z"/>
<polygon class="text-logo-st0" points="173.3,2.2 169.9,2.2 169.9,0.4 178.6,0.4 178.6,2.2 175.3,2.2 175.3,10.9 173.3,10.9 "/>
<path class="text-logo-st0" d="M189,2.9c-0.6-0.8-1.5-1.2-2.5-1.2c-1.5,0-2.2,0.6-2.2,1.4s1.1,1.2,2.4,1.3c2.2,0.3,4.2,0.8,4.2,3.4c0,2.4-2.1,3.4-4.4,3.4
	c-2.1,0-3.8-0.7-4.6-2.6l1.7-0.9c0.6,1.1,1.7,1.8,3,1.7c1.2,0,2.4-0.4,2.4-1.6c0-1-1-1.4-2.4-1.6c-2.1-0.3-4.1-0.8-4.1-3.2
	c0-2.2,2.1-3.1,4.1-3.1c1.6,0,3.3,0.5,4.1,2.1L189,2.9z"/>
</svg>
