
<svg width="32px" height="33px" viewBox="0 0 32 33" version="1.1" xmlns="http://www.w3.org/2000/svg" xmlns:xlink="http://www.w3.org/1999/xlink">
    <g id="-----" stroke="none" stroke-width="1" fill="none" fill-rule="evenodd">
        <g id="Dashboard---MENU-" transform="translate(-11.000000, -335.000000)" fill-rule="nonzero" fill="#4A4A4A">
            <g id="Nodes" transform="translate(11.000000, 68.000000)">
                <g id="pie-chart" transform="translate(0.000000, 267.347968)">
                    <path d="M31.3404082,0.0163265306 L0.646530612,0.0163265306 C0.287346939,0.0163265306 0,0.303673469 0,0.662857143 C0,1.02204082 0.287346939,1.30938776 0.646530612,1.30938776 L1.84163265,1.30938776 L1.84163265,20.0522449 C1.84163265,20.9991837 2.6122449,21.7697959 3.55918367,21.7697959 L28.5453061,21.7697959 C29.4922449,21.7697959 30.2628571,20.9991837 30.2628571,20.0522449 L30.2628571,1.30938776 L31.3404082,1.30938776 C31.6995918,1.30938776 31.9869388,1.02204082 31.9869388,0.662857143 C31.9869388,0.303673469 31.6995918,0.0163265306 31.3404082,0.0163265306 Z M28.9697959,20.0522449 C28.9697959,20.2873469 28.7804082,20.4767347 28.5453061,20.4767347 L3.55918367,20.4767347 C3.32408163,20.4767347 3.13469388,20.2873469 3.13469388,20.0522449 L3.13469388,1.30938776 L28.9697959,1.30938776 L28.9697959,20.0522449 Z" id="Shape" fill="#2C2F33"></path>
                    <path d="M17.0122449,26.0408163 L17.0122449,24.362449 L19.2653061,24.362449 C19.6244898,24.362449 19.9118367,24.075102 19.9118367,23.7159184 C19.9118367,23.3567347 19.6244898,23.0693878 19.2653061,23.0693878 L13.3746939,23.0693878 C13.0155102,23.0693878 12.7281633,23.3567347 12.7281633,23.7159184 C12.7281633,24.075102 13.0155102,24.362449 13.3746939,24.362449 L15.7191837,24.362449 L15.7191837,26.0408163 L11.1542857,30.6057143 C10.8995918,30.8604082 10.8995918,31.2653061 11.1542857,31.52 C11.2783673,31.6440816 11.4481633,31.7093878 11.6114286,31.7093878 C11.7746939,31.7093878 11.9444898,31.6440816 12.0685714,31.52 L15.7191837,27.8693878 L15.7191837,31.0628571 C15.7191837,31.4220408 16.0065306,31.7093878 16.3657143,31.7093878 C16.724898,31.7093878 17.0122449,31.4220408 17.0122449,31.0628571 L17.0122449,27.8693878 L20.6432653,31.5004082 C20.7673469,31.6244898 20.9371429,31.6897959 21.1004082,31.6897959 C21.2636735,31.6897959 21.4334694,31.6244898 21.557551,31.5004082 C21.8122449,31.2457143 21.8122449,30.8408163 21.557551,30.5861224 L17.0122449,26.0408163 Z" id="Shape" fill="#2C2F33"></path>
                    <path d="M18.4359184,9.51183673 L23.3730612,9.51183673 C23.7322449,9.51183673 24.0195918,9.2244898 24.0195918,8.86530612 C24.0195918,7.50040816 23.5232653,6.1877551 22.6220408,5.16897959 C21.5640816,3.96734694 20.0359184,3.28163265 18.4359184,3.28163265 C18.0767347,3.28163265 17.7893878,3.56897959 17.7893878,3.92816327 L17.7893878,8.86530612 C17.7893878,9.2244898 18.0767347,9.51183673 18.4359184,9.51183673 Z M19.082449,4.62693878 C20.0685714,4.77714286 20.9828571,5.26693878 21.6489796,6.0244898 C22.197551,6.64489796 22.5502041,7.40897959 22.6742857,8.21877551 L19.082449,8.21877551 L19.082449,4.62693878 Z" id="Shape" fill="#3C92CA"></path>
                    <path d="M15.6538776,18.4979592 C19.4742857,18.4979592 22.5893878,15.3893878 22.5893878,11.562449 C22.5893878,11.2032653 22.3020408,10.9159184 21.9428571,10.9159184 L16.3004082,10.9159184 L16.3004082,5.28 C16.3004082,4.92081633 16.0130612,4.63346939 15.6538776,4.63346939 C11.8334694,4.63346939 8.71836735,7.74204082 8.71836735,11.5689796 C8.71836735,15.3893878 11.8269388,18.4979592 15.6538776,18.4979592 Z M15.0008163,5.95918367 L15.0008163,11.562449 C15.0008163,11.9216327 15.2881633,12.2089796 15.6473469,12.2089796 L21.2506122,12.2089796 C20.9306122,15.0171429 18.5404082,17.204898 15.6473469,17.204898 C12.5387755,17.204898 10.004898,14.677551 10.004898,11.562449 C10.0114286,8.67591837 12.1991837,6.28571429 15.0008163,5.95918367 Z" id="Shape" fill="#2C2F33"></path>
                </g>
            </g>
        </g>
    </g>
</svg>
