
<svg width="32px" height="31px" viewBox="0 0 32 31" version="1.1" xmlns="http://www.w3.org/2000/svg" xmlns:xlink="http://www.w3.org/1999/xlink">
    <g id="-----" stroke="none" stroke-width="1" fill="none" fill-rule="evenodd">
        <g id="Dashboard---MENU-" transform="translate(-11.000000, -405.000000)" fill-rule="nonzero" fill="#4A4A4A">
            <g id="Nodes" transform="translate(11.000000, 68.000000)">
                <g id="settings" transform="translate(0.000000, 337.000000)">
                    <path d="M30.9083175,21.816254 L22.8071746,13.7666667 L25.284,11.2898413 C26.9867937,11.4446349 28.5864127,10.8770159 29.8247619,9.69022222 C32.5595556,6.95542857 31.0631746,3.39504762 31.0631746,3.39504762 L27.864,6.59422222 L25.4904127,5.97504762 L24.9227937,3.65307937 L28.1219683,0.453904762 C28.1219683,0.453904762 24.5615873,-1.09409524 21.8267937,1.69231746 C20.64,2.87911111 20.0208254,4.53028571 20.2271746,6.23307937 L17.7503492,8.65828571 L15.5831746,6.49111111 L18.8339683,3.24031746 L16.1507937,0.557142857 L11.352,0.557142857 L3.56038095,8.34869841 L4.69555556,9.43231746 L3.97314286,10.1547302 L2.8895873,9.07111111 L0,11.9606984 L5.10838095,17.0690794 L7.99796825,14.1794921 L6.86279365,13.0443175 L7.58520635,12.3219048 L8.6688254,13.4055238 L10.4747937,11.5995556 L12.6419683,13.7667302 L6.96596825,19.4427302 C5.2631746,19.2879365 3.66355556,19.8555556 2.42520635,21.0423492 C1.032,22.4355556 0.258031746,24.7575238 1.18679365,27.3375238 L4.38596825,24.1383492 L6.70793651,24.7059683 L7.27555556,27.0279365 L4.07638095,30.2271111 C7.1207619,31.3107302 9.33955556,30.0723175 10.3715556,28.9886984 C11.5583492,27.8019048 12.1775238,26.1507302 11.9711746,24.4479365 L17.6471746,18.7719365 L25.6967619,26.8215238 C27.296381,28.4211429 29.5667302,28.0083175 30.8051429,26.8215238 C32.3015238,25.5314286 32.3015238,23.2094603 30.9083175,21.816254 Z M21.2591746,6.59428571 C21.2591746,6.59428571 20.6915556,4.27231746 22.5491429,2.41466667 C23.4779683,1.48584127 24.7679365,1.02146032 26.0579048,1.07307937 L23.7875556,3.34349206 L24.6647619,6.85225397 L28.1735238,7.72946032 L30.4439365,5.45904762 C30.4955556,6.74901587 30.0311111,8.03904762 29.1023492,8.96780952 C27.2447619,10.8253968 24.9227302,10.2578413 24.9227302,10.2578413 L22.0847619,13.044254 L18.4727619,9.43225397 L21.2591746,6.59428571 Z M5.0567619,15.5726984 L1.4447619,11.9606984 L2.8895873,10.515873 L6.5015873,14.127873 L5.0567619,15.5726984 Z M6.14038095,12.3219048 L4.69555556,10.8771429 L5.41796825,10.1547302 L6.86279365,11.5995556 L6.14038095,12.3219048 Z M8.6687619,11.9606984 L5.0567619,8.34869841 L11.7647619,1.58907937 L15.6863492,1.58907937 L17.3891429,3.24025397 L8.6687619,11.9606984 Z M10.9907937,24.1382857 C10.9907937,24.1382857 11.5584127,26.5634921 9.7008254,28.3179048 C8.772,29.2467302 7.48203175,29.7111111 6.19206349,29.6594921 L8.46247619,27.3890794 L7.58526984,23.8803175 L4.07644444,23.0031111 L1.80603175,25.2735238 C1.7544127,24.0351111 2.21885714,22.6935238 3.14761905,21.8163175 C5.0568254,19.9587302 7.3272381,20.5262857 7.3272381,20.5262857 L13.3644444,14.4890794 L16.9764444,18.1010794 L10.9907937,24.1382857 Z M30.1859683,26.2022857 C29.2055873,27.1826667 27.5543492,27.1826667 26.5739683,26.2022857 L11.1972063,10.8770794 L14.8092063,7.26507937 L30.1343492,22.5902222 C31.1663492,23.5706667 31.1663492,25.1702857 30.1859683,26.2022857 Z" id="Shape"></path>
                    <rect id="Rectangle-path" transform="translate(9.874476, 7.104606) rotate(-45.000000) translate(-9.874476, -7.104606) " x="9.3584809" y="6.58861074" width="1.0319901" height="1.0319901"></rect>
                    <rect id="Rectangle-path" transform="translate(11.355612, 5.679745) rotate(-45.000000) translate(-11.355612, -5.679745) " x="10.8396173" y="5.16374979" width="1.0319901" height="1.0319901"></rect>
                    <rect id="Rectangle-path" transform="translate(12.764176, 4.158396) rotate(-45.000000) translate(-12.764176, -4.158396) " x="12.2481813" y="3.64240099" width="1.0319901" height="1.0319901"></rect>
                </g>
            </g>
        </g>
    </g>
</svg>
