
<svg width="32px" height="32px" viewBox="0 0 32 32" version="1.1" xmlns="http://www.w3.org/2000/svg" xmlns:xlink="http://www.w3.org/1999/xlink">
    <g id="-----" stroke="none" stroke-width="1" fill="none" fill-rule="evenodd">
        <g id="Dashboard" transform="translate(-11.000000, -266.000000)" fill-rule="nonzero" fill="#4A4A4A">
            <g id="Nodes" transform="translate(11.000000, 68.000000)">
                <g id="warehouse" transform="translate(0.000000, 197.957161)">
                    <path d="M15.9986939,0.0369632653 L0,7.60790204 L0,12.493649 L2.17639184,12.493649 L2.17639184,31.4405878 L3.50974694,31.4405878 L3.50974694,12.493649 L28.4898612,12.493649 L28.4898612,31.4405878 L29.8232163,31.4405878 L29.8232163,12.493649 L32,12.493649 L32,7.54442449 L15.9986939,0.0369632653 Z M30.6666449,11.1602939 L1.3333551,11.1602939 L1.3333551,8.4523102 L16.0013061,1.51092245 L30.6667102,8.3914449 L30.6667102,11.1602939 L30.6666449,11.1602939 Z" id="Shape"></path>
                    <path d="M15.2581224,17.8725878 L9.15787755,17.8725878 L9.15787755,23.8898286 L15.2581224,23.8898286 L15.2581224,17.8725878 Z M13.9247673,22.5565388 L10.4911673,22.5565388 L10.4911673,19.2059429 L13.9247673,19.2059429 L13.9247673,22.5565388 Z" id="Shape"></path>
                    <path d="M22.8417959,17.8725878 L16.741551,17.8725878 L16.741551,23.8898286 L22.8417959,23.8898286 L22.8417959,17.8725878 Z M21.5084408,22.5565388 L18.0748408,22.5565388 L18.0748408,19.2059429 L21.5084408,19.2059429 L21.5084408,22.5565388 Z" id="Shape"></path>
                    <path d="M5.43621224,31.0750041 L11.5367837,31.0750041 L11.5367837,25.0574367 L5.43621224,25.0574367 L5.43621224,31.0750041 Z M6.76950204,26.3907918 L10.2034286,26.3907918 L10.2034286,29.7417143 L6.76950204,29.7417143 L6.76950204,26.3907918 L6.76950204,26.3907918 Z" id="Shape"></path>
                    <path d="M12.949551,31.0750041 L19.0501224,31.0750041 L19.0501224,25.0574367 L12.949551,25.0574367 L12.949551,31.0750041 Z M14.2828408,26.3907918 L17.7167673,26.3907918 L17.7167673,29.7417143 L14.2828408,29.7417143 L14.2828408,26.3907918 L14.2828408,26.3907918 Z" id="Shape"></path>
                    <path d="M20.4632163,31.0750041 L26.5634612,31.0750041 L26.5634612,25.0574367 L20.4632163,25.0574367 L20.4632163,31.0750041 L20.4632163,31.0750041 Z M21.7965061,26.3907918 L25.2301061,26.3907918 L25.2301061,29.7417143 L21.7965061,29.7417143 L21.7965061,26.3907918 Z" id="Shape"></path>
                    <rect id="Rectangle-path" x="5.90034286" y="8.32313469" width="3.17740408" height="1.3333551"></rect>
                    <rect id="Rectangle-path" x="14.411102" y="8.32313469" width="3.17740408" height="1.3333551"></rect>
                    <rect id="Rectangle-path" x="22.9218612" y="8.32313469" width="3.17740408" height="1.3333551"></rect>
                </g>
            </g>
        </g>
    </g>
</svg>
