
<svg width="32px" height="32px" viewBox="0 0 32 32" version="1.1" xmlns="http://www.w3.org/2000/svg" xmlns:xlink="http://www.w3.org/1999/xlink">
    <g id="-----" stroke="none" stroke-width="1" fill="none" fill-rule="evenodd">
        <g id="Dashboard" transform="translate(-12.000000, -68.000000)" fill-rule="nonzero" fill="#4A4A4A">
            <g id="Nodes" transform="translate(11.000000, 68.000000)">
                <g id="layers" transform="translate(1.000000, 0.000000)">
                    <path d="M26.3546182,12.7685818 L31.9726545,9.55869091 L15.9866182,0.48 L0,9.55869091 L5.61803636,12.7685818 L0,15.9586909 L5.61803636,19.1685818 L0,22.3586909 L15.9866182,31.4920727 L31.9726545,22.3586909 L26.3546182,19.1685818 L31.9726545,15.9586909 L26.3546182,12.7685818 Z M15.9866182,1.81818182 L29.6215273,9.5616 L15.9866182,17.3521455 L2.35112727,9.5616 L15.9866182,1.81818182 Z M6.79272727,13.4394182 L15.9866182,18.6920727 L25.1805091,13.4394182 L29.6215273,15.9616 L15.9866182,23.7521455 L2.35112727,15.9616 L6.79272727,13.4394182 Z M29.6215273,22.3616 L15.9866182,30.1521455 L2.35112727,22.3616 L6.79272727,19.8394182 L15.9866182,25.0920727 L25.1805091,19.8394182 L29.6215273,22.3616 Z" id="Shape"></path>
                </g>
            </g>
        </g>
    </g>
</svg>
