
<svg width="32px" height="20px" viewBox="0 0 32 20" version="1.1" xmlns="http://www.w3.org/2000/svg" xmlns:xlink="http://www.w3.org/1999/xlink">
    <g id="-----" stroke="none" stroke-width="1" fill="none" fill-rule="evenodd">
        <g id="Dashboard---MENU-" transform="translate(-11.000000, -139.000000)" fill-rule="nonzero" fill="#4A4A4A">
            <g id="Nodes" transform="translate(11.000000, 68.000000)">
                <g id="hand-shake" transform="translate(0.000000, 71.000000)">
                    <path d="M25.2666875,13.713125 C24.6386875,12.4038125 22.392,10.5864375 20.221375,8.8304375 C19.0106875,7.85175 17.8666875,6.9264375 17.137375,6.197125 C16.9546875,6.013125 16.681375,5.9544375 16.4400625,6.041125 C15.99075,6.2038125 15.713375,6.329125 15.49475,6.4264375 C15.1614375,6.57575 15.0494375,6.6264375 14.6000625,6.67175 C14.401375,6.69175 14.22275,6.7984375 14.1120625,6.96375 C13.169375,8.3730625 12.193375,8.2530625 11.541375,8.0344375 C11.333375,7.965125 11.2960625,7.87575 11.2760625,7.7904375 C11.1360625,7.205125 11.83875,5.8424375 12.749375,4.93175 C14.9160625,2.76375 16.033375,2.2210625 18.393375,3.27575 C21.0706875,4.4730625 23.753375,5.4104375 23.7800625,5.41975 C24.13075,5.5410625 24.5080625,5.3570625 24.629375,5.0090625 C24.749375,4.6610625 24.5666875,4.2810625 24.2186875,4.15975 C24.192,4.1504375 21.5626875,3.23175 18.9386875,2.0570625 C15.881375,0.690375 14.204,1.590375 11.808,3.98775 C10.896,4.89975 9.6573125,6.7450625 9.9773125,8.0984375 C10.114625,8.6744375 10.52,9.101125 11.122625,9.29975 C12.6333125,9.7984375 14.0119375,9.3210625 15.038625,7.9584375 C15.462625,7.893125 15.6933125,7.797125 16.0399375,7.641125 C16.16525,7.585125 16.3119375,7.5198125 16.506625,7.441125 C17.2693125,8.157125 18.298625,8.9904375 19.382625,9.8664375 C21.342625,11.45175 23.5653125,13.249125 24.0653125,14.289125 C24.312,14.8024375 24.046625,15.137125 23.866625,15.2904375 C23.602625,15.517125 23.2413125,15.589125 23.0453125,15.45175 C22.8293125,15.30375 22.548,15.2944375 22.3253125,15.42775 C22.1013125,15.5610625 21.976,15.8130625 22.004,16.07175 C22.0493125,16.49575 21.6613125,16.7384375 21.4933125,16.8224375 C21.066625,17.0384375 20.6213125,17.001125 20.454625,16.8464375 C20.2679375,16.673125 19.9999375,16.6224375 19.762625,16.7104375 C19.5253125,16.79975 19.3599375,17.0184375 19.3359375,17.27175 C19.2959375,17.7090625 18.9719375,18.1290625 18.54925,18.2930625 C18.34525,18.370375 18.04925,18.4170625 17.7839375,18.174375 C17.618625,18.0250625 17.38925,17.9676875 17.174625,18.0196875 C16.9573125,18.073 16.782625,18.230375 16.706625,18.4396875 C16.6813125,18.506375 16.6239375,18.666375 15.9999375,18.666375 C15.5559375,18.666375 14.75725,18.366375 14.366625,18.1076875 C13.898625,17.7996875 10.9639375,15.610375 8.4293125,13.4876875 C8.0733125,13.1876875 7.4573125,12.545 6.9133125,11.977 C6.430625,11.473 5.9893125,11.0156875 5.762625,10.8236875 C5.478625,10.5836875 5.058625,10.6196875 4.822625,10.902375 C4.5853125,11.1836875 4.6199375,11.6050625 4.9013125,11.842375 C5.108,12.0170625 5.508,12.4396875 5.9493125,12.8996875 C6.544,13.521 7.158625,14.1636875 7.572,14.510375 C10.0546875,16.5890625 13.0386875,18.8330625 13.6333125,19.2236875 C14.124,19.546375 15.1813125,19.9996875 16,19.9996875 C16.6573125,19.9996875 17.1626875,19.849 17.5133125,19.554375 C17.982625,19.7370625 18.516,19.738375 19.0293125,19.538375 C19.636,19.3036875 20.134625,18.830375 20.4173125,18.2570625 C20.942625,18.3690625 21.544,18.290375 22.090625,18.01575 C22.6253125,17.7464375 23.0119375,17.3344375 23.2039375,16.8530625 C23.734625,16.8810625 24.28125,16.6930625 24.73325,16.3050625 C25.4986875,15.6504375 25.7093125,14.6318125 25.2666875,13.713125 Z" id="Shape"></path>
                    <path d="M13.3333125,2.6664375 L7.3333125,2.6664375 C6.9653125,2.6664375 6.666625,2.965125 6.666625,3.333125 C6.666625,3.701125 6.9653125,3.9998125 7.3333125,3.9998125 L13.3333125,3.9998125 C13.7013125,3.9998125 14,3.701125 14,3.333125 C14,2.965125 13.7013125,2.6664375 13.3333125,2.6664375 Z" id="Shape"></path>
                    <path d="M27.22,12.2944375 C27.0133125,11.989125 26.6,11.905125 26.2946875,12.113125 L24.345375,13.4224375 C24.0400625,13.62775 23.9586875,14.0424375 24.1640625,14.34775 C24.293375,14.5384375 24.5040625,14.6424375 24.71875,14.6424375 C24.8454375,14.6424375 24.97475,14.6064375 25.0894375,14.529125 L27.03875,13.2198125 C27.344,13.0144375 27.4253125,12.5998125 27.22,12.2944375 Z" id="Shape"></path>
                    <path d="M23.0813125,15.4758125 C22.604,15.0998125 20.4693125,12.9145 19.1493125,11.5385 C18.894625,11.2718125 18.472,11.2625 18.206625,11.5185 C17.9399375,11.7731875 17.9319375,12.1958125 18.186625,12.4611875 C18.5293125,12.8185 21.5519375,15.9691875 22.254625,16.523875 C22.3759375,16.619875 22.522625,16.6665625 22.666625,16.6665625 C22.862625,16.6665625 23.058625,16.5785625 23.1919375,16.411875 C23.42,16.1238125 23.3706875,15.7038125 23.0813125,15.4758125 Z" id="Shape"></path>
                    <path d="M20.4173125,16.813125 C19.618625,16.1744375 17.612,14.0424375 17.158625,13.549125 C16.9079375,13.277125 16.4879375,13.261125 16.2159375,13.509125 C15.94525,13.7584375 15.926625,14.181125 16.1759375,14.4518125 C16.1999375,14.477125 18.594625,17.0625 19.5839375,17.8545 C19.706625,17.9518125 19.854625,17.9998125 19.9999375,17.9998125 C20.194625,17.9998125 20.38925,17.913125 20.52125,17.7505 C20.7506875,17.4624375 20.704,17.0424375 20.4173125,16.813125 Z" id="Shape"></path>
                    <path d="M17.764,18.1558125 C16.8133125,17.3545 14.868,15.2838125 14.488,14.877125 C14.236,14.6078125 13.8133125,14.593125 13.5453125,14.845125 C13.276,15.097125 13.262625,15.5184375 13.5133125,15.7878125 C14.06,16.373125 15.9213125,18.3465 16.904,19.1758125 C17.0293125,19.281125 17.1813125,19.333125 17.3333125,19.333125 C17.522625,19.333125 17.712,19.2518125 17.844,19.0958125 C18.0813125,18.813125 18.0453125,18.393125 17.764,18.1558125 Z" id="Shape"></path>
                    <path d="M7.792,1.5158125 C6.6493125,0.433125 2.08,0.0824375 0.7066875,0.001125 C0.517375,-0.0081875 0.3426875,0.0544375 0.209375,0.181125 C0.076,0.3064375 0,0.4824375 0,0.6664375 L0,12.6664375 C0,13.0344375 0.2986875,13.333125 0.6666875,13.333125 L4.6666875,13.333125 C4.9546875,13.333125 5.2106875,13.1478125 5.3,12.873125 C5.3973125,12.5744375 7.6946875,5.5238125 7.9973125,2.057125 C8.0146875,1.8544375 7.94,1.6544375 7.792,1.5158125 Z M4.18,11.9998125 L1.3333125,11.9998125 L1.3333125,1.381125 C3.476,1.5504375 5.788,1.9184375 6.628,2.3264375 C6.2746875,5.2464375 4.676,10.4344375 4.18,11.9998125 Z" id="Shape"></path>
                    <path d="M31.3333125,1.333125 C26.098625,1.333125 23.194625,2.673125 23.0733125,2.729125 C22.9,2.8104375 22.770625,2.961125 22.7173125,3.1438125 C22.664,3.3265 22.690625,3.5225 22.790625,3.685125 C23.614625,5.0118125 26.194625,12.3798125 26.690625,14.177125 C26.770625,14.4664375 27.0333125,14.6664375 27.3333125,14.6664375 L31.3333125,14.6664375 C31.7013125,14.6664375 32,14.36775 32,13.99975 L32,1.99975 C32,1.6304375 31.7013125,1.333125 31.3333125,1.333125 Z M30.6666875,13.333125 L27.832,13.333125 C27.2,11.2744375 25.3333125,5.9064375 24.292,3.6878125 C25.3093125,3.3425 27.4946875,2.749125 30.6666875,2.6745 L30.6666875,13.333125 Z" id="Shape"></path>
                </g>
            </g>
        </g>
    </g>
</svg>
