
<svg width="14px" height="9px" viewBox="0 0 14 9" version="1.1" xmlns="http://www.w3.org/2000/svg" xmlns:xlink="http://www.w3.org/1999/xlink">
    <g id="-----" stroke="none" stroke-width="1" fill="none" fill-rule="evenodd">
        <g id="Dashboard---Interaction-02" transform="translate(-524.000000, -114.000000)" fill-rule="nonzero">
            <g id="Option" transform="translate(504.000000, 105.000000)">
                <g id="hand-shake" transform="translate(20.000000, 9.000000)">
                    <path d="M11.0541758,5.99949219 C10.7794258,5.42666797 9.7965,4.63156641 8.84685156,3.86331641 C8.31717578,3.43514063 7.81667578,3.03031641 7.49760156,2.71124219 C7.41767578,2.63074219 7.29810156,2.60506641 7.19252734,2.64299219 C6.99595312,2.71416797 6.87460156,2.76899219 6.77895313,2.81156641 C6.63312891,2.87689063 6.58412891,2.89906641 6.38752734,2.91889063 C6.30060156,2.92764063 6.22245313,2.97431641 6.17402734,3.04664063 C5.76160156,3.66321484 5.33460156,3.61071484 5.04935156,3.51506641 C4.95835156,3.48474219 4.94202734,3.44564063 4.93327734,3.40831641 C4.87202734,3.15224219 5.17945313,2.55606641 5.57785156,2.15764063 C6.52577734,1.20914063 7.01460156,0.971714844 8.04710156,1.43314063 C9.21842578,1.95696484 10.3921016,2.36706641 10.4037773,2.37114063 C10.5572031,2.42421484 10.7222773,2.34371484 10.7753516,2.19146484 C10.8278516,2.03921484 10.7479258,1.87296484 10.5956758,1.81989063 C10.584,1.81581641 9.43367578,1.41389063 8.28567578,0.899964844 C6.94810156,0.302039063 6.21425,0.695789063 5.166,1.74464063 C4.767,2.14364063 4.22507422,2.95096484 4.36507422,3.54306641 C4.42514844,3.79506641 4.6025,3.98174219 4.86614844,4.06864063 C5.52707422,4.28681641 6.13022266,4.07796484 6.57939844,3.48181641 C6.76489844,3.45324219 6.86582422,3.41124219 7.01747266,3.34299219 C7.07229687,3.31849219 7.13647266,3.28991797 7.22164844,3.25549219 C7.55532422,3.56874219 8.00564844,3.93331641 8.47989844,4.31656641 C9.33739844,5.01014063 10.3098242,5.79649219 10.5285742,6.25149219 C10.6365,6.47606641 10.5203984,6.62249219 10.4416484,6.68956641 C10.3261484,6.78874219 10.1680742,6.82024219 10.0823242,6.76014063 C9.98782422,6.69539063 9.86475,6.69131641 9.76732422,6.74964063 C9.66932422,6.80796484 9.6145,6.91821484 9.62675,7.03139063 C9.64657422,7.21689063 9.47682422,7.32306641 9.40332422,7.35981641 C9.21664844,7.45431641 9.02182422,7.43799219 8.94889844,7.37031641 C8.86722266,7.29449219 8.74997266,7.27231641 8.64614844,7.31081641 C8.54232422,7.34989063 8.46997266,7.44556641 8.45947266,7.55639063 C8.44197266,7.74771484 8.30022266,7.93146484 8.11529688,8.00321484 C8.02604688,8.03703906 7.89654688,8.05746484 7.78047266,7.95128906 C7.70814844,7.88596484 7.60779688,7.86086328 7.51389844,7.88361328 C7.41882422,7.9069375 7.34239844,7.97578906 7.30914844,8.06736328 C7.29807422,8.09653906 7.27297266,8.16653906 6.99997266,8.16653906 C6.80572266,8.16653906 6.45629688,8.03528906 6.28539844,7.92211328 C6.08064844,7.78736328 4.79672266,6.82953906 3.68782422,5.90086328 C3.53207422,5.76961328 3.26257422,5.4884375 3.02457422,5.2399375 C2.81339844,5.0194375 2.62032422,4.81936328 2.52114844,4.73536328 C2.39689844,4.63036328 2.21314844,4.64611328 2.10989844,4.76978906 C2.00607422,4.89286328 2.02122266,5.07721484 2.14432422,5.18103906 C2.23475,5.25746484 2.40975,5.44236328 2.60282422,5.64361328 C2.863,5.9154375 3.13189844,6.19661328 3.31275,6.34828906 C4.39892578,7.25771484 5.70442578,8.23946484 5.96457422,8.41036328 C6.17925,8.55153906 6.64182422,8.74986328 7,8.74986328 C7.28757422,8.74986328 7.50867578,8.6839375 7.66207422,8.55503906 C7.86739844,8.63496484 8.10075,8.63553906 8.32532422,8.54803906 C8.59075,8.44536328 8.80889844,8.23828906 8.93257422,7.98746484 C9.16239844,8.03646484 9.4255,8.00203906 9.66464844,7.88189063 C9.89857422,7.76406641 10.0677227,7.58381641 10.1517227,7.37321484 C10.3838984,7.38546484 10.6230469,7.30321484 10.8207969,7.13346484 C11.1556758,6.84706641 11.2478242,6.40141797 11.0541758,5.99949219 Z" id="Shape"></path>
                    <path d="M5.83332422,1.16656641 L3.20832422,1.16656641 C3.04732422,1.16656641 2.91664844,1.29724219 2.91664844,1.45824219 C2.91664844,1.61924219 3.04732422,1.74991797 3.20832422,1.74991797 L5.83332422,1.74991797 C5.99432422,1.74991797 6.125,1.61924219 6.125,1.45824219 C6.125,1.29724219 5.99432422,1.16656641 5.83332422,1.16656641 Z" id="Shape"></path>
                    <path d="M11.90875,5.37881641 C11.8183242,5.24524219 11.6375,5.20849219 11.5039258,5.29949219 L10.6511016,5.87231641 C10.5175273,5.96214063 10.4819258,6.14356641 10.5717773,6.27714063 C10.6283516,6.36056641 10.7205273,6.40606641 10.8144531,6.40606641 C10.8698789,6.40606641 10.9264531,6.39031641 10.9766289,6.35649219 L11.8294531,5.78366797 C11.963,5.69381641 11.9985742,5.51241797 11.90875,5.37881641 Z" id="Shape"></path>
                    <path d="M10.0980742,6.77066797 C9.88925,6.60616797 8.95532422,5.65009375 8.37782422,5.04809375 C8.26639844,4.93141797 8.0815,4.92734375 7.96539844,5.03934375 C7.84872266,5.15076953 7.84522266,5.33566797 7.95664844,5.45176953 C8.10657422,5.60809375 9.42897266,6.98651953 9.73639844,7.22919531 C9.78947266,7.27119531 9.85364844,7.29162109 9.91664844,7.29162109 C10.0023984,7.29162109 10.0881484,7.25312109 10.1464727,7.18019531 C10.24625,7.05416797 10.2246758,6.87041797 10.0980742,6.77066797 Z" id="Shape"></path>
                    <path d="M8.93257422,7.35574219 C8.58314844,7.07631641 7.70525,6.14356641 7.50689844,5.92774219 C7.39722266,5.80874219 7.21347266,5.80174219 7.09447266,5.91024219 C6.97604688,6.01931641 6.96789844,6.20424219 7.07697266,6.32266797 C7.08747266,6.33374219 8.13514844,7.46484375 8.56797266,7.81134375 C8.62164844,7.85391797 8.68639844,7.87491797 8.74997266,7.87491797 C8.83514844,7.87491797 8.92029688,7.83699219 8.97804688,7.76584375 C9.07842578,7.63981641 9.058,7.45606641 8.93257422,7.35574219 Z" id="Shape"></path>
                    <path d="M7.77175,7.94316797 C7.35582422,7.59259375 6.50475,6.68666797 6.3385,6.50874219 C6.22825,6.39091797 6.04332422,6.38449219 5.92607422,6.49474219 C5.80825,6.60499219 5.80239844,6.78931641 5.91207422,6.90716797 C6.15125,7.16324219 6.96557422,8.02659375 7.3955,8.38941797 C7.45032422,8.43549219 7.51682422,8.45824219 7.58332422,8.45824219 C7.66614844,8.45824219 7.749,8.42266797 7.80675,8.35441797 C7.91057422,8.23074219 7.89482422,8.04699219 7.77175,7.94316797 Z" id="Shape"></path>
                    <path d="M3.409,0.663167969 C2.90907422,0.189492188 0.91,0.0360664063 0.309175781,0.0004921875 C0.226351562,-0.00358203125 0.149925781,0.0238164063 0.0916015625,0.0792421875 C0.03325,0.134066406 0,0.211066406 0,0.291566406 L0,5.54156641 C0,5.70256641 0.130675781,5.83324219 0.291675781,5.83324219 L2.04167578,5.83324219 C2.16767578,5.83324219 2.27967578,5.75216797 2.31875,5.63199219 C2.36132422,5.50131641 3.36642578,2.41666797 3.49882422,0.899992188 C3.50642578,0.811316406 3.47375,0.723816406 3.409,0.663167969 Z M1.82875,5.24991797 L0.583324219,5.24991797 L0.583324219,0.604242188 C1.52075,0.678316406 2.53225,0.839316406 2.89975,1.01781641 C2.74517578,2.29531641 2.04575,4.56506641 1.82875,5.24991797 Z" id="Shape"></path>
                    <path d="M13.7083242,0.583242187 C11.4181484,0.583242187 10.1476484,1.16949219 10.0945742,1.19399219 C10.01875,1.22956641 9.96214844,1.29549219 9.93882422,1.37541797 C9.9155,1.45534375 9.92714844,1.54109375 9.97089844,1.61224219 C10.3313984,2.19266797 11.4601484,5.41616797 11.6771484,6.20249219 C11.7121484,6.32906641 11.8270742,6.41656641 11.9583242,6.41656641 L13.7083242,6.41656641 C13.8693242,6.41656641 14,6.28589062 14,6.12489062 L14,0.874890625 C14,0.713316406 13.8693242,0.583242187 13.7083242,0.583242187 Z M13.4166758,5.83324219 L12.1765,5.83324219 C11.9,4.93256641 11.0833242,2.58406641 10.62775,1.61341797 C11.0728242,1.46234375 12.0289258,1.20274219 13.4166758,1.17009375 L13.4166758,5.83324219 Z" id="Shape"></path>
                </g>
            </g>
        </g>
    </g>
</svg>
