
<svg width="12px" height="12px" viewBox="0 0 12 12" version="1.1" xmlns="http://www.w3.org/2000/svg" xmlns:xlink="http://www.w3.org/1999/xlink">
    <g id="-----" stroke="none" stroke-width="1" fill="none" fill-rule="evenodd" opacity="0.425158514">
        <g id="Dashboard---Interaction-02" transform="translate(-672.000000, -112.000000)" fill-rule="nonzero" fill="#000002">
            <g id="Option" transform="translate(504.000000, 105.000000)">
                <g id="Zoom" transform="translate(168.000000, 4.000000)">
                    <g id="zooming-magnifying-glass-(1)" transform="translate(0.000000, 3.000000)">
                        <path d="M11.0829474,11.3004211 L7.652,7.73231579 C8.50142105,6.91389474 9.03142105,5.76626316 9.03142105,4.49631579 C9.03142105,2.01705263 7.01442105,-2.84217094e-14 4.53510526,-2.84217094e-14 C2.05578947,-2.692583e-14 0.0387894737,2.017 0.0387894737,4.49631579 C0.0387894737,6.97557895 2.05578947,8.99263158 4.53510526,8.99263158 C5.46005263,8.99263158 6.32057895,8.71163158 7.03615789,8.23084211 L10.5138947,11.8476316 C10.5914211,11.9282105 10.6948947,11.9687895 10.7984737,11.9687895 C10.8968947,11.9687895 10.9954737,11.9322105 11.072,11.8585789 C11.2291579,11.7074211 11.2340526,11.4575263 11.0829474,11.3004211 Z M0.828263158,4.49631579 C0.828263158,2.45236842 2.49115789,0.789473684 4.53510526,0.789473684 C6.57905263,0.789473684 8.24194737,2.45236842 8.24194737,4.49631579 C8.24194737,6.54026316 6.57905263,8.20315789 4.53510526,8.20315789 C2.49115789,8.20310526 0.828263158,6.54026316 0.828263158,4.49631579 Z" id="Shape"></path>
                        <path d="M6.54815789,4.10157895 L4.92984211,4.10157895 L4.92984211,2.48326316 C4.92984211,2.26521053 4.75315789,2.08852632 4.53510526,2.08852632 C4.31705263,2.08852632 4.14036842,2.26521053 4.14036842,2.48326316 L4.14036842,4.10157895 L2.522,4.10157895 C2.30394737,4.10157895 2.12726316,4.27826316 2.12726316,4.49631579 C2.12726316,4.71436842 2.30394737,4.89105263 2.522,4.89105263 L4.14031579,4.89105263 L4.14031579,6.50942105 C4.14031579,6.72747368 4.317,6.90415789 4.53505263,6.90415789 C4.75310526,6.90415789 4.92978947,6.72747368 4.92978947,6.50942105 L4.92978947,4.89105263 L6.54810526,4.89105263 C6.76615789,4.89105263 6.94284211,4.71436842 6.94284211,4.49631579 C6.94284211,4.27826316 6.76615789,4.10157895 6.54815789,4.10157895 Z" id="Shape"></path>
                    </g>
                </g>
            </g>
        </g>
    </g>
</svg>
