
<svg width="9px" height="12px" viewBox="0 0 9 12" version="1.1" xmlns="http://www.w3.org/2000/svg" xmlns:xlink="http://www.w3.org/1999/xlink">
    <g id="-----" stroke="none" stroke-width="1" fill="none" fill-rule="evenodd" opacity="0.538269928">
        <g id="Dashboard---Interaction-02" transform="translate(-585.000000, -112.000000)" fill-rule="nonzero" fill="#000000">
            <g id="Option" transform="translate(504.000000, 105.000000)">
                <g id="placeholder-(1)" transform="translate(81.000000, 7.000000)">
                    <path d="M4.26698182,2.61818182 C3.42501818,2.61818182 2.73970909,3.30349091 2.73970909,4.14545455 C2.73970909,4.98741818 3.42501818,5.67272727 4.26698182,5.67272727 C5.10894545,5.67272727 5.79425455,4.98741818 5.79425455,4.14545455 C5.79425455,3.30349091 5.10894545,2.61818182 4.26698182,2.61818182 Z M4.26698182,5.23636364 C3.66545455,5.23636364 3.17607273,4.74698182 3.17607273,4.14545455 C3.17607273,3.54392727 3.66545455,3.05454545 4.26698182,3.05454545 C4.86850909,3.05454545 5.35789091,3.54392727 5.35789091,4.14545455 C5.35789091,4.74698182 4.86850909,5.23636364 4.26698182,5.23636364 Z" id="Shape"></path>
                    <path d="M7.18690909,1.22552727 C6.39665455,0.435272727 5.34589091,0 4.22836364,0 C3.11061818,0 2.06007273,0.435272727 1.26981818,1.22552727 C-0.192654545,2.68778182 -0.3744,5.43905455 0.876218182,7.10596364 L4.22836364,11.9469818 L7.57549091,7.11272727 C8.83112727,5.43905455 8.64938182,2.68778182 7.18690909,1.22552727 Z M7.2216,6.85767273 L4.22836364,11.1802909 L1.23032727,6.85090909 C0.096,5.33847273 0.258545455,2.85381818 1.57854545,1.53403636 C2.28632727,0.826254545 3.22734545,0.436363636 4.22836364,0.436363636 C5.22938182,0.436363636 6.1704,0.826254545 6.8784,1.53403636 C8.1984,2.85381818 8.36094545,5.33847273 7.2216,6.85767273 Z" id="Shape"></path>
                </g>
            </g>
        </g>
    </g>
</svg>
