
<svg width="12px" height="12px" viewBox="0 0 12 12" version="1.1" xmlns="http://www.w3.org/2000/svg" xmlns:xlink="http://www.w3.org/1999/xlink">
    <g id="-----" stroke="none" stroke-width="1" fill="none" fill-rule="evenodd" opacity="0.562103714">
        <g id="Dashboard---Interaction-02" transform="translate(-743.000000, -112.000000)" fill-rule="nonzero" fill="#000002">
            <g id="Option" transform="translate(504.000000, 105.000000)">
                <g id="Zoom" transform="translate(168.000000, 4.000000)">
                    <g id="zoom-out-lens" transform="translate(71.000000, 3.000000)">
                        <path d="M11.0828947,11.3004211 L7.65194737,7.73236842 C8.50136842,6.91394737 9.03136842,5.76626316 9.03136842,4.49631579 C9.03136842,2.017 7.01431579,0 4.53510526,0 C2.05578947,0 0.0387894737,2.017 0.0387894737,4.49631579 C0.0387894737,6.97557895 2.05578947,8.99263158 4.53510526,8.99263158 C5.46005263,8.99263158 6.32047368,8.71163158 7.03605263,8.23089474 L10.5138421,11.8476316 C10.5913684,11.9282105 10.6948421,11.9687895 10.7984211,11.9687895 C10.8968421,11.9687895 10.9954211,11.9322105 11.0719474,11.8585789 C11.2291053,11.7074211 11.234,11.4575263 11.0828947,11.3004211 Z M0.828263158,4.49631579 C0.828263158,2.45236842 2.49115789,0.789473684 4.53510526,0.789473684 C6.57905263,0.789473684 8.24189474,2.45236842 8.24189474,4.49631579 C8.24189474,6.54026316 6.57905263,8.20315789 4.53510526,8.20315789 C2.49115789,8.20310526 0.828263158,6.54026316 0.828263158,4.49631579 Z" id="Shape"></path>
                        <path d="M6.54810526,4.10157895 L2.52205263,4.10157895 C2.304,4.10157895 2.12731579,4.27826316 2.12731579,4.49631579 C2.12731579,4.71436842 2.304,4.89105263 2.52205263,4.89105263 L6.54810526,4.89105263 C6.76615789,4.89105263 6.94284211,4.71436842 6.94284211,4.49631579 C6.94284211,4.27826316 6.76615789,4.10157895 6.54810526,4.10157895 Z" id="Shape"></path>
                    </g>
                </g>
            </g>
        </g>
    </g>
</svg>
