<?xml version="1.0" encoding="utf-8"?>
<!-- Generator: Adobe Illustrator 21.0.0, SVG Export Plug-In . SVG Version: 6.00 Build 0)  -->
<svg version="1.1" id="Layer_1" xmlns="http://www.w3.org/2000/svg" xmlns:xlink="http://www.w3.org/1999/xlink" x="0px" y="0px"
	 viewBox="0 0 111.3 120" style="enable-background:new 0 0 111.3 120;" xml:space="preserve">
<title>Icons</title>
<path d="M55.5,110.4c-13.4,0-23.9-20.4-23.9-46.5c0-11.7,2.2-22.9,6.2-31.4c0.4-0.8,1.4-1.2,2.3-0.7c0.8,0.4,1.1,1.3,0.8,2.2
	C37.1,42,35,52.7,35,63.9c0,23.4,9.4,43.1,20.5,43.1S76,87.3,76,63.9c0-11.3-2.1-21.9-5.9-30.1c-0.4-0.9,0-1.9,0.9-2.2
	c0.8-0.3,1.8,0,2.2,0.8c4,8.6,6.2,19.8,6.2,31.5C79.4,90,68.9,110.4,55.5,110.4z"/>
<path d="M54.9,39.3C43,39.3,37,36.4,37,30.6c0-6.6,11.5-13.4,17.9-13.4c6.7,0,19.2,7.1,19.2,13.4C74.1,36.2,67.3,39.3,54.9,39.3z
	 M54.9,20.6c-5.6,0-14.5,6.2-14.5,10c0,4.6,9.1,5.3,14.5,5.3c9.7,0,15.8-2,15.8-5.3C70.7,27,60.7,20.6,54.9,20.6z"/>
<path d="M55.5,110.4c-0.9,0-1.7-0.8-1.7-1.7l0,0V37.6c0-0.9,0.8-1.7,1.7-1.7s1.7,0.8,1.7,1.7v71.1C57.2,109.6,56.5,110.4,55.5,110.4
	L55.5,110.4z"/>
<path d="M43.5,24.2c-0.9,0-1.6-0.7-1.7-1.6c0-0.2,0-0.5,0-0.7c0-7.2,6.2-13,13.7-13s13.7,5.8,13.7,13c0,0.9-0.8,1.7-1.7,1.7
	s-1.7-0.8-1.7-1.7l0,0c0-5.3-4.6-9.6-10.4-9.6s-10.4,4.3-10.4,9.6c0,0.2,0,0.3,0,0.5c0.1,0.9-0.6,1.7-1.6,1.8L43.5,24.2L43.5,24.2z"
	/>
<path d="M75.4,45.3c-0.9,0-1.7-0.8-1.7-1.7c0-0.7,0.5-1.4,1.1-1.6l9.6-3.4l10.2-12.4l2.7-9.2c0.3-0.9,1.2-1.4,2.1-1.2
	s1.4,1.2,1.2,2.1l0,0l-2.8,9.6c-0.1,0.2-0.2,0.4-0.3,0.6L86.8,41.1c-0.2,0.2-0.5,0.4-0.8,0.5l-10.1,3.5
	C75.7,45.2,75.6,45.3,75.4,45.3z"/>
<path d="M109.4,81.8c-0.2,0-0.3,0-0.5-0.1l-13.2-4.1c-0.3-0.1-0.6-0.3-0.9-0.6l-9.9-13.6L77.2,61c-0.9-0.3-1.4-1.2-1.1-2.1
	c0.3-0.9,1.2-1.4,2.1-1.1l0,0l8.2,2.5c0.4,0.1,0.7,0.3,0.9,0.6l10,13.6l12.7,3.9c0.9,0.2,1.5,1.1,1.2,2
	C111,81.3,110.2,81.9,109.4,81.8z"/>
<path d="M93.2,120c-0.4,0-0.8-0.1-1.1-0.4l-12.2-10.8c-0.4-0.4-0.7-1-0.5-1.6l3.9-19.6l-8-5.5c-0.8-0.5-1-1.6-0.4-2.4s1.6-1,2.4-0.4
	l0,0l8.9,6.2c0.6,0.4,0.8,1.1,0.7,1.7l-3.9,19.7L94.3,117c0.7,0.6,0.8,1.7,0.2,2.4C94.2,119.8,93.7,120,93.2,120z"/>
<path d="M35.7,45.3c-0.2,0-0.4,0-0.6-0.1l-10.1-3.5c-0.3-0.1-0.6-0.3-0.8-0.5L13.5,28c-0.1-0.2-0.3-0.4-0.3-0.6l-2.8-9.6
	c-0.3-0.9,0.3-1.8,1.2-2.1s1.8,0.3,2.1,1.2l2.7,9.2l10.2,12.4l9.6,3.4c0.9,0.3,1.4,1.2,1.1,2.1C37.2,44.8,36.5,45.3,35.7,45.3z"/>
<path d="M1.7,81.8C0.7,81.8,0,81,0,80.1c0-0.7,0.5-1.4,1.2-1.6l12.7-3.9l10-13.6c0.2-0.3,0.5-0.5,0.9-0.6l8.2-2.5
	c0.9-0.3,1.8,0.2,2.1,1.1s-0.2,1.8-1.1,2.1l-7.7,2.3L16.3,77c-0.2,0.3-0.5,0.5-0.9,0.6L2.2,81.8C2,81.8,1.8,81.8,1.7,81.8z"/>
<path d="M17.9,120c-0.9,0-1.7-0.7-1.7-1.6c0-0.5,0.2-1,0.6-1.4l11.5-10.1l-3.9-19.7c-0.1-0.7,0.1-1.3,0.7-1.7l8.9-6.2
	c0.8-0.5,1.8-0.3,2.4,0.4s0.3,1.8-0.4,2.4l-8,5.5l3.9,19.6c0.1,0.6-0.1,1.2-0.5,1.6L19,119.6C18.7,119.8,18.3,120,17.9,120z"/>
<path d="M51,13.2c-0.8,0-1.4-0.5-1.6-1.3c-0.7-2.9-2.8-5.3-5.5-6.5c-9.3-4.5-27.3-0.6-40,5C3,10.8,2,10.4,1.6,9.5
	c-0.4-0.9,0-1.9,0.9-2.2c13.9-6.1,32.6-10,42.8-5c3.6,1.6,6.3,4.8,7.3,8.7c0.2,0.9-0.3,1.8-1.2,2.1c0,0,0,0,0,0
	C51.3,13.1,51.1,13.2,51,13.2z"/>
<path d="M60.1,13.2c-0.1,0-0.3,0-0.4-0.1c-0.9-0.2-1.5-1.1-1.2-2.1c0,0,0,0,0,0c1-3.9,3.7-7.1,7.3-8.7c10.3-5,28.9-1.1,42.9,5
	c0.9,0.4,1.2,1.4,0.9,2.2c-0.4,0.9-1.4,1.2-2.2,0.9l0,0c-12.8-5.6-30.7-9.5-40-5c-2.7,1.2-4.8,3.6-5.5,6.5
	C61.5,12.7,60.8,13.2,60.1,13.2z"/>
</svg>
