<?xml version="1.0" encoding="utf-8"?>
<!-- Generator: Adobe Illustrator 21.0.0, SVG Export Plug-In . SVG Version: 6.00 Build 0)  -->
<svg version="1.1" id="Layer_1" xmlns="http://www.w3.org/2000/svg" xmlns:xlink="http://www.w3.org/1999/xlink" x="0px" y="0px"
	 viewBox="0 0 80.4 169.6" style="enable-background:new 0 0 80.4 169.6;" xml:space="preserve">
<title>Icons</title>
<path class="bug-pest-st0" d="M72.9,44.9c4.2-3.5,4.8-9.9,1.2-14.1c-1.9-2.2-4.6-3.5-7.5-3.6l0,0c-2,0-3.9,0.6-5.5,1.7c-2.3-2.4-4.8-4.8-7.6-7.4
	c-6.6-6-12.3-10.3-12.3-10.3l-0.9-0.6l-0.9,0.7c-0.1,0-5.9,4.4-12.5,10.4c-2.8,2.5-5.2,4.9-7.5,7.3C14.7,26,8.5,27.4,5.6,32.1
	c-2.4,3.8-1.9,8.8,1.2,12c0.2,0.2,0.5,0.5,0.7,0.7c-0.7,1.5-2.9,7.7-3.5,9.3c-1.8,5.6-2.8,11.4-3,17.3
	c-0.9,23.4,12.8,50.2,37.8,50.2c0.6,2.1,3.2,3.8,5.1,5c0.5,0.3,0.9,0.6,1.1,0.8c4.9,3.6,8,7.2,7.4,13c-0.4,4.3-2.8,6.7-5.5,9.4
	c-2.1,1.9-4,4.2-5.3,6.8c-2.8,5.6,3,9.2,6.4,11.3l0.2,0.1l1.5-2.4l-0.2-0.1c-4-2.5-6.9-4.6-5.4-7.6c1.3-2.3,2.9-4.3,4.8-6
	c2.9-2.9,5.8-5.8,6.4-11.2c0.8-7.6-3.7-12-8.6-15.6c-0.3-0.2-0.8-0.5-1.3-0.9c-1.2-0.7-2.4-1.6-3.4-2.6
	c25.1-2.1,37.1-28.4,37.2-49.5c0-5.3-1.8-13.6-2.9-17.2C75.8,53.2,73.6,46.4,72.9,44.9z M40.2,118.8C15.5,118.8,3.7,93.6,4,72.1
	c0.6-9,1.8-13.7,2.8-17c0.4-1.4,2.6-7.4,3.2-8.7c1.2,0.5,2.5,0.8,3.8,0.8l0,0v-2.9l0,0c-3.9,0-7.1-3.2-7.1-7.1s3.2-7.1,7.1-7.1
	c3.9,0,7.1,3.2,7.1,7.1h2.9c0-2.3-0.8-4.6-2.3-6.4c2.2-2.2,4.6-4.6,7.3-7.1c5-4.6,9.6-8.2,11.4-9.6c1.8,1.4,6.3,5,11.3,9.5
	c2.7,2.5,5.2,4.9,7.4,7.2c-1.5,1.8-2.3,4-2.3,6.4h2.9c0-3.9,3.2-7.1,7.1-7.1l0,0l0,0c3.9,0,7.1,3.2,7.1,7.1c0,3.9-3.2,7.1-7.1,7.1
	l0,0v2.9c1.3,0,2.6-0.3,3.9-0.8c0.6,1.3,2.8,8,3.2,9.4c1.8,5.2,2.8,10.8,2.8,16.3C76.4,90.5,63.4,118.8,40.2,118.8z"/>
<path class="bug-pest-st0" d="M48.6,169.6l-1.1-0.7c-3.5-2.2-10-6.3-6.8-12.7c1.4-2.6,3.3-5,5.5-7c2.7-2.7,4.8-4.8,5.2-8.8c0.5-5.3-2.3-8.6-7-12.1
	c-0.3-0.2-0.6-0.4-1.1-0.7c-1.7-1.1-4.2-2.7-5.3-4.9c-9.1-0.2-17.7-4.1-23.8-10.8C4.9,102.3-0.5,86.7,0,71.4c0.2-6,1.2-11.9,3-17.6
	c0.5-1.4,2.2-6.4,3.2-8.7L6,45c-4.4-4.2-4.6-11.1-0.5-15.5c3.5-3.7,9.2-4.5,13.6-1.9c2.1-2.2,4.5-4.4,6.9-6.7
	c6.4-5.8,11.9-10,12.5-10.5l1.5-1.1l1.6,1.2c1,0.8,6.3,4.9,12.4,10.3c2.5,2.3,4.9,4.6,7.1,6.8c5.2-3.2,12-1.6,15.1,3.6
	c2.8,4.6,1.9,10.5-2.1,14c1.1,2.7,3.2,9.3,3.2,9.4c1.1,3.3,3,11.9,3,17.5c0,11.5-3.3,22.8-9.4,32.5c-6.5,10.1-15.6,16.2-26.3,17.8
	c0.6,0.4,1.1,0.7,1.4,0.9c0.5,0.3,1,0.6,1.4,0.9c5.1,3.8,9.8,8.5,9,16.6c-0.6,5.7-3.8,9-6.7,11.8c-1.8,1.6-3.4,3.6-4.6,5.7
	c-0.9,1.8,0.3,3.2,5,6.2l1.1,0.7L48.6,169.6z M13.9,28.3c-4.9,0-8.9,4-8.9,8.9c0,2.4,0.9,4.6,2.6,6.3C7.8,43.6,8,43.8,8.2,44
	l0.7,0.5l-0.4,0.8c-0.7,1.4-2.8,7.4-3.4,9.2c-1.7,5.5-2.7,11.2-2.9,17c-0.6,14.8,4.7,29.7,13.6,39c6,6.4,14.3,10.1,23.1,10.1h0.8
	l0.2,0.8c0.5,1.7,3,3.3,4.6,4.4c0.5,0.3,0.9,0.6,1.2,0.8c2.4,1.6,4.4,3.6,6,6c1.5,2.4,2.2,5.2,1.8,8c-0.5,4.7-3.1,7.3-5.9,10.1
	c-2.1,1.9-3.8,4-5.1,6.5c-2,4.1,1.4,6.9,5.3,9.5l0.4-0.6c-3.2-2-6.9-4.8-5-8.6c1.3-2.4,3-4.5,5-6.3c2.9-2.9,5.6-5.6,6.1-10.5
	C55,134,51.6,130,46.2,126c-0.3-0.2-0.8-0.5-1.2-0.8c-1.3-0.8-2.5-1.7-3.6-2.8l-1.4-1.6l2.2-0.2c14-1.2,22.5-10,27.2-17.1
	c5.9-9.4,9-20.3,9-31.3c0-4.9-1.7-13.1-2.9-16.9c-0.9-2.7-2.8-8.6-3.4-9.9l-0.4-0.8l0.7-0.5c3.7-3.2,4.2-8.8,1-12.5
	c-2.9-3.4-7.8-4.1-11.5-1.7l-0.8,0.5l-0.6-0.7c-2.3-2.4-4.8-4.8-7.6-7.3c-6-5.4-11.2-9.5-12.2-10.2l-0.3-0.2L40,12
	c-0.6,0.5-6.1,4.7-12.4,10.4c-2.7,2.4-5.2,4.8-7.4,7.2l-0.6,0.7l-0.8-0.5C17.3,28.8,15.6,28.3,13.9,28.3z M40.2,119.9
	c-8.9,0.1-17.4-3.4-23.5-9.8c-4.7-5-8.3-11-10.5-17.5C3.9,86,2.8,79,2.9,72.1V72c0.6-9.3,1.8-14.1,2.9-17.3c0.5-1.4,2.6-7.4,3.2-8.8
	l0.4-0.9l1,0.4c0.8,0.3,1.5,0.5,2.3,0.6v-0.7c-4.5-0.6-7.6-4.7-7-9.2c0.5-4.1,4-7.1,8.1-7.1c4.1,0,7.6,3,8.1,7.1h0.7
	c-0.2-1.7-0.9-3.3-2-4.6l-0.6-0.7l0.7-0.7c2.2-2.3,4.7-4.7,7.3-7.1c5.1-4.6,9.7-8.3,11.5-9.7l0.6-0.5l0.7,0.5
	c1.7,1.3,6.3,4.9,11.3,9.5c2.7,2.4,5.2,4.9,7.5,7.2l0.7,0.7l-0.6,0.7c-1.1,1.3-1.8,2.9-2,4.6h0.7c0.6-4.5,4.7-7.6,9.2-7
	c4.5,0.6,7.6,4.7,7,9.2c-0.5,3.7-3.4,6.5-7,7V46c0.8-0.1,1.6-0.3,2.4-0.6l0.9-0.4l0.4,0.9c0.7,1.4,2.7,7.7,3.3,9.5l0.1,0.4
	c1.8,5.2,2.7,10.7,2.7,16.2c0,10-3.7,21.9-9.6,30.9C60.7,113.9,50.9,119.9,40.2,119.9z M5.1,72.1c-0.2,14.1,4.9,28.1,13.1,36.4
	c5.7,6,13.7,9.3,22,9.2c7,0,17.2-2.8,25.9-16c5.7-8.7,9.2-20,9.2-29.7c0-5.3-0.9-10.5-2.6-15.6L72.6,56c-1-3.2-2.2-6.6-2.8-8.4
	c-1.1,0.3-2.1,0.5-3.2,0.5h-1.1v-5h1.1c3.3,0,6-2.7,6-6s-2.7-6-6-6c-3.3,0-6,2.7-6,6v1.1h-5v-1.1c0-2.2,0.7-4.4,2-6.3
	c-2.1-2.1-4.3-4.3-6.7-6.5c-4.5-4-8.5-7.3-10.5-8.9c-2.1,1.6-6.2,5-10.7,9c-2.3,2.1-4.5,4.2-6.6,6.3c1.3,1.8,2,4,2,6.3v1.1h-5v-1.1
	c0-3.3-2.7-6-6-6s-6,2.7-6,6s2.7,6,6,6h1.1v5H14c-1.1,0-2.2-0.2-3.2-0.5C9.9,49.7,8.4,54,8,55.3C6.9,58.4,5.7,63.1,5.1,72.1
	L5.1,72.1z"/>
<line class="bug-pest-st0" x1="43.3" y1="12.2" x2="59.4" y2="1.6"/>
<rect class="bug-pest-st0" x="41.7" y="5" transform="matrix(0.8348 -0.5505 0.5505 0.8348 4.6917 29.4039)" width="19.4" height="3.7"/>
<line class="bug-pest-st0" x1="43.1" y1="14.2" x2="60.9" y2="11.9"/>
<rect class="bug-pest-st0" x="43" y="11.2" transform="matrix(0.9916 -0.129 0.129 0.9916 -1.2524 6.8142)" width="17.9" height="3.7"/>
<line class="bug-pest-st0" x1="37" y1="12.2" x2="20.8" y2="1.6"/>
<rect class="bug-pest-st0" x="27.1" y="-2.8" transform="matrix(0.5502 -0.835 0.835 0.5502 7.2405 27.2478)" width="3.7" height="19.4"/>
<line class="bug-pest-st0" x1="37.1" y1="14.2" x2="19.4" y2="11.9"/>
<rect class="bug-pest-st0" x="26.4" y="4.1" transform="matrix(0.1293 -0.9916 0.9916 0.1293 11.6366 39.4164)" width="3.7" height="17.9"/>
<path class="bug-pest-st0" d="M63.1,53.3c0,0,0.2,0.1,0.4,0.3s0.7,0.5,1.2,0.9c0.6,0.5,1.1,1.1,1.6,1.6c0.3,0.3,0.6,0.7,0.9,1.1c0.2,0.2,0.3,0.4,0.3,0.7
	c0.1,0.2,0.2,0.5,0.3,0.7c0.4,1.1,0.8,2.2,1.2,3.3c0.4,1.2,0.7,2.5,0.9,3.8c0.2,1.4,0.4,2.7,0.4,4.1c0.1,1.4,0.1,2.8,0,4.3
	c-0.1,0.7-0.1,1.4-0.2,2.1s-0.2,1.4-0.3,2.1l-0.2,1c-0.1,0.3-0.1,0.7-0.2,1c-0.2,0.7-0.3,1.3-0.5,2s-0.4,1.3-0.6,1.9L67.6,86
	c-0.2,0.6-0.5,1.1-0.7,1.6l-0.3,0.8l-0.4,0.7c-0.1,0.2-0.2,0.5-0.3,0.7c-0.1,0.2-0.2,0.5-0.4,0.6c-0.3,0.4-0.6,0.7-0.9,1
	s-0.6,0.6-0.8,0.9c-0.3,0.3-0.5,0.5-0.8,0.7c-0.5,0.4-0.8,0.8-1.1,1l-0.4,0.3l0.1-0.5c0.1-0.3,0.2-0.8,0.4-1.4s0.3-1.3,0.5-2.1
	c0.1-0.4,0.2-0.8,0.3-1.3c0-0.2,0.1-0.5,0.3-0.6c0.1-0.2,0.2-0.4,0.3-0.6l0.3-0.7l0.3-0.7c0.2-0.5,0.4-1,0.6-1.5l0.6-1.6
	c0.2-0.6,0.4-1.1,0.6-1.7s0.3-1.2,0.5-1.8c0.1-0.3,0.1-0.6,0.2-0.9l0.2-0.9c0.1-0.6,0.2-1.3,0.3-1.9s0.1-1.3,0.2-2
	c0.1-1.3,0.1-2.6,0-3.9c-0.1-1.3-0.2-2.5-0.4-3.7c-0.2-1.2-0.5-2.3-0.8-3.4c-0.3-1-0.6-2-1-3c-0.1-0.2-0.2-0.4-0.3-0.7
	c-0.1-0.2-0.2-0.4-0.3-0.6c-0.1-0.4-0.2-0.9-0.3-1.3c-0.2-0.8-0.4-1.5-0.5-2.1C63.3,54,63.1,53.3,63.1,53.3z"/>
<path class="bug-pest-st0" d="M13.3,76c0,0,0.1,0.7,0.4,1.9c0.1,0.6,0.3,1.3,0.5,2.1c0.1,0.4,0.2,0.8,0.4,1.3c0.1,0.2,0.1,0.5,0.1,0.7c0,0.2,0,0.5,0,0.7
	c0.1,1,0.3,2.1,0.5,3.1c0.5,2.4,1.2,4.7,2.3,6.9c0.5,1.2,1.2,2.3,1.8,3.4c0.4,0.6,0.7,1.1,1.1,1.6s0.8,1.1,1.2,1.6l0.6,0.8
	c0.2,0.2,0.4,0.5,0.6,0.7c0.4,0.5,0.8,0.9,1.3,1.4s0.9,0.9,1.3,1.3l1.3,1.2c0.4,0.4,0.9,0.7,1.3,1.1l0.6,0.5l0.6,0.4
	c0.2,0.1,0.4,0.3,0.6,0.4c0.2,0.1,0.4,0.3,0.5,0.4c0.3,0.4,0.6,0.7,0.9,1c0.6,0.6,1,1.2,1.5,1.6c0.5,0.4,0.7,0.8,1,1.1l0.3,0.4
	l-0.5-0.1c-0.3-0.1-0.8-0.2-1.4-0.4c-0.3-0.1-0.6-0.2-1-0.3l-1.2-0.4c-0.4-0.1-0.9-0.3-1.3-0.5c-0.2-0.1-0.4-0.2-0.6-0.4
	c-0.2-0.2-0.4-0.3-0.6-0.5l-0.6-0.5l-0.6-0.5c-0.4-0.4-0.9-0.7-1.4-1.1l-1.4-1.3c-0.5-0.4-0.9-0.9-1.4-1.4s-0.9-1-1.4-1.5
	c-0.2-0.2-0.4-0.5-0.7-0.8l-0.7-0.8c-0.4-0.5-0.8-1.1-1.3-1.7s-0.8-1.2-1.2-1.8c-0.7-1.2-1.4-2.5-2-3.8c-0.6-1.3-1.1-2.5-1.5-3.9
	c-0.4-1.2-0.7-2.5-1-3.8c-0.2-1.1-0.4-2.3-0.5-3.4c0-0.3,0-0.5-0.1-0.8c0-0.2,0-0.5,0-0.8c0.1-0.5,0.2-1,0.3-1.4
	c0.2-0.7,0.4-1.5,0.7-2.2c0.2-0.5,0.4-0.9,0.6-1.4C13.2,76.1,13.3,76,13.3,76z"/>
</svg>
