<?xml version="1.0" encoding="utf-8"?>
<!-- Generator: Adobe Illustrator 21.0.0, SVG Export Plug-In . SVG Version: 6.00 Build 0)  -->
<svg version="1.1" id="Layer_1" xmlns="http://www.w3.org/2000/svg" xmlns:xlink="http://www.w3.org/1999/xlink" x="0px" y="0px"
	 viewBox="0 0 97 108.4" style="enable-background:new 0 0 97 108.4;" xml:space="preserve">
<title>Icons</title>
<path d="M96,66.9l-6.8-3.5L78.5,46c-0.3-0.5-0.8-0.8-1.4-0.8h-8.4c-2.1-3-5.2-5.3-8.7-6.4c0.2-0.3,0.4-0.7,0.6-1.1l9.1-2.2
	c0.9-0.2,1.4-1.1,1.2-2c0,0,0,0,0,0l-4.1-17.2l3.8-5.6c0.5-0.8,0.3-1.8-0.4-2.3s-1.8-0.3-2.3,0.4L63.6,15c-0.3,0.4-0.4,0.9-0.2,1.3
	l3.9,16.4l-6.1,1.5c-0.1-0.4-0.1-0.7-0.3-1.1c-1-2.5-2.5-4.6-4.5-6.3c-0.2-1.9-0.7-3.7-1.4-5.5c5.2-7.4,3.1-15.2,7.2-18.3
	c0.8-0.5,0.9-1.5,0.4-2.3C62.1,0,61-0.2,60.3,0.3c0,0-0.1,0.1-0.1,0.1c-4.7,3.6-3,12-7.2,18c-2.4-2.5-6.3-2.6-8.8-0.2
	c-0.1,0.1-0.1,0.1-0.2,0.2c-4.2-5.9-2-14.4-6.7-18c-0.7-0.6-1.7-0.5-2.3,0.2c-0.6,0.7-0.5,1.7,0.2,2.3c0,0,0.1,0.1,0.1,0.1
	c4.1,3.1,1.5,10.9,6.7,18.3c-0.8,1.7-1.2,3.6-1.4,5.5c-2,1.7-3.6,3.9-4.5,6.3c-0.1,0.4-0.2,0.7-0.3,1.1l-6.2-1.5l3.9-16.4
	c0.1-0.5,0-0.9-0.2-1.3L29,8.9c-0.5-0.8-1.5-0.9-2.3-0.4c-0.8,0.5-0.9,1.5-0.4,2.3l0,0l3.8,5.6l-4.1,17.2c-0.2,0.9,0.3,1.8,1.2,2
	c0,0,0,0,0,0l9.1,2.2c0.2,0.4,0.4,0.7,0.6,1.1c-3.5,1.2-6.6,3.4-8.7,6.4h-8.4c-0.6,0-1.1,0.3-1.4,0.8L7.7,63.5L0.9,67
	c-0.8,0.4-1.1,1.4-0.7,2.2c0.3,0.6,0.9,0.9,1.5,0.9c0.3,0,0.5-0.1,0.8-0.2l7.2-3.7c0.3-0.1,0.5-0.3,0.7-0.6l10.5-17h5.4
	c-0.4,0.8-0.8,1.6-1.2,2.5c-1.1,2.6-2.1,5.1-3,7.4l0,0l0,0c-0.1,0.3-0.2,0.7-0.4,1l-7,2c-0.7,0.2-1.2,0.8-1.2,1.6
	c0,1-0.2,24.3,1.1,31.7l-4.6,7.4c-0.5,0.8-0.2,1.8,0.5,2.3c0.8,0.5,1.8,0.2,2.3-0.5l5-7.9c0.2-0.4,0.3-0.8,0.2-1.2
	c-1.2-5.4-1.2-25.2-1.2-30.4l3.7-1c-2,6.9-2.5,12.7-1.6,17.7l0,0c0.4,2.1,1,4.2,2,6.1c0.6,1.2,1.3,2.4,2,3.5l0,0
	c2.3,3.6,5.1,6.9,8.4,9.6c0.2,0.2,0.4,0.4,0.6,0.5c4.7,4,10.4,6.6,16.4,7.7h0.3l0,0h0.2c6.2-1,11.9-3.7,16.7-7.8
	c0.2-0.1,0.3-0.2,0.4-0.3c4.3-3.7,7.8-8.2,10.3-13.3c1-1.9,1.6-4,2-6.1l0,0c0.9-5,0.3-10.9-1.6-17.7l3.7,1c0,5.2,0,25-1.2,30.4
	c-0.1,0.4,0,0.9,0.2,1.2l5,7.9c0.5,0.8,1.5,1,2.3,0.5c0.8-0.5,1-1.5,0.5-2.3l0,0l-4.6-7.4c1.3-7.4,1.1-30.7,1.1-31.7
	c0-0.7-0.5-1.4-1.2-1.6l-7-2c-0.1-0.3-0.2-0.7-0.4-1l0,0l0,0c-0.8-2.4-1.8-4.9-3-7.4c-0.4-0.9-0.8-1.7-1.2-2.5h5.4l10.5,17
	c0.2,0.3,0.4,0.5,0.6,0.6l7.2,3.7c0.8,0.5,1.8,0.3,2.3-0.4s0.3-1.8-0.4-2.3C96.2,67,96.1,67,96,66.9z M73.2,85.6
	c-0.4,0.9-0.9,1.7-1.4,2.5c-18-1.8-41.6-0.3-46.7,0c-0.5-0.8-1-1.7-1.4-2.5c-0.5-1.1-1-2.2-1.3-3.4c6.5-0.8,30-3.1,52,0
	C74.2,83.3,73.8,84.5,73.2,85.6L73.2,85.6z M21.9,78.9c-0.3-2.9-0.1-5.8,0.4-8.6C31.8,71.4,41.4,72,51,72c7.9,0,15.9-0.6,23.7-1.8
	c0.5,2.8,0.6,5.7,0.4,8.6C52.4,75.7,28.3,78.1,21.9,78.9L21.9,78.9z M22.9,67c0.5-2,1-4,1.8-6.2c8,1.6,16.1,2.4,24.3,2.4
	c7.8,0,15.7-0.8,23.3-2.4c0.7,2.2,1.3,4.3,1.8,6.3C53.6,70.4,29.2,67.8,22.9,67L22.9,67z M25.8,57.6c0.7-1.7,1.4-3.5,2.2-5.3
	c0.4-0.9,0.8-1.7,1.2-2.4c6.4,2.7,13.2,4,20.1,4.1c6.4,0,12.7-1.4,18.5-4.1c0.4,0.8,0.8,1.5,1.2,2.4c0.8,1.8,1.5,3.6,2.2,5.3
	C50.8,61.9,31.7,58.8,25.8,57.6L25.8,57.6z M48.5,19.7c3.1,0,4.2,4.7,4.5,6.8c-1.4,0.6-2.9,1-4.5,1.2c-1.6-0.1-3.1-0.5-4.5-1.2
	C44.3,24.4,45.4,19.7,48.5,19.7z M39.2,34.2c0.7-1.8,1.8-3.4,3.2-4.7c1.9,0.9,3.9,1.4,6,1.5c2.1-0.1,4.1-0.6,6-1.5
	c1.4,1.3,2.5,2.9,3.2,4.6c0.8,2.3-1.9,4.3-2,4.4s-0.1,0.1-0.1,0.1c0,0-0.1,0.1-0.1,0.1c-1.1,1.1-4.6,4.3-7,4.3c-2.1,0-5.4-2.7-7-4.3
	c0,0-0.1-0.1-0.1-0.1c0,0-0.1-0.1-0.1-0.1C41.2,38.6,38.5,36.5,39.2,34.2z M39.6,41.6c1.4,1.4,5.3,4.8,8.9,4.8s7.4-3.4,8.8-4.8
	c1.4,0.1,5.1,1,8.6,5.6C51,53.9,36.1,49.1,31,47.1C34.5,42.6,38.2,41.7,39.6,41.6L39.6,41.6z M48.5,105.1c-4.1-0.7-7.9-2.3-11.4-4.6
	c5.7-0.4,15.6-1,23.3-0.2C56.8,102.8,52.7,104.4,48.5,105.1z M64.1,97.5c-10.3-1.8-27.1-0.3-31,0.1c-2.2-1.9-4.1-4-5.8-6.3
	c7.2-0.4,26.7-1.4,42.5-0.1C68.1,93.5,66.2,95.6,64.1,97.5L64.1,97.5z"/>
</svg>
