<?xml version="1.0" encoding="utf-8"?>
<!-- Generator: Adobe Illustrator 21.0.0, SVG Export Plug-In . SVG Version: 6.00 Build 0)  -->
<svg version="1.1" id="Layer_1" xmlns="http://www.w3.org/2000/svg" xmlns:xlink="http://www.w3.org/1999/xlink" x="0px" y="0px"
	 viewBox="0 0 109.6 115.6" style="enable-background:new 0 0 109.6 115.6;" xml:space="preserve">
<title>Icons</title>
<path d="M12.8,115.6c-3.1,0-5.5-1-7.1-3c-2.9-3.7-4.9-12,10.6-41.8c3.5-6.8,7.3-13.4,10.8-19.3c-1.9,0.2-3.4,0.8-3.9,2.1l-0.4,1
	c-6,15.3-6.3,15.7-16,22.6l-3,2.2c-3.3,2.2-5.3-2.2-2.8-3.8l3.1-2.2C13,67.2,13,67.2,18.6,53l0.4-1c1.8-4.5,6.5-5.4,11.1-5.1
	c1.1-1.7,2.1-3.4,3.1-4.9c-1-0.2-1.9-0.6-2.6-1.2c-2.8-2.1-2.9-5.8-2.9-8.7c0-1.9-0.1-4-0.9-4.3c-10.2-4-12.3-5.9-13.2-6.6
	c-2-1.4,0.2-5.7,3.4-3.3c0.4,0.3,2.1,1.8,11.5,5.5c3.7,1.4,3.8,5.4,3.8,8.6c0.1,2.1,0.1,4.3,1.1,5.1c0.8,0.5,1.7,0.6,2.6,0.5
	c1.8-2.8,3.3-5.1,4.3-6.5c-0.4-0.1-0.7-0.3-1-0.4c-3.2-1.3-6.7-3.2-6.7-8c0-2.7,1.8-5.4,5-7.5c2.5-1.6,5.4-2.5,8.4-2.7L40.3,1.6
	c-0.5-1.3,1-2,2.1-1.1c0.2,0,7.6,9.4,7.6,9.4c1.1-1.8,2.7-3.4,4.8-3.4s3.5,1.5,4.6,3.2l7.5-9.3c1.1-1.1,2.5-0.2,2.1,1.1l-5.6,10.7
	c3.2,0,6.4,1,9.1,2.7c3.2,2.1,5,4.8,5,7.5c0,4.9-3.4,6.7-6.6,8c-0.2,0.1-0.5,0.2-0.9,0.3c1,1.4,2.4,3.7,4.3,6.5
	c0.9,0.1,1.8,0,2.5-0.5c1-0.8,1-3,1.1-5.1c0.1-3.2,0.2-7.1,3.8-8.6c9.4-3.7,10.3-4.8,11.6-5.6c2.6-1.8,5.1,1.2,3.3,3.3
	c-0.8,0.7-3,2.6-13.2,6.6c-0.8,0.3-0.8,2.4-0.9,4.3c-0.1,2.9-0.2,6.6-2.9,8.7c-0.8,0.6-1.6,1-2.6,1.2c1,1.5,2,3.2,3.1,4.9
	c4.6-0.3,9.3,0.7,11,5.1l0.4,1c5.6,14.3,5.6,14.3,14.3,20.5l3.1,2.2c1,0.9,1,2.4,0.1,3.4c-0.7,0.8-1.9,1-2.8,0.5l-3-2.2
	c-9.7-6.9-10-7.3-16-22.6l-0.4-1c-0.5-1.3-2-1.9-3.8-2.1c3.5,5.9,7.3,12.5,10.8,19.3c15.5,29.8,13.5,38.1,10.6,41.8
	c-2.3,2.9-6.3,3.8-11.8,2.4c-6.4-1.6-12.3-4.6-19-9.8c-1.5-1.2-3-2.4-4.4-3.8c-3.9,3.6-8.7,6-13.9,6.9h-0.8h-0.2
	c-5.1-0.9-9.8-3.2-13.6-6.6c-1.3,1.2-2.7,2.4-4.1,3.5c-6.7,5.2-12.6,8.2-19,9.8C15.9,115.4,14.4,115.6,12.8,115.6z M32.5,51.8
	c-3.8,6.3-8,13.6-12,21.1C6.1,100.5,8,107.8,9.4,109.7c1.3,1.7,4.5,1.3,7,0.7c5.8-1.4,11-4.1,17.2-8.9c1.3-1,2.6-2.1,3.8-3.2
	c-0.6-0.7-1.1-1.4-1.6-2.2c-4.5-6.5-6.3-14.3-4.9-21.2c0.6-3.2,2.7-7.6,4.8-11.4c-1.2,0.2-2.4,0.7-3.3,1.5
	c-2.8,2.7-2.8,9.4-2.6,17.9c0.2,7.3-3,10-9.5,15.5c-1.5,1.2-4.5,3.9-5,4.3c-2.9,1.9-5.1-1.2-3.1-3.5c0.8-0.7,3.6-3.1,5.1-4.4
	c6.5-5.4,8-6.9,7.8-11.7c-0.3-10-0.2-17.4,4-21.5c2.2-2.1,5.2-3,9.3-3c0.4-0.8,0.9-1.4,1.2-2c-0.4-1.1-0.8-2.2-1.1-3.4
	C36.5,52.6,34.5,52.2,32.5,51.8z M72.5,98c1.3,1.2,2.6,2.4,4.1,3.5c6.2,4.8,11.4,7.5,17.2,8.9c2.5,0.6,5.7,1,7-0.7
	c1.5-1.9,3.3-9.2-11.1-36.7c-3.9-7.5-8.1-14.8-12-21.2c-2,0.3-4,0.9-5.9,1.5c-0.4,1.4-0.8,2.7-1.3,4.1l0.8,1.3
	c4.3-0.2,7.5,0.8,9.8,2.9c4.2,4,4.3,11.4,4,21.5c-0.1,4.8,1.4,6.3,7.8,11.7c1.5,1.2,4.6,3.9,5.1,4.4c2.2,2.1-0.2,5.6-3.1,3.5
	c-0.4-0.4-3.5-3.1-5-4.3c-6.5-5.4-9.7-8.2-9.5-15.5c0.3-8.5,0.2-15.3-2.6-17.9c-1.1-0.9-2.4-1.5-3.8-1.6c2.1,3.8,4.1,8.2,4.8,11.5
	c1.4,6.9-0.4,14.7-4.9,21.2C73.4,96.8,72.9,97.4,72.5,98L72.5,98z M44,98.3c3.1,2.7,6.8,4.5,10.8,5.3c4.2-0.8,8-2.7,11.1-5.6
	c-3.8-4.2-6.9-9.1-9.1-14.2c-2.2-5.1-1.6-10.1,1.8-14.2c0.4-0.5,0.8-0.9,1.3-1.3c-1.6,0.4-3.2,0.6-4.8,0.6c-1.8,0-3.6-0.4-5.3-1
	c0.6,0.5,1.2,1.1,1.8,1.8c3.4,4,4.1,9.1,1.8,14.2C51,89.2,47.9,94,44,98.3L44,98.3z M38.2,68.8c-1.2,2.2-2.1,4.6-2.7,7.1
	c-1.1,5.6,0.4,12.2,4.2,17.6c0.3,0.5,0.7,1,1.1,1.5c3.4-3.9,6.2-8.3,8.3-13c1.9-4.3,0.5-7.4-1.1-9.2C45.6,69.9,41.3,68.2,38.2,68.8z
	 M70.7,68.7c-3.3,0.1-6.3,1.6-8.5,4c-1.6,1.8-3,4.9-1.1,9.2c2,4.6,4.7,8.9,8,12.6c0.3-0.4,0.6-0.7,0.8-1.1c3.8-5.4,5.3-12,4.2-17.6
	c-0.6-2.5-1.6-4.9-2.8-7.2C71.2,68.7,71,68.7,70.7,68.7L70.7,68.7z M40.7,64.1c1.6,0.2,3.1,0.6,4.6,1.2c-1.2-1.1-2.3-2.3-3.2-3.6
	C41.7,62.4,41.2,63.2,40.7,64.1L40.7,64.1z M68,62.3c-0.6,0.9-1.4,1.7-2.2,2.5c1-0.4,2.1-0.6,3.2-0.8C68.6,63.5,68.3,62.9,68,62.3
	L68,62.3z M48.8,31.2L48.8,31.2c-5.1,1.7-7.4,5.1-7.4,9.5c0,2.4,0.4,23.2,13.8,23.6c2.7,0.2,5.3-0.8,7.2-2.7
	c4.6-4.4,6.2-13.7,6.2-20.9c0-4.4-2.3-7.8-7.4-9.5l0,0c-0.9-0.3-1.8-0.7-2.6-1.2c-1.7-1.2-3-3-3.6-5c-0.6,2-1.9,3.8-3.6,5
	C50.6,30.5,49.7,30.9,48.8,31.2z M35.1,47.5c0.8,0.2,1.5,0.4,2.2,0.6c-0.2-1.1-0.3-2.3-0.4-3.4L35.1,47.5z M73.3,44.5
	c-0.1,1.1-0.2,2.3-0.4,3.6c0.7-0.2,1.4-0.4,2.2-0.6L73.3,44.5z M46.5,17c-2.3,0.1-4.4,0.8-6.3,2c-2,1.3-2.9,2.7-2.9,3.6
	c0,1.5,0.3,2.3,3.7,3.7c1.1,0.4,4.8,1.7,7.9-0.2c1-0.6,2.3-3.1,2.2-5.6c0-1.2-0.7-2.4-1.8-2.9C48.4,17.2,47.4,17,46.5,17L46.5,17z
	 M63.7,17c-1,0-1.9,0.2-2.8,0.5c-1.1,0.5-1.8,1.6-1.8,2.9c-0.2,2.4,1.2,5,2.2,5.6c3.1,1.9,6.8,0.6,7.9,0.2c3.4-1.4,3.7-2.2,3.7-3.7
	c0-0.8-0.9-2.3-2.9-3.6C68.1,17.7,65.9,17,63.7,17L63.7,17z M53.1,14.4c0.9,0.7,1.5,1.6,2,2.7c0.4-0.8,0.8-1.5,1.4-2.2
	c-0.3-1.3-0.9-2.5-1.7-3.6C54,12.2,53.4,13.3,53.1,14.4L53.1,14.4z"/>
</svg>
