<?xml version="1.0" encoding="utf-8"?>
<!-- Generator: Adobe Illustrator 21.0.0, SVG Export Plug-In . SVG Version: 6.00 Build 0)  -->
<svg version="1.1" id="Layer_1" xmlns="http://www.w3.org/2000/svg" xmlns:xlink="http://www.w3.org/1999/xlink" x="0px" y="0px"
	 viewBox="0 0 130.8 145" style="enable-background:new 0 0 130.8 145;" xml:space="preserve">
<title>Icons</title>
<path d="M119.5,93.4l-14.6-26h-2.5c-0.5-0.9-1.4-1.4-2.4-1.5l-13.6-1.4c-0.7-0.6-1.3-1.1-2-1.6c-2.3-1.8-4.8-3.2-7.5-4.3l0,0l14-1.4
	c1.2-0.1,2.2-0.9,2.6-1.9l5.5-1l-9.2-23.6l4-4.8l-2.4-2L86.1,30l8.5,21.8L93.3,52c-0.5-0.8-1.4-1.4-2.4-1.5l-11-1.1
	c-0.8-2.7-2.8-4.9-5.5-5.9v-4.2c0-0.9-0.2-1.7-0.6-2.5L84.9,1.6C84.9,0.9,84.5,0.4,84,0c-0.6-0.1-1.2,0-1.8,0.3L71.6,34.6
	c-0.5-0.3-1-0.5-1.6-0.6v-1.2c-0.1-2.6-2.4-4.7-5-4.5c-2.5,0.1-4.4,2.1-4.5,4.5v1.1c-0.8,0.2-1.5,0.5-2.1,1l-10.7-34
	c-0.6-0.4-1.3-0.5-1.9-0.2c-0.4,0.3-0.6,0.7-0.8,1.2l11.4,35.8c-0.2,0.6-0.3,1.2-0.3,1.8v4.2c-2.7,1-4.7,3.2-5.5,5.9l-10.8,1
	c-1,0.1-1.9,0.6-2.4,1.5l-1.4-0.2l8.5-21.8l-5.2-6.2l-2.4,2l4,4.8l-9.2,23.6l5.5,1c0.4,1.1,1.4,1.8,2.6,1.9l13.6,1.4l0.1,0.1
	c-2.7,1.1-5.2,2.5-7.5,4.3c-0.7,0.5-1.4,1.1-2,1.7l-13.3,1.3c-1,0.1-1.9,0.7-2.4,1.5h-2.6l-14.6,26C6.5,94.9,2.7,98,0,100.7l2.2,2.3
	c3.8-3.7,7.1-5.8,10.6-6.7l0.6-0.2l14.3-25.6h0.5c0.5,1.1,1.4,1.8,2.6,1.9l5.7,0.6c-2,2.9-3.7,6.1-5,9.4L23.6,86
	c-1.1,0.5-1.8,1.5-1.8,2.7l-3.5,1.3l0.3,1.4c1.5,6.4,3.1,12.9,4.7,19.3c1.5,6.1,3.1,12.3,4.5,18.4c-3.7,3.6-5.9,8.4-6.2,13.6
	l3.2,0.2c0.2-4.6,2.3-9,5.8-12.1l0.7-0.6l-0.2-0.9c-1.5-6.4-3.1-13-4.7-19.4c-1.5-5.9-3-11.9-4.4-17.9l1-0.4c0.6,0.5,1.3,0.7,2,0.7
	c0.2,0,0.5,0,0.7-0.1l3.2-0.8c-0.5,2.6-0.7,5.3-0.7,8c-0.1,21.9,15.3,40.8,36.7,45.4l0.3,0.1l0.3-0.1c21.4-4.5,36.8-23.5,36.7-45.4
	c0-2.7-0.2-5.4-0.7-8.1l3.5,0.8c0.2,0.1,0.5,0.1,0.7,0.1c0.7,0,1.4-0.3,2-0.7l1,0.4c-1.4,6-2.9,12-4.4,17.9
	c-1.6,6.4-3.2,12.9-4.7,19.3l-0.2,0.9l0.7,0.6c3.5,3.1,5.6,7.4,5.8,12.1l3.1-0.2c-0.3-5.1-2.5-10-6.2-13.6c1.4-6.1,3-12.4,4.5-18.4
	c1.6-6.4,3.2-12.9,4.7-19.3l0.3-1.4l-3.5-1.3c-0.1-1.2-0.8-2.2-1.8-2.7L99,82.2c-1.3-3.3-3-6.4-5-9.3l5.9-0.6
	c1.1-0.1,2.1-0.8,2.6-1.9h0.5l14.3,25.6l0.6,0.2c3.5,0.9,6.7,3,10.6,6.7l2.2-2.3C128.1,98.1,124.4,94.9,119.5,93.4z M105.9,89
	l-0.1,0.3l0,0l0,0l-4.7-1.1c-0.1-0.5-0.3-1-0.4-1.6L105.9,89z M58.9,60.7c0-0.1,0-0.2,0-0.3s0-0.2,0-0.3c0-0.1,0.1-0.2,0.1-0.3
	c0-0.1,0.1-0.2,0.1-0.3c0-0.1,0.1-0.2,0.1-0.2c0.1-0.2,0.2-0.4,0.3-0.5l0.1-0.2c0.2-0.2,0.4-0.3,0.6-0.5l0.2-0.1
	c0.2-0.1,0.3-0.2,0.5-0.2l0.2-0.1c0.3-0.1,0.5-0.1,0.8-0.1h6.4c0.3,0,0.5,0,0.8,0.1l0.2,0.1c0.2,0.1,0.4,0.1,0.5,0.2l0.2,0.1
	c0.2,0.1,0.4,0.3,0.6,0.5l0.1,0.2c0.1,0.2,0.2,0.3,0.3,0.5c0,0.1,0.1,0.1,0.1,0.2c0.1,0.1,0.1,0.3,0.1,0.4c0,0.1,0,0.1,0.1,0.2
	c0,0.2,0.1,0.4,0.1,0.7c0,1.5-4.5,4.4-6.4,5.3C63.4,65.2,58.9,62.3,58.9,60.7L58.9,60.7z M90.6,53.6v0.3L79.8,55
	c0.3-0.8,0.5-1.6,0.6-2.4L90.6,53.6z M63.7,32.8c0-0.9,0.7-1.6,1.6-1.6c0.9,0,1.6,0.7,1.6,1.6v1h-3.2V32.8z M61.7,36.9h7.1
	c1.3,0,2.4,1.1,2.4,2.4V43h-0.3h-0.4H70h-0.4l-0.4,0.1h-0.3l-0.3,0.1l-0.3,0.1L68,43.2l-0.3,0.1l-0.2,0.1l-0.3,0.1h-0.1l-0.8,0.3
	c-0.7,0.4-1.5,0.4-2.2,0l-0.6-0.2l-0.2-0.1L63,43.3l-0.2-0.1l-0.3-0.1l-0.3-0.1l-0.3-0.1L61.6,43h-0.3L60.9,43h-0.4h-0.4h-0.4h-0.3
	v-3.7C59.3,38,60.4,36.9,61.7,36.9z M59,46.2c1.4,0,2.8,0.2,4.1,0.7c1.4,0.6,3,0.6,4.4,0c1.3-0.5,2.7-0.7,4.1-0.7
	c3,0,5.5,2.5,5.5,5.6c0,2.3-1.4,4.3-3.6,5.1c-0.1-0.1-0.2-0.2-0.2-0.3c-0.2-0.2-0.3-0.3-0.5-0.5c-0.2-0.1-0.3-0.3-0.5-0.4
	s-0.4-0.2-0.6-0.4c-0.2-0.1-0.4-0.2-0.6-0.3c-0.2-0.1-0.5-0.2-0.7-0.3c-0.2-0.1-0.3-0.1-0.5-0.2c-0.4-0.1-0.9-0.2-1.4-0.2H62
	c-0.5,0-0.9,0.1-1.4,0.2c-0.2,0-0.3,0.1-0.5,0.2c-0.3,0.1-0.5,0.2-0.7,0.3c-0.2,0.1-0.4,0.2-0.6,0.3s-0.4,0.2-0.6,0.4
	c-0.2,0.1-0.3,0.3-0.5,0.4c-0.2,0.2-0.3,0.3-0.5,0.5s-0.2,0.2-0.2,0.3c-1.4-0.5-2.5-1.6-3.1-2.9l-0.1-0.2c-0.1-0.3-0.2-0.5-0.3-0.8
	c0-0.1,0-0.2-0.1-0.2c-0.6-3,1.3-5.9,4.3-6.5C58.2,46.2,58.6,46.2,59,46.2z M40.2,53.9v-0.3l10.1-1c0,0.1,0,0.2,0.1,0.3
	s0.1,0.4,0.1,0.6s0.1,0.5,0.2,0.8s0.1,0.4,0.2,0.6s0,0.1,0,0.1L40.2,53.9z M31.2,69.3V69l9.3-0.9c-0.6,0.7-1.2,1.3-1.7,2L31.2,69.3z
	 M23.4,89.5L23.4,89.5z M29.7,88.1L25,89.2l0,0l-0.1-0.3l5.2-2.4c-0.1,0.4-0.2,0.8-0.3,1.3L29.7,88.1z M65.3,141.7
	c-19.8-4.3-33.9-21.9-33.9-42.2c0-3.2,0.3-6.4,1-9.5l0.1-0.2c0.4-1.9,1-3.8,1.7-5.6l0.2-0.6c1.5-3.8,3.5-7.3,6-10.5l0.3-0.4
	c0.8-1,1.6-1.9,2.4-2.8l0.1-0.1c0.8-0.8,1.6-1.6,2.4-2.3l0.5-0.5l0,0c0.6-0.5,1.3-1.1,1.9-1.6c2.3-1.8,4.9-3.2,7.6-4.3
	c0,0.1,0,0.2,0.1,0.3s0,0.2,0.1,0.4c0,0.1,0.1,0.3,0.1,0.4c0,0.1,0.1,0.2,0.1,0.4s0.1,0.3,0.2,0.4s0.1,0.2,0.2,0.4s0.2,0.3,0.3,0.4
	s0.2,0.2,0.3,0.3l0.4,0.4l0.3,0.3l0.4,0.4l0.3,0.3l0.4,0.4l0.4,0.3l0.5,0.4l0.4,0.3l0.5,0.3l0.4,0.2l0.5,0.3l0.3,0.2l0.5,0.3
	l0.3,0.2l0.4,0.2l0.3,0.1l0.4,0.2l0.3,0.1l0.4,0.1l0.2,0.1l0.3,0.1h0.1c0.1,0,0.2,0,0.3,0c0.1,0,0.2,0,0.3,0h0.1l0.3-0.1l0.2-0.1
	l0.4-0.1l0.3-0.1l0.4-0.2l0.3-0.2l0.4-0.2l0.4-0.2l0.4-0.2l0.4-0.2l0.4-0.3l0.4-0.3l0.4-0.3l0.4-0.3l0.4-0.3l0.4-0.3l0.4-0.3
	l0.4-0.3l0.4-0.4l0.3-0.4c0.1-0.1,0.2-0.2,0.3-0.4l0.3-0.4l0.3-0.4c0.1-0.1,0.1-0.3,0.2-0.4s0.1-0.3,0.2-0.4s0.1-0.3,0.2-0.4
	s0.1-0.3,0.1-0.4c0-0.1,0.1-0.3,0.1-0.4c0-0.1,0-0.2,0.1-0.2c2.7,1,5.3,2.4,7.6,4.3c18.9,14.7,22.2,41.9,7.5,60.8
	C83.7,134.1,75,139.6,65.3,141.7L65.3,141.7z M99.7,69.3L92.1,70c-0.6-0.7-1.1-1.3-1.7-2l9.3,0.9L99.7,69.3L99.7,69.3z"/>
<path d="M82.3,71.1l-1,0.5C77.1,73.8,71,75,64.5,75c-5.4,0.1-10.8-0.9-15.8-2.9l-1-0.4l-0.8,0.8c-14.5,15.4-13.7,39.6,1.7,54.1
	c0,0,0.1,0.1,0.1,0.1v0.1h0.1c4.6,4.2,10.2,7.1,16.2,8.4l0.3,0.1l0.3-0.1c16.5-3.5,28.5-18.8,28.5-36.4c0.1-10-3.9-19.6-10.9-26.8
	L82.3,71.1z M48.4,75.5c5.1,1.9,10.5,2.8,16,2.7c5.9,0.1,11.8-1,17.2-3.2c2,2.1,3.6,4.5,5,7c-4.9,2.8-13.1,4.5-21.9,4.5
	c-8.3,0-16.2-1.6-21.2-4.2C44.9,79.8,46.5,77.5,48.4,75.5z M88,112.7c-7.7,2.1-15.6,3.1-23.5,3c-7.3,0.1-14.6-0.8-21.7-2.5
	c-1-2.1-1.7-4.3-2.2-6.5c7.7,2.3,15.8,3.4,23.8,3.3c9.8,0,18.9-1.4,25.6-3.9C89.5,108.4,88.9,110.6,88,112.7L88,112.7z M90.9,98.7
	c0,1.3-0.1,2.5-0.2,3.8c-6.3,2.7-16,4.4-26.2,4.4c-9.3,0-18.2-1.4-24.5-3.7c-0.2-1.5-0.3-3-0.3-4.4c0-0.9,0.1-1.7,0.1-2.6
	c6,2.5,15,3.9,24.7,3.9c10.6,0,20.4-1.7,26.3-4.6C90.8,96.5,90.9,97.6,90.9,98.7L90.9,98.7z M64.4,96.9c-9.7,0-18.8-1.5-24.3-4
	c0.4-2.6,1.2-5.2,2.2-7.7c5.4,2.8,13.7,4.4,22.5,4.4c9.2,0,17.8-1.8,23.2-4.8c1,2.3,1.8,4.8,2.2,7.3C85,95.1,75.2,96.9,64.4,96.9z
	 M65.2,131.9c-3.7-0.8-7.2-2.3-10.4-4.4c3.1,0.3,6.3,0.5,9.6,0.5c3.9,0,7.7-0.2,11.5-0.7C72.7,129.5,69.1,131,65.2,131.9L65.2,131.9
	z M80.6,123.4c-10.1,1.7-20.4,1.8-30.5,0.3c-2.1-2-3.9-4.3-5.4-6.7c6.5,1.3,13.1,2,19.7,2c7.3,0.1,14.5-0.7,21.6-2.4
	C84.5,119.1,82.7,121.4,80.6,123.4L80.6,123.4z"/>
</svg>
