<?xml version="1.0" encoding="utf-8"?>
<!-- Generator: Adobe Illustrator 21.0.0, SVG Export Plug-In . SVG Version: 6.00 Build 0)  -->
<svg version="1.1" id="Layer_1" xmlns="http://www.w3.org/2000/svg" xmlns:xlink="http://www.w3.org/1999/xlink" x="0px" y="0px"
	 viewBox="0 0 107.5 112.4" style="enable-background:new 0 0 107.5 112.4;" xml:space="preserve">
<title>Icons</title>
<path d="M38.2,14.1c-1.8,0.2-3.6-0.6-4.8-2.1c-0.7-1-0.9-2.3-0.6-3.5C33.4,6.1,35.7,3.7,39,2c4.3-2.3,9.7-3,11.8,0.2
	c0.7,1,0.9,2.3,0.6,3.5c-0.6,2.3-2.9,4.7-6.1,6.5C43.1,13.3,40.7,14,38.2,14.1z M46,4.7c-1.7,0.1-3.4,0.6-4.8,1.4
	c-2.8,1.5-3.7,3.1-3.8,3.5c2-0.2,3.9-0.8,5.6-1.7c1.5-0.7,2.8-1.8,3.7-3.2C46.4,4.7,46.2,4.7,46,4.7L46,4.7z"/>
<path d="M44.4,23.4c-1.7,0-3.3-0.6-4.5-1.8c-2.4-2.4-2.6-6.3-2.5-9.5c0.1-1.3,1.1-2.4,2.4-2.5c1.2-0.1,2.2,0.8,2.3,2
	c0,0,0,0.1,0,0.1c0,0,0,0.4,0,0.5c-0.1,3.2,0.3,5.3,1.2,6.1c0.3,0.3,0.7,0.5,1.2,0.4c1.3,0,2.3,1.1,2.3,2.4S45.7,23.4,44.4,23.4z"/>
<path d="M69.4,14.1c-2.5-0.1-4.9-0.8-7-2c-3.2-1.7-5.5-4.2-6.1-6.5c-0.3-1.2-0.1-2.5,0.6-3.5l0,0C58.9-1,64.4-0.3,68.6,2
	c3.2,1.7,5.5,4.2,6.1,6.5c0.3,1.2,0.1,2.5-0.6,3.5C73,13.4,71.2,14.2,69.4,14.1z M60.9,4.8c0.9,1.4,2.2,2.5,3.7,3.2
	c3,1.6,5.4,1.5,5.8,1.2l0,0c-1.2-1.2-2.5-2.3-4-3.1C64.7,5.1,62.8,4.7,60.9,4.8L60.9,4.8z"/>
<path d="M63.1,23.4c-1.3,0-2.3-1-2.3-2.3c0-1.3,1-2.3,2.3-2.3c0.4,0,0.9-0.1,1.2-0.4c0.9-0.9,1.3-2.9,1.2-6.1l2.3-0.5l2.4,0.4
	c0.1,3.2-0.2,7.1-2.5,9.5C66.5,22.8,64.8,23.5,63.1,23.4z"/>
<path d="M58.5,9.4c-0.7,0-1.4-0.3-1.8-0.9l0,0c-0.7-0.8-1.7-1.4-2.9-1.5c-1.1,0.1-2.1,0.6-2.9,1.5c-0.8,1-2.3,1.2-3.3,0.4
	c-1-0.8-1.2-2.3-0.4-3.3l0,0C50,2,55.2,1.3,58.7,4.1c0.6,0.4,1.1,0.9,1.5,1.5c0.8,1,0.6,2.5-0.4,3.3c0,0,0,0,0,0
	C59.5,9.2,59,9.4,58.5,9.4z"/>
<path d="M25.7,112.4c-1.3,0-2.3-1-2.3-2.3c0-0.4,0.1-0.7,0.2-1l4.2-8.5l-2-6.1c-0.4-1.2,0.3-2.6,1.5-3c1.2-0.4,2.6,0.3,3,1.5l2.3,7
	c0.2,0.6,0.1,1.2-0.1,1.8l-4.7,9.4C27.4,111.9,26.6,112.4,25.7,112.4z"/>
<path d="M81.9,112.4c-0.9,0-1.7-0.5-2.1-1.3l-4.7-9.4c-0.3-0.6-0.3-1.2-0.1-1.8l2.3-7c0.4-1.2,1.7-1.9,3-1.5c1.2,0.4,1.9,1.7,1.5,3
	l0,0l-2,6.1L84,109c0.6,1.1,0.1,2.5-1,3.1C82.6,112.3,82.3,112.4,81.9,112.4z"/>
<path d="M2.3,51.5C1,51.5,0,50.4,0,49.1c0-0.9,0.5-1.7,1.3-2l8.8-4.4l9-13.5c0.7-1.1,2.2-1.4,3.2-0.7l7,4.7c1,0.8,1.2,2.2,0.5,3.3
	c-0.7,1-2,1.2-3.1,0.6l-5.1-3.4l-8.1,12.1c-0.2,0.3-0.5,0.6-0.9,0.8l-9.4,4.7C3,51.4,2.7,51.5,2.3,51.5z"/>
<path d="M39.8,28.1c-0.3,0-0.7-0.1-1-0.2l-18.7-9.4c-0.8-0.4-1.3-1.2-1.3-2.1V8l-4-4c-0.9-0.9-0.9-2.4,0-3.3s2.4-0.9,3.3,0l4.7,4.7
	c0.4,0.4,0.7,1,0.7,1.7V15l17.3,8.7c1.2,0.6,1.6,2,1.1,3.1C41.5,27.6,40.7,28.1,39.8,28.1z"/>
<path d="M53.8,107.7c-8.5,0-15.1-11.8-18.5-22.8c-0.3-0.8,0-1.7,0.6-2.3c1.6-1.6,3.1-3.2,4.6-4.6c4.8-4.8,7.3-15.3,6.7-28
	c0-1.1,0.7-2.1,1.7-2.4c3.2-1,6.7-1,9.9,0c1.1,0.3,1.8,1.3,1.7,2.4c-0.6,12.8,1.9,23.2,6.7,28c1.5,1.5,3,3,4.5,4.6
	c0.6,0.6,0.9,1.5,0.6,2.4C68.9,95.9,62.2,107.7,53.8,107.7z M40.2,84.9c3.6,10.8,9,18.2,13.6,18.2s10-7.4,13.6-18.2
	c-1.2-1.2-2.4-2.4-3.5-3.6c-7.5-7.5-8.3-22-8.1-29.6c-1.3-0.2-2.6-0.2-3.9,0c0.2,7.6-0.6,22.1-8.1,29.6
	C42.6,82.4,41.4,83.6,40.2,84.9L40.2,84.9z"/>
<path d="M105.3,51.5c-0.3,0-0.7-0.1-1-0.2l-9.4-4.7c-0.4-0.2-0.7-0.5-0.9-0.8l-8.1-12.1l-5.2,3.4c-1,0.8-2.5,0.6-3.3-0.5
	c-0.8-1-0.6-2.5,0.5-3.3c0.1,0,0.1-0.1,0.2-0.1l7-4.7c1.1-0.7,2.5-0.4,3.2,0.6c0,0,0,0,0,0l9,13.5l8.8,4.4c1.2,0.6,1.6,2,1,3.1
	C106.9,51,106.1,51.5,105.3,51.5z"/>
<path d="M67.8,28.1c-1.3,0-2.3-1.1-2.3-2.4c0-0.9,0.5-1.7,1.3-2L84.2,15V7.1c0-0.6,0.2-1.2,0.7-1.7l4.7-4.7c0.9-0.9,2.4-0.9,3.3,0
	s0.9,2.4,0,3.3l-4,4v8.4c0,0.9-0.5,1.7-1.3,2.1l-18.7,9.4C68.5,28.1,68.2,28.1,67.8,28.1z"/>
<path d="M65.3,26.1c-0.8,0-1.6-0.4-2-1.1c-3.1-5.2-8.9-3.9-9-3.9c-0.3,0.1-0.7,0.1-1.1,0c-0.2,0-5.9-1.2-9,3.9
	c-0.7,1.1-2.1,1.5-3.2,0.8c-1.1-0.7-1.5-2.1-0.8-3.2l0,0c2.8-4.6,8.2-7.1,13.6-6.1c5.3-0.9,10.7,1.5,13.5,6.1
	c0.7,1.1,0.3,2.5-0.8,3.2C66.1,25.9,65.7,26.1,65.3,26.1z"/>
<path d="M95.5,105.2L95.5,105.2c-8.3,0-18.2-10.1-27.7-19.8c-1.4-1.4-2.7-2.8-4-4.1c-13.2-13.2-8.2-51.3,0-59.5
	c0.8-0.8,2.1-0.9,3.1-0.2c27.2,20.9,38.1,47.8,39.2,64.5c0.5,7.5-0.9,13.3-3.9,16.3C100.5,104.2,98.1,105.2,95.5,105.2z M65.9,26.7
	C60,36.2,57,67.8,67.1,78c1.3,1.3,2.7,2.7,4,4.1c8,8.2,18,18.4,24.3,18.4c1.3,0.1,2.6-0.4,3.4-1.4c1.5-1.5,3-5.6,2.5-12.7
	C100.4,71,90.5,46.4,65.9,26.7z M12,105.2c-2.5,0-4.9-1-6.7-2.8c-3-3-4.4-8.8-3.9-16.3c1.1-16.7,12-43.6,39.2-64.5
	c0.9-0.7,2.2-0.6,3.1,0.2c8.2,8.2,13.2,46.3,0,59.5c-1.3,1.3-2.6,2.7-4,4.1C30.2,95.1,20.4,105.1,12,105.2L12,105.2L12,105.2z
	 M41.7,26.7C17.1,46.4,7.1,71,6.1,86.4c-0.5,7,1,11.1,2.5,12.7c0.9,0.9,2.1,1.5,3.4,1.4l0,0c6.3,0,16.3-10.2,24.3-18.4
	c1.4-1.4,2.7-2.8,4-4.1C50.6,67.8,47.6,36.2,41.7,26.7L41.7,26.7z"/>
</svg>
