<?xml version="1.0" encoding="utf-8"?>
<!-- Generator: Adobe Illustrator 21.0.0, SVG Export Plug-In . SVG Version: 6.00 Build 0)  -->
<svg version="1.1" id="Layer_1" xmlns="http://www.w3.org/2000/svg" xmlns:xlink="http://www.w3.org/1999/xlink" x="0px" y="0px"
	 viewBox="0 0 102.3 168.3" style="enable-background:new 0 0 102.3 168.3;" xml:space="preserve">
<style type="text/css">
	.st0{fill:none;}
</style>
<title>Icons</title>
<path d="M101.2,43.9c0-11-8.9-20-19.9-20c-3.8,0-7.6,1.1-10.8,3.2c-5.6-5.4-11.5-10.6-17.7-15.3l-1-0.8l-1,0.8
	c-6.2,4.8-12.1,9.9-17.7,15.3c-3.2-2-6.9-3.1-10.7-3.1l0,0C11.4,24,2.4,33,2.5,44c0,7.5,4.3,14.3,10.9,17.7c0,0.8-0.1,1.5-0.1,2.3
	c0,10.3,4,35.2,11.3,42.4c6.8,6.8,16,10.8,25.6,11.2c0.7,2.2,3.4,4,5.4,5.3c0.5,0.3,0.9,0.6,1.2,0.8c5.1,3.8,8.3,7.5,7.7,13.5
	c-0.4,4.5-2.9,6.9-5.8,9.8c-2.3,2.1-4.2,4.5-5.7,7.2c-3,6,3.2,9.9,6.9,12.2l0.2,0.1l1.9-2.9l-0.2-0.1c-4.9-3.1-7-5-5.6-7.7
	c1.3-2.4,3-4.5,5-6.3c3-3,6.2-6.2,6.8-11.9c0.8-8.1-3.9-12.8-9.1-16.7c-0.4-0.3-0.8-0.6-1.4-0.9c-1.2-0.7-2.3-1.5-3.3-2.4
	c9.3-0.6,18.1-4.5,24.7-11.1c7.3-7.3,11.3-32.1,11.3-42.4c0-0.7-0.1-1.5-0.1-2.2C96.9,58.4,101.2,51.5,101.2,43.9z M81.2,60.4v3.5
	c1.8,0,3.6-0.3,5.4-0.8c0,0.3,0,0.6,0,0.9c0,9.3-3.6,33.3-10.2,40c-6.5,6.5-15.4,10.2-24.7,10.2l0,0c-9.3,0-18.2-3.7-24.7-10.2
	c-6.6-6.6-10.2-30.6-10.2-40c0-0.3,0-0.6,0-0.9c1.8,0.5,3.7,0.8,5.5,0.8v-3.5c-9.1,0-16.5-7.4-16.5-16.5s7.4-16.5,16.5-16.5
	c9.1,0,16.5,7.4,16.5,16.5c0,0,0,0,0,0.1h3.5c0-5.3-2.1-10.4-5.9-14.1c-0.2-0.2-0.4-0.4-0.7-0.6c5.1-4.9,10.4-9.5,15.9-13.8
	c5.6,4.4,10.9,9,16,13.9c-4.1,3.8-6.4,9.1-6.4,14.7h3.6c0-9.1,7.4-16.5,16.5-16.5s16.5,7.4,16.5,16.5C97.8,53,90.4,60.4,81.2,60.4
	C81.2,60.4,81.2,60.4,81.2,60.4L81.2,60.4z"/>
<path d="M60.4,168.3l-1.3-0.8c-3.8-2.4-10.9-6.9-7.4-14c1.5-2.8,3.5-5.4,5.9-7.5c2.8-2.8,5-5,5.4-9c0.5-5.4-2.3-8.7-7.2-12.3
	c-0.3-0.2-0.6-0.4-1.1-0.7l-0.1-0.1c-1.9-1.2-4.4-2.9-5.6-5.1c-9.7-0.6-18.8-4.7-25.7-11.5C16,99.7,11.9,74.7,11.9,63.9
	c0-0.5,0-1,0.1-1.5C1.4,57.3-3,44.5,2.2,33.9S20.1,19,30.7,24.2c0.7,0.4,1.4,0.7,2.1,1.2c5.4-5.2,11.1-10.1,17.1-14.7l1.8-1.4
	l1.9,1.4c6,4.6,11.7,9.5,17.1,14.7c10.3-5.7,23.2-2.1,29,8.2s2.1,23.2-8.2,29c0,0.5,0,0.9,0,1.4c0,10.8-4.1,35.8-11.6,43.4
	c-6,6-13.8,9.9-22.2,11.2l0.5,0.3c0.6,0.4,1.1,0.7,1.5,1c5.2,3.9,10.5,9.1,9.6,17.9c-0.6,6.2-4.1,9.6-7.1,12.7
	c-1.9,1.7-3.5,3.7-4.8,5.9c-0.7,1.5-0.2,2.7,5.1,6l1.4,0.9L60.4,168.3z M51.2,116.6l0.2,0.6c0.6,1.8,3.2,3.5,4.9,4.6h0.1
	c0.5,0.3,0.9,0.6,1.2,0.8c7.9,5.9,8.6,10.6,8.2,14.7c-0.5,4.9-3.2,7.7-6.1,10.6c-2.2,2-4,4.3-5.4,6.8c-2.1,4.2,1.2,7.1,5.4,9.9
	l0.4-0.7c-3.4-2.2-7.1-4.9-5.1-8.9c1.4-2.5,3.2-4.7,5.3-6.6c3-3,5.9-5.9,6.4-11.1c0.7-7-2.9-11.3-8.6-15.4c-0.3-0.2-0.8-0.5-1.3-0.9
	c-1.2-0.8-2.4-1.6-3.5-2.6L51.2,116.6z M22.3,25.2C12,25.2,3.6,33.5,3.6,43.8c0,7.1,4,13.5,10.3,16.7l0.8,0.4l-0.1,1.3
	c0,0.6-0.1,1.2-0.1,1.8c0,10.8,4.1,34.7,10.9,41.5c6.6,6.6,15.4,10.4,24.7,10.8h0.9v0.1l2.9-0.2c9-0.6,17.5-4.4,23.9-10.8
	c6.7-6.7,10.9-30.7,10.9-41.5c0-0.6,0-1.1-0.1-1.7L88.6,61l0.8-0.4c9.3-4.4,13.3-15.5,9-24.8c-4.4-9.3-15.5-13.3-24.8-9
	c-0.8,0.4-1.6,0.8-2.4,1.4l-0.9,0.6L69.5,28c-5.6-5.4-11.5-10.5-17.6-15.2l-0.2-0.2l-0.2,0.2c-6.1,4.7-12,9.8-17.5,15.2l-0.8,0.7
	l-0.9-0.5C29.3,26.3,25.8,25.2,22.3,25.2z M52.5,115.5h-2.1l0,0c-9.2-0.3-17.9-4.1-24.3-10.6C18.6,97.6,15.4,72.4,15.4,64
	c0-0.2,0-0.4,0-0.6s0-0.2,0-0.4l0.1-1.7l1.7,0.5c1.2,0.4,2.5,0.6,3.8,0.7v-0.8c-9.8-0.7-17.2-9.3-16.5-19.1s9.3-17.2,19.1-16.5
	c8.8,0.7,15.8,7.7,16.5,16.5h0.8c-0.3-4.5-2.2-8.7-5.4-11.9c-0.1-0.1-0.2-0.2-0.4-0.3l-0.2-0.2l-1-1l1-1c5.1-4.9,10.4-9.6,16-13.9
	l0.8-0.6l0.8,0.6c5.6,4.4,11,9.1,16.1,14l1,1l-1,1c-3.5,3.2-5.6,7.6-6,12.3h0.8c0.7-9.8,9.3-17.2,19.1-16.5
	c9.8,0.7,17.2,9.3,16.5,19.1C98.4,54,91.4,61,82.5,61.7v0.8c1.2-0.1,2.5-0.3,3.7-0.7l1.6-0.5v1.7c0,0.1,0,0.2,0,0.3s0,0.4,0,0.6
	c0,8.3-3.3,33.5-10.6,40.9C70.7,111.5,61.8,115.3,52.5,115.5L52.5,115.5L52.5,115.5z M18,64.8c0.2,10.4,4,32.4,9.8,38.2
	c6.2,6.3,14.7,9.8,23.5,9.9h0.7c8.8-0.1,17.2-3.6,23.4-9.9c5.9-5.9,9.7-27.8,9.8-38.2c-1.3,0.3-2.7,0.4-4.1,0.4h-1.3v-6.1h1.3
	c8.4,0,15.2-6.8,15.2-15.2s-6.8-15.2-15.2-15.2s-15.2,6.8-15.2,15.2c0,0,0,0,0,0v1.3h-6.1v-1.3c0-5.4,2.1-10.7,5.8-14.6
	C60,23.8,54.5,19.2,51.6,17c-2.8,2.2-8.4,6.7-14,12.1c3.8,4,5.9,9.3,5.9,14.7v1.3h-6.1v-1.3c0-8.4-6.8-15.2-15.2-15.2
	c-8.4,0-15.2,6.8-15.2,15.2S13.9,59,22.3,59c0,0,0,0,0,0h1.3v6.2h-1.3C20.9,65.2,19.4,65,18,64.8L18,64.8z"/>
<line class="st0" x1="57.9" y1="15.2" x2="86.5" y2="2.1"/>
<rect x="56.5" y="6.4" transform="matrix(0.9086 -0.4177 0.4177 0.9086 2.9894 30.94)" width="31.4" height="4.6"/>
<line class="st0" x1="57.7" y1="17.7" x2="89" y2="14.8"/>
<rect x="57.6" y="14" transform="matrix(0.9959 -9.045877e-02 9.045877e-02 0.9959 -1.1706 6.6995)" width="31.4" height="4.6"/>
<line class="st0" x1="46.9" y1="15.2" x2="18.3" y2="2.1"/>
<rect x="30.3" y="-7.1" transform="matrix(0.4179 -0.9085 0.9085 0.4179 11.1068 34.6462)" width="4.6" height="31.4"/>
<line class="st0" x1="47.1" y1="17.7" x2="15.8" y2="14.8"/>
<rect x="29.2" y="0.6" transform="matrix(9.063253e-02 -0.9959 0.9959 9.063253e-02 12.391 46.1003)" width="4.6" height="31.4"/>
<path d="M73.1,62.6c0.1,0.1,0.3,0.2,0.4,0.2c0.4,0.2,0.7,0.5,1.1,0.8c0.5,0.4,1,0.9,1.5,1.4c0.3,0.3,0.5,0.6,0.8,1
	c0.1,0.2,0.2,0.4,0.2,0.6c0,0.2,0.1,0.4,0.2,0.7c0.3,1,0.6,1.9,0.8,2.9c0.2,1.1,0.4,2.2,0.5,3.3c0.1,1.2,0.1,2.4,0.1,3.6
	c0,1.2-0.2,2.5-0.4,3.7c-0.1,0.6-0.2,1.2-0.3,1.8s-0.3,1.2-0.4,1.8c-0.3,1.2-0.7,2.3-1.1,3.4c-0.2,0.5-0.4,1.1-0.6,1.6L75,90.7
	c-0.2,0.5-0.5,0.9-0.7,1.4L74,92.7l-0.4,0.6c-0.1,0.2-0.2,0.4-0.3,0.6c-0.1,0.2-0.2,0.4-0.4,0.5c-0.3,0.3-0.7,0.5-1,0.8
	s-0.6,0.4-0.9,0.6s-0.6,0.3-0.8,0.5c-0.5,0.3-0.9,0.5-1.1,0.6l-0.4,0.2l0.1-0.5c0.1-0.3,0.1-0.7,0.3-1.2s0.2-1.2,0.4-1.9
	c0.1-0.4,0.2-0.7,0.2-1.1c0-0.2,0.1-0.4,0.3-0.5c0.1-0.2,0.2-0.3,0.3-0.5l0.3-0.6l0.3-0.6c0.2-0.4,0.4-0.8,0.6-1.2l0.6-1.3
	c0.2-0.4,0.4-0.9,0.6-1.4c0.4-1,0.7-2,1-3c0.1-0.5,0.3-1,0.4-1.6s0.2-1.1,0.3-1.6c0.2-1.1,0.3-2.1,0.3-3.2c0-1,0-2.1-0.1-3.1
	c-0.1-1-0.2-1.9-0.4-2.9c-0.2-0.9-0.4-1.7-0.6-2.5c0-0.2-0.1-0.4-0.2-0.6c-0.1-0.2-0.2-0.3-0.1-0.5c0-0.4,0-0.8,0-1.1
	c0-0.7,0-1.4-0.1-1.9C73.2,63.2,73.1,62.6,73.1,62.6z"/>
<path d="M27.1,78.2c0,0,0.2,0.6,0.6,1.6c0.2,0.5,0.4,1.1,0.7,1.8c0.1,0.3,0.3,0.7,0.5,1c0.1,0.2,0.1,0.4,0.1,0.6c0,0.2,0,0.4,0,0.6
	c0.1,0.9,0.2,1.7,0.4,2.6c0.2,0.9,0.5,1.9,0.8,2.8c0.3,1,0.8,1.9,1.2,2.9c0.5,1,1,1.9,1.6,2.8c0.3,0.4,0.6,0.9,0.9,1.3
	s0.6,0.9,1,1.3c0.7,0.8,1.4,1.6,2.1,2.3l1.1,1l1.1,0.9c0.4,0.3,0.7,0.6,1.1,0.9l0.5,0.4l0.5,0.4c0.2,0.1,0.3,0.2,0.5,0.3
	c0.2,0.1,0.3,0.2,0.4,0.4c0.2,0.3,0.5,0.6,0.7,0.9c0.4,0.6,0.8,1.1,1.1,1.6s0.6,0.8,0.8,1l0.3,0.4h-0.5c-0.3,0-0.7-0.1-1.3-0.1
	c-0.3,0-0.6-0.1-0.9-0.1s-0.7-0.1-1.1-0.2s-0.8-0.2-1.2-0.3c-0.2,0-0.4-0.2-0.6-0.3c-0.2-0.1-0.4-0.3-0.5-0.4l-0.6-0.4l-0.6-0.4
	c-0.4-0.3-0.8-0.6-1.2-0.9l-1.2-1.1c-0.4-0.4-0.8-0.8-1.2-1.2c-0.8-0.8-1.6-1.7-2.4-2.6c-0.4-0.5-0.8-1-1.1-1.4s-0.7-1-1-1.5
	c-0.7-1-1.3-2.1-1.8-3.2c-0.5-1.1-1-2.2-1.4-3.3c-0.4-1-0.7-2.1-0.9-3.1c-0.2-1-0.4-2-0.5-3c0-0.2,0-0.5-0.1-0.7
	c-0.1-0.2-0.1-0.4,0-0.6c0.1-0.4,0.2-0.8,0.4-1.2c0.2-0.6,0.5-1.3,0.8-1.9c0.2-0.4,0.4-0.8,0.6-1.1C27,78.3,27.1,78.2,27.1,78.2z"/>
</svg>
