
<svg width="43px" height="43px" viewBox="0 0 43 43" version="1.1" xmlns="http://www.w3.org/2000/svg" xmlns:xlink="http://www.w3.org/1999/xlink">
    <g id="Page-1" stroke="none" stroke-width="1" fill="none" fill-rule="evenodd">
        <g id="Dashboard---Alert" transform="translate(-128.000000, -718.000000)" fill-rule="nonzero" fill="#FFFFFF">
            <g id="engineer" transform="translate(128.000000, 697.000000)">
                <path d="M40.8500256,56.6900017 C36.5727037,54.4217702 33.2918154,53.149887 30.3710778,52.6622578 L30.6733379,52.2466929 C30.816698,52.1033328 30.8883353,51.8883353 30.816698,51.6733379 L30.1450658,48.9868945 C31.9213989,46.4757449 32.9666724,43.3363383 32.9666724,40.3500256 L32.9666724,37.4833362 L33.683302,37.4833362 L35.1166467,37.4833362 C35.5466416,37.4833362 35.8332764,37.1967014 35.8332764,36.7667065 C35.8332764,36.3367116 35.5466416,36.0500768 35.1166467,36.0500768 L34.4000171,36.0500768 L34.4000171,35.3334472 C34.4000171,29.671791 30.6733379,24.8701247 25.0833191,23.2934199 L25.0833191,23.1499744 C25.0833191,22.0032645 24.151692,21 22.9333447,21 L20.0666553,21 C18.9199454,21 17.9166809,21.9316271 17.9166809,23.1499744 L17.9166809,23.2933345 C12.3266621,24.8700393 8.59998292,29.6717057 8.59998292,35.3333618 L8.59998292,36.0499915 L7.88335326,36.0499915 C7.45335838,36.0499915 7.16672359,36.3366263 7.16672359,36.7666211 C7.16672359,37.196616 7.45335838,37.4832508 7.88335326,37.4832508 L9.31669797,37.4832508 L10.0333276,37.4832508 L10.0333276,40.3499402 C10.0333276,43.3362529 11.0786011,46.4756595 12.8549342,48.9868945 L12.183302,51.6733379 C12.183302,51.816698 12.183302,52.1033328 12.3266621,52.2466929 L12.6289222,52.6622578 C9.70826996,53.1499724 6.42729634,54.4217702 2.14997438,56.6900017 C0.788352402,57.3350794 0,58.6967014 0,60.2016835 L0,63.2833703 C0,63.7133652 0.28663479,64 0.716629667,64 L17.9166809,64 L18.2033157,64 L24.7966843,64 L25.0833191,64 L42.2833703,64 C42.7133652,64 43,63.7133652 43,63.2833703 L43,60.2016835 C43.0000854,58.7683387 42.1400102,57.4067168 40.8500256,56.6900017 Z M21.0702613,56.0266518 L21.5040984,55.0505395 L22.5752433,57.4071437 L23.2758208,58.9833362 L19.7801059,58.9833362 L21.0702613,56.0266518 Z M19.2353546,60.4166809 L23.7592662,60.4166809 L24.1687688,62.5666553 L18.8053597,62.5666553 L19.2353546,60.4166809 Z M29.0249957,50.3833533 L29.3116305,51.6733379 L28.5795463,52.6785662 C28.5328411,52.7167329 28.4896367,52.7630112 28.4516408,52.8199624 L25.4707073,56.9474351 L24.524821,58.2462143 L22.5927471,53.8990481 C24.9022192,53.6173656 26.9638209,52.4580188 28.6288984,50.7919167 C28.6473414,50.7736445 28.6658697,50.755543 28.6842274,50.7371 C28.6886673,50.7325747 28.6931073,50.7280493 28.6975473,50.7235239 C28.8079491,50.6127806 28.9171555,50.4995612 29.0249957,50.3833533 Z M28.0913194,26.2416512 C28.1708975,26.2945894 28.2497925,26.3483815 28.3278337,26.4031981 C29.2413593,27.0839664 30.0846138,27.8814549 30.7450606,28.7399932 L27.4483763,29.3849855 L28.0913194,26.2416512 Z M15.5517091,29.3849855 L12.2550248,28.7399932 C12.9154716,27.8813696 13.7588115,27.083881 14.6723371,26.4031128 C14.7502929,26.3483815 14.8291879,26.2945894 14.908766,26.2416512 L15.5517091,29.3849855 Z M10.0333276,35.3333618 C10.0333276,33.4263055 10.513443,31.6271748 11.3823981,30.05491 L16.3400615,31.033413 C16.4116988,31.033413 16.4116988,31.033413 16.4834216,31.033413 C16.698419,31.033413 16.8417791,30.9617757 17.0567765,30.8900529 C17.271774,30.7466929 17.3434113,30.4600581 17.271774,30.2450606 L16.2878917,25.4567142 C16.8060885,25.2073923 17.3499005,24.9932487 17.9167663,24.8171865 L17.9167663,26.7333789 C17.9167663,27.1633737 18.2034011,27.4500085 18.6333959,27.4500085 C19.0633908,27.4500085 19.3500256,27.1633737 19.3500256,26.7333789 L19.3500256,23.8666894 L19.3500256,23.1499744 C19.3500256,22.7916169 19.6366604,22.4333447 20.0666553,22.4333447 L22.9333447,22.4333447 C23.2917022,22.4333447 23.6499744,22.7199795 23.6499744,23.1499744 L23.6499744,23.8666041 L23.6499744,26.7332935 C23.6499744,27.1632884 23.9366092,27.4499232 24.3666041,27.4499232 C24.7965989,27.4499232 25.0832337,27.1632884 25.0832337,26.7332935 L25.0832337,24.8171865 C25.6689694,24.9990548 26.2303706,25.2213953 26.7640219,25.4813902 L25.7999488,30.1734233 C25.7999488,30.3884207 25.8715861,30.6750555 26.0149462,30.8184156 C26.1583063,30.9617757 26.301581,31.033413 26.5165784,31.033413 C26.5882158,31.033413 26.5882158,31.033413 26.6599385,31.033413 L31.5854974,29.9964218 C32.4748593,31.5825189 32.966587,33.4027394 32.966587,35.3333618 L32.966587,36.0499915 L32.2499573,36.0499915 L10.7500427,36.0499915 L10.033413,36.0499915 L10.033413,35.3333618 L10.0333276,35.3333618 Z M11.4666724,37.4833362 L31.5333276,37.4833362 L31.5333276,40.3500256 C31.5333276,43.4750023 30.4613289,46.2519529 28.8518366,48.3627359 L28.8099983,48.3766536 C28.7383609,48.4482909 28.6666382,48.5200137 28.5950009,48.591651 C28.2344233,49.0724495 27.8538659,49.510812 27.4562317,49.9060555 C25.7687835,51.4781496 23.7560216,52.4303543 21.8166046,52.5247038 C21.7190105,52.4827802 21.6095479,52.4616903 21.5,52.4616903 C21.3898544,52.4616903 21.2905525,52.4832925 21.2014968,52.5256431 C20.0143148,52.4711679 18.7992975,52.0948797 17.6475499,51.4511682 C16.4807747,50.7808167 15.3831606,49.8144383 14.4049138,48.591651 C14.3332764,48.5200137 14.2615537,48.4482909 14.1899163,48.3766536 L14.1480781,48.3627359 C12.5385857,46.2518675 11.466587,43.4749169 11.466587,40.3500256 L11.466587,37.4833362 L11.4666724,37.4833362 Z M20.4072529,53.8992188 L18.475179,58.2463851 L17.5292927,56.9476059 L14.5483592,52.8201332 C14.5255616,52.7973356 14.5002879,52.7747088 14.4741604,52.7524235 L13.6883695,51.6734233 L13.9750043,50.3834386 C14.0721715,50.4880343 14.1707049,50.589983 14.2701775,50.6903095 C15.9525879,52.4108867 18.0509049,53.6118156 20.4072529,53.8992188 Z M1.43334472,60.2016835 C1.43334472,59.2700564 1.93497695,58.4099812 2.79505208,57.9799863 C7.36319265,55.553111 10.6516801,54.3351052 13.5810415,53.9712831 L17.8577658,59.8516936 L17.3148076,62.5665699 L1.43334472,62.5665699 L1.43334472,60.2016835 Z M41.5667407,62.5667407 L25.6853632,62.5667407 L25.142405,59.8518644 L29.4654075,53.9077573 C32.3845228,54.3482544 35.73184,55.5653209 40.2050333,57.9084344 C41.0650231,58.4100666 41.5667407,59.2701417 41.5667407,60.2017688 L41.5667407,62.5667407 L41.5667407,62.5667407 Z" id="Shape"></path>
            </g>
        </g>
    </g>
</svg>
