
<svg width="38px" height="38px" viewBox="0 0 38 38" version="1.1" xmlns="http://www.w3.org/2000/svg" xmlns:xlink="http://www.w3.org/1999/xlink">
    <g id="Page-1" stroke="none" stroke-width="1" fill="none" fill-rule="evenodd">
        <g id="Dashboard---Alert" transform="translate(-612.000000, -721.000000)" fill-rule="nonzero" fill="#9B9B9B">
            <g id="change" transform="translate(612.000000, 721.000000)">
                <path d="M30.3023758,2.72338606 L25.5334773,2.72338606 L26.7084233,1.63802195 C27.1144708,1.26293288 27.1144708,0.656405871 26.7084233,0.281316802 C26.3023758,-0.0937722674 25.6457883,-0.0937722674 25.2397408,0.281316802 L22.3023758,3.00270771 C22.1036717,3.18626194 22,3.42568049 22,3.68106028 C22,3.93644007 22.112311,4.17585863 22.3023758,4.35941285 L25.2483801,7.08080376 C25.4470842,7.26435799 25.7149028,7.36012541 25.9827214,7.36012541 C26.25054,7.36012541 26.5097192,7.26435799 26.7170626,7.08080376 C27.1231102,6.70571469 27.1231102,6.09918769 26.7170626,5.72409862 L25.5421166,4.6387345 L30.3110151,4.6387345 C33.412527,4.6387345 35.9265659,6.9690751 35.9265659,9.82613653 L35.9265659,13.0423258 C35.9265659,13.5690466 36.3930886,14 36.9632829,14 C37.5334773,14 38,13.5690466 38,13.0423258 L38,9.82613653 C38,5.90765284 34.5442765,2.72338606 30.3023758,2.72338606 Z" id="Shape"></path>
                <path d="M36.9687924,19 L20.0312076,19 C19.4640434,19 19,19.4640434 19,20.0312076 L19,36.9687924 C19,37.5359566 19.4640434,38 20.0312076,38 L36.9687924,38 C37.5359566,38 38,37.5359566 38,36.9687924 L38,20.0312076 C38,19.45545 37.5359566,19 36.9687924,19 Z M35.9375848,35.9375848 L21.0624152,35.9375848 L21.0624152,21.0624152 L35.9375848,21.0624152 L35.9375848,35.9375848 L35.9375848,35.9375848 Z" id="Shape"></path>
                <path d="M12.7498988,30.9201824 C12.3439061,30.5450399 11.6874072,30.5450399 11.2814145,30.9201824 C10.8754218,31.295325 10.8754218,31.9019384 11.2814145,32.277081 L12.4562019,33.3625998 L7.68794709,33.3625998 C4.58685383,33.3625998 2.07315427,31.031927 2.07315427,28.1744584 L2.07315427,24.9578107 C2.07315427,24.4310148 1.60669456,24 1.03657714,24 C0.466459711,24 0,24.4310148 0,24.9578107 L0,28.1744584 C0,32.0935006 3.44661898,35.2782212 7.68794709,35.2782212 L12.4562019,35.2782212 L11.2814145,36.36374 C10.8754218,36.7388826 10.8754218,37.345496 11.2814145,37.7206385 C11.4800918,37.9042189 11.7478742,38 12.0156566,38 C12.2834391,38 12.5425833,37.9042189 12.7498988,37.7206385 L15.6955055,34.9988597 C16.1014982,34.6237172 16.1014982,34.0171038 15.6955055,33.6419612 L12.7498988,30.9201824 Z" id="Shape"></path>
                <path d="M1,2 C1.26666667,2 1.525,1.89166667 1.70833333,1.70833333 C1.89166667,1.525 2,1.26666667 2,1 C2,0.741666667 1.89166667,0.475 1.70833333,0.291666667 C1.525,0.108333333 1.26666667,0 1,0 C0.733333333,0 0.475,0.108333333 0.291666667,0.291666667 C0.108333333,0.475 0,0.733333333 0,1 C0,1.26666667 0.108333333,1.525 0.291666667,1.70833333 C0.483333333,1.89166667 0.733333333,2 1,2 Z" id="Shape"></path>
                <path d="M10,2 C10.55,2 11,1.55 11,1 C11,0.45 10.55,0 10,0 C9.45,0 9,0.45 9,1 C9,1.55 9.44166667,2 10,2 Z" id="Shape"></path>
                <path d="M5,2 C5.55,2 6,1.55 6,1 C6,0.45 5.55,0 5,0 C4.45,0 4,0.45 4,1 C4,1.55 4.45,2 5,2 Z" id="Shape"></path>
                <path d="M13,2 C13.55,2 14,1.55 14,1 C14,0.45 13.55,0 13,0 C12.45,0 12,0.45 12,1 C12,1.55 12.45,2 13,2 Z" id="Shape"></path>
                <path d="M17,0 C16.7416667,0 16.475,0.108333333 16.2916667,0.291666667 C16.1083333,0.475 16,0.733333333 16,1 C16,1.26666667 16.1083333,1.525 16.2916667,1.70833333 C16.475,1.89166667 16.7333333,2 17,2 C17.2666667,2 17.525,1.89166667 17.7083333,1.70833333 C17.8916667,1.525 18,1.26666667 18,1 C18,0.733333333 17.8916667,0.475 17.7083333,0.291666667 C17.525,0.108333333 17.2666667,0 17,0 Z" id="Shape"></path>
                <path d="M17,12 C16.45,12 16,12.45 16,13 C16,13.55 16.45,14 17,14 C17.55,14 18,13.55 18,13 C18,12.4416667 17.5583333,12 17,12 Z" id="Shape"></path>
                <path d="M17,9 C16.45,9 16,9.45 16,10 C16,10.55 16.45,11 17,11 C17.55,11 18,10.55 18,10 C18,9.44166667 17.5583333,9 17,9 Z" id="Shape"></path>
                <path d="M17,4 C16.45,4 16,4.45 16,5 C16,5.55 16.45,6 17,6 C17.55,6 18,5.55 18,5 C18,4.45 17.5583333,4 17,4 Z" id="Shape"></path>
                <path d="M17,16 C16.7333333,16 16.475,16.1083333 16.2916667,16.2916667 C16.1083333,16.475 16,16.7333333 16,17 C16,17.2583333 16.1083333,17.525 16.2916667,17.7083333 C16.475,17.8916667 16.7333333,18 17,18 C17.2666667,18 17.525,17.8916667 17.7083333,17.7083333 C17.8916667,17.525 18,17.2666667 18,17 C18,16.7333333 17.8916667,16.475 17.7083333,16.2916667 C17.5250833,16.1083333 17.2666667,16 17,16 Z" id="Shape"></path>
                <path d="M13,18 C13.55,18 14,17.55 14,17 C14,16.45 13.55,16 13,16 C12.45,16 12,16.45 12,17 C12,17.5583333 12.45,18 13,18 Z" id="Shape"></path>
                <path d="M10,18 C10.55,18 11,17.55 11,17 C11,16.45 10.55,16 10,16 C9.45,16 9,16.45 9,17 C9,17.5583333 9.44166667,18 10,18 Z" id="Shape"></path>
                <path d="M5,18 C5.55,18 6,17.55 6,17 C6,16.45 5.55,16 5,16 C4.45,16 4,16.45 4,17 C4,17.5583333 4.45,18 5,18 Z" id="Shape"></path>
                <path d="M1,18 C1.26666667,18 1.525,17.8916667 1.70833333,17.7083333 C1.89166667,17.525 2,17.2666667 2,17 C2,16.7333333 1.89166667,16.475 1.70833333,16.2916667 C1.525,16.1083333 1.26666667,16 1,16 C0.733333333,16 0.475,16.1083333 0.291666667,16.2916667 C0.108333333,16.475 0,16.7333333 0,17 C0,17.2583333 0.108333333,17.525 0.291666667,17.7083333 C0.483333333,17.8916667 0.733333333,18 1,18 Z" id="Shape"></path>
                <path d="M1,14 C1.55,14 2,13.55 2,13 C2,12.45 1.55,12 1,12 C0.45,12 0,12.45 0,13 C0,13.55 0.45,14 1,14 Z" id="Shape"></path>
                <path d="M1,11 C1.55,11 2,10.55 2,10 C2,9.45 1.55,9 1,9 C0.45,9 0,9.45 0,10 C1.85037171e-17,10.55 0.45,11 1,11 Z" id="Shape"></path>
                <path d="M1,6 C1.55,6 2,5.55 2,5 C2,4.45 1.55,4 1,4 C0.45,4 0,4.45 0,5 C0,5.55 0.45,6 1,6 Z" id="Shape"></path>
            </g>
        </g>
    </g>
</svg>
