
<svg width="44px" height="44px" viewBox="0 0 44 44" version="1.1" xmlns="http://www.w3.org/2000/svg" xmlns:xlink="http://www.w3.org/1999/xlink">
    <g id="Page-1" stroke="none" stroke-width="1" fill="none" fill-rule="evenodd">
        <g id="Dashboard---Alert" transform="translate(-772.000000, -717.000000)" fill-rule="nonzero" fill="#9B9B9B">
            <g id="success-(1)" transform="translate(772.000000, 717.000000)">
                <path d="M22,0 C9.86953846,0 0,9.86869231 0,22 C0,34.1313077 9.86953846,44 22,44 C34.1304615,44 44,34.1313077 44,22 C44,9.86869231 34.1304615,0 22,0 Z M22,42.3076923 C10.8028462,42.3076923 1.69230769,33.1971538 1.69230769,22 C1.69230769,10.8028462 10.8028462,1.69230769 22,1.69230769 C33.1971538,1.69230769 42.3076923,10.8028462 42.3076923,22 C42.3076923,33.1971538 33.1971538,42.3076923 22,42.3076923 Z" id="Shape"></path>
                <path d="M32.5011363,13.2859968 L19.3281213,27.9821479 L11.3920848,21.6863474 C11.0235249,21.3931043 10.4826848,21.4534529 10.1878369,21.8189442 C9.89213187,22.1861355 9.95212999,22.7207728 10.321547,23.0140158 L18.8927064,29.8138544 C19.0504158,29.9388015 19.2398384,30 19.4284039,30 C19.6649679,30 19.9006748,29.9031023 20.0695266,29.7144068 L33.7833818,14.41477 C34.0979433,14.0645783 34.0662301,13.5265411 33.7122412,13.2154484 C33.3573952,12.9026559 32.816555,12.9341051 32.5011363,13.2859968 Z" id="Shape"></path>
            </g>
        </g>
    </g>
</svg>
