
<svg width="36px" height="36px" viewBox="0 0 36 36" version="1.1" xmlns="http://www.w3.org/2000/svg" xmlns:xlink="http://www.w3.org/1999/xlink">
    <g id="Page-1" stroke="none" stroke-width="1" fill="none" fill-rule="evenodd">
        <g id="Dashboard---Alert" transform="translate(-453.000000, -721.000000)" fill-rule="nonzero" fill="#9B9B9B">
            <g id="engineer" transform="translate(128.000000, 697.000000)">
                <g id="worker" transform="translate(325.000000, 24.000000)">
                    <path d="M33.8496842,0 L7.37508772,0 C7.06175439,0 6.80778947,0.253964912 6.80778947,0.567298246 C6.80778947,0.880631579 7.06182456,1.13459649 7.37508772,1.13459649 L33.8496842,1.13459649 C34.3710877,1.13459649 34.7952281,1.55873684 34.7952281,2.08014035 L34.7952281,20.4232281 L31.5804912,20.4232281 C31.2671579,20.4232281 31.013193,20.677193 31.013193,20.9905263 C31.013193,21.3039298 31.2672281,21.5578246 31.5804912,21.5578246 L34.7952281,21.5578246 L34.7952281,27.0418246 C34.7952281,27.378386 34.6138947,27.6924211 34.3221053,27.861193 C34.0509474,28.0181053 33.9581754,28.3651228 34.1150877,28.6363509 C34.2202105,28.8180351 34.4107368,28.9196491 34.6066667,28.9196491 C34.7030175,28.9196491 34.8007719,28.8950877 34.8902456,28.8432982 C35.5314386,28.4723509 35.9298947,27.7820351 35.9298947,27.0418246 L35.9298947,2.08014035 C35.9298246,0.933192982 34.9967018,0 33.8496842,0 Z" id="Shape"></path>
                    <path d="M29.5002807,24.7726316 C29.5002807,25.9195789 30.4334035,26.8527719 31.5804211,26.8527719 C32.7274386,26.8527719 33.6605614,25.9195789 33.6605614,24.7726316 C33.6605614,23.6256842 32.7274386,22.6924912 31.5804211,22.6924912 C30.4334035,22.6924912 29.5002807,23.6256842 29.5002807,24.7726316 Z M31.5804211,23.8271579 C32.1018246,23.8271579 32.5259649,24.2512982 32.5259649,24.7727018 C32.5259649,25.2941053 32.1018246,25.7182456 31.5804211,25.7182456 C31.0590175,25.7182456 30.6348772,25.2941053 30.6348772,24.7727018 C30.6348772,24.2512982 31.0590175,23.8271579 31.5804211,23.8271579 Z" id="Shape"></path>
                    <path d="M12.4809123,28.5547368 C12.4809123,28.2413333 12.2268772,27.9874386 11.913614,27.9874386 L2.08014035,27.9874386 C1.55873684,27.9874386 1.13459649,27.5632982 1.13459649,27.0418947 L1.13459649,21.5578947 L14.9392281,21.5578947 C15.2525614,21.5578947 15.5065263,21.304 15.5065263,20.9905965 C15.5065263,20.677193 15.2524912,20.4232982 14.9392281,20.4232982 L1.13459649,20.4232982 L1.13459649,2.08014035 C1.13459649,1.55873684 1.55873684,1.13459649 2.08014035,1.13459649 L5.10582456,1.13459649 C5.41915789,1.13459649 5.67312281,0.880631579 5.67312281,0.567298246 C5.67312281,0.253964912 5.41915789,0 5.10582456,0 L2.08014035,0 C0.933122807,0 0,0.933192982 0,2.08014035 L0,27.0418947 C0,28.1888421 0.933122807,29.1220351 2.08014035,29.1220351 L11.9135439,29.1220351 C12.2268772,29.1220351 12.4809123,28.8681404 12.4809123,28.5547368 Z" id="Shape"></path>
                    <path d="M31.8563509,28.1209825 L26.8527018,26.6198596 L26.8527018,24.8454737 C27.2584561,24.6527719 27.6398596,24.4059649 27.9855439,24.1094035 C28.9106667,23.3157895 29.5221053,22.2152281 29.7074386,21.0105965 L30.3379649,16.9118596 C30.9532632,16.6761404 31.3912281,16.0794386 31.3912281,15.3823158 C31.3912281,14.9450526 31.2209825,14.5339649 30.9117895,14.2247719 C30.9117895,14.2247719 30.9117895,14.2247719 30.9117895,14.2247018 L29.8069474,13.1199298 L29.0261053,10.7773333 C28.5745263,9.42273684 27.3750175,8.47782456 25.9768421,8.33838596 C25.7677895,7.88203509 25.3065965,7.56421053 24.7726316,7.56421053 L21.7469474,7.56421053 C21.2129825,7.56421053 20.7518596,7.88203509 20.5427368,8.33838596 C19.1445614,8.47782456 17.9450526,9.42273684 17.4934737,10.7773333 L16.7126316,13.1199298 L15.6077895,14.2247018 C15.2985965,14.5338947 15.1282807,14.9450526 15.1282807,15.3823158 C15.1282807,16.0794386 15.5662456,16.6762105 16.1815439,16.9118596 L16.8120702,21.0105965 C16.9974035,22.2152982 17.6089825,23.3157895 18.5339649,24.1094035 C18.8796491,24.4058947 19.2610526,24.6526316 19.666807,24.8454737 L19.666807,26.6198596 L14.6631579,28.1209825 C13.1316491,28.5804211 12.1025965,29.9634386 12.1025965,31.5624561 L12.1025965,34.6061053 C12.1025965,35.336 12.6964912,35.9298246 13.4263158,35.9298246 L27.0418246,35.9298246 C27.3551579,35.9298246 27.6091228,35.6759298 27.6091228,35.3625263 C27.6091228,35.0491228 27.3550877,34.7952281 27.0418246,34.7952281 L18.1540351,34.7952281 L18.1540351,33.0932632 C18.1540351,32.7798596 17.9,32.5259649 17.5867368,32.5259649 C17.2734737,32.5259649 17.0194386,32.7798596 17.0194386,33.0932632 L17.0194386,34.7952281 L13.4264561,34.7952281 C13.3222456,34.7952281 13.2373333,34.7104561 13.2373333,34.6061053 L13.2373333,31.5624561 C13.2373333,30.4684211 13.9414035,29.5221053 14.9892632,29.2077193 L20.3174035,27.6092632 L26.2022456,27.6092632 L31.5304561,29.2077193 C32.5783158,29.5221053 33.282386,30.4684211 33.282386,31.5624561 L33.282386,34.6061053 C33.282386,34.710386 33.1975439,34.7952281 33.0932632,34.7952281 L29.5002807,34.7952281 L29.5002807,33.0932632 C29.5002807,32.7798596 29.2462456,32.5259649 28.9329825,32.5259649 C28.6197193,32.5259649 28.3656842,32.7798596 28.3656842,33.0932632 L28.3656842,35.3625263 C28.3656842,35.6759298 28.6197193,35.9298246 28.9329825,35.9298246 L33.0932632,35.9298246 C33.8231579,35.9298246 34.4169825,35.3359298 34.4169825,34.6061053 L34.4169825,31.5624561 C34.4169825,29.9634386 33.3879298,28.5804211 31.8563509,28.1209825 Z M16.7654737,15.8847018 C16.4884211,15.8847018 16.2630877,15.6592982 16.2630877,15.3822456 C16.2630877,15.2480702 16.3153684,15.1218947 16.4101754,15.0270175 L17.6096842,13.8275789 C17.6719298,13.7652632 17.7189474,13.6893333 17.7467368,13.6058246 L18.5699649,11.1362105 C18.8535439,10.2854737 19.5681404,9.67094737 20.4233684,9.50203509 L20.4233684,11.913614 C20.4233684,12.2270175 20.6774035,12.4809123 20.9906667,12.4809123 C21.304,12.4809123 21.5579649,12.2269474 21.5579649,11.913614 L21.5579649,8.88792982 C21.5579649,8.78364912 21.642807,8.69880702 21.7470877,8.69880702 L24.7727719,8.69880702 C24.8769825,8.69880702 24.9618947,8.78357895 24.9618947,8.88792982 L24.9618947,11.913614 C24.9618947,12.2270175 25.2159298,12.4809123 25.529193,12.4809123 C25.8424561,12.4809123 26.0964912,12.2269474 26.0964912,11.913614 L26.0964912,9.50210526 C26.9517193,9.67101754 27.6661754,10.2855439 27.9497544,11.1362807 L28.7729825,13.6058947 C28.8008421,13.6894737 28.8477895,13.7654035 28.9100351,13.8276491 L30.1094737,15.0270175 C30.2030175,15.1205614 30.2567018,15.2501053 30.2567018,15.3823158 C30.2567018,15.6594386 30.0313684,15.8847719 29.7543158,15.8847719 L29.7543158,15.8847018 L16.7654737,15.8847018 Z M24.661193,25.34 C25.0185965,25.34 25.3729123,25.302386 25.7183158,25.2292632 L25.7183158,26.4745965 L20.801614,26.4745965 L20.801614,25.2292632 C21.1470175,25.302386 21.501193,25.34 21.8587368,25.34 L22.5035789,25.34 C22.8169123,25.34 23.0708772,25.0861053 23.0708772,24.7727018 C23.0708772,24.4592982 22.8168421,24.2054035 22.5035789,24.2054035 L21.8587368,24.2054035 C19.8845614,24.2054035 18.2338246,22.789193 17.9336842,20.8379649 L17.3461754,17.0194386 L29.1736842,17.0194386 L28.5862456,20.8379649 C28.2860351,22.7891228 26.6353684,24.2054035 24.661193,24.2054035 C24.3478596,24.2054035 24.0938947,24.4592982 24.0938947,24.7727018 C24.0937544,25.0860351 24.3477895,25.34 24.661193,25.34 Z" id="Shape"></path>
                    <path d="M4.34940351,22.6924912 C3.20238596,22.6924912 2.26926316,23.6256842 2.26926316,24.7726316 C2.26926316,25.9195789 3.20238596,26.8527719 4.34940351,26.8527719 L9.64435088,26.8527719 C10.7913684,26.8527719 11.7244912,25.9195789 11.7244912,24.7726316 C11.7244912,23.6256842 10.7913684,22.6924912 9.64435088,22.6924912 L4.34940351,22.6924912 Z M10.5898246,24.7726316 C10.5898246,25.2940351 10.1656842,25.7181754 9.6442807,25.7181754 L4.34940351,25.7181754 C3.828,25.7181754 3.40385965,25.2940351 3.40385965,24.7726316 C3.40385965,24.2512281 3.828,23.8270877 4.34940351,23.8270877 L9.64435088,23.8270877 C10.1656842,23.8271579 10.5898246,24.2512982 10.5898246,24.7726316 Z" id="Shape"></path>
                    <path d="M10.7789474,3.02568421 L5.484,3.02568421 C4.96259649,3.02568421 4.53845614,3.44982456 4.53845614,3.97122807 L4.53845614,6.24049123 C4.53845614,6.76189474 4.96259649,7.18603509 5.484,7.18603509 L7.56414035,7.18603509 L7.56414035,8.53740351 L5.06133333,9.78884211 C4.73880702,9.94996491 4.53852632,10.2741053 4.53852632,10.6345965 L4.53852632,10.9235789 C4.53852632,11.2840702 4.73880702,11.6082105 5.06119298,11.7692632 L7.56421053,13.0207719 L7.56421053,14.3719298 L5.484,14.3719298 C4.96259649,14.3719298 4.53845614,14.7960702 4.53845614,15.3174737 L4.53845614,17.5867368 C4.53845614,18.1081404 4.96259649,18.5322807 5.484,18.5322807 L10.7789474,18.5322807 C11.3003509,18.5322807 11.7244912,18.1081404 11.7244912,17.5867368 L11.7244912,17.0194386 L13.4264561,17.0194386 C13.7397895,17.0194386 13.9937544,16.7655439 13.9937544,16.4521404 C13.9937544,16.1387368 13.7397193,15.8848421 13.4264561,15.8848421 L11.7244912,15.8848421 L11.7244912,15.3175439 C11.7244912,14.7961404 11.3003509,14.372 10.7789474,14.372 L8.69880702,14.372 L8.69880702,13.0206316 L11.201614,11.769193 C11.5241404,11.6080702 11.7244211,11.2839298 11.7244211,10.9234386 L11.7244211,10.6344561 C11.7244211,10.2739649 11.5241404,9.94982456 11.2017544,9.78877193 L8.69873684,8.53726316 L8.69873684,7.18596491 L10.7789474,7.18596491 C11.3003509,7.18596491 11.7244912,6.76182456 11.7244912,6.24042105 L11.7244912,5.67312281 L30.2567018,5.67312281 L30.2567018,11.1571228 C30.2567018,11.4705263 30.5107368,11.7244211 30.824,11.7244211 C31.1373333,11.7244211 31.3912982,11.4705263 31.3912982,11.1571228 L31.3912982,5.10582456 C31.3912982,4.79242105 31.1372632,4.53852632 30.824,4.53852632 L11.7244912,4.53852632 L11.7244912,3.97122807 C11.7244912,3.44982456 11.3003509,3.02568421 10.7789474,3.02568421 Z M10.5898246,15.5065263 L10.5898246,17.3975439 L5.67312281,17.3975439 L5.67312281,15.5065263 L10.5898246,15.5065263 Z M10.5898246,10.7514386 L10.5898246,10.8065965 L8.1314386,12.0357895 L5.67305263,10.8065965 L5.67305263,10.7514386 L8.1314386,9.52224561 L10.5898246,10.7514386 Z M10.5898246,6.05136842 L8.1314386,6.05136842 L5.67312281,6.05136842 L5.67312281,4.1602807 L10.5898246,4.1602807 L10.5898246,6.05136842 Z" id="Shape"></path>
                    <path d="M12.8590877,24.7726316 C12.8590877,25.9195789 13.7922105,26.8527719 14.9392281,26.8527719 C16.0862456,26.8527719 17.0193684,25.9195789 17.0193684,24.7726316 C17.0193684,23.6256842 16.0862456,22.6924912 14.9392281,22.6924912 C13.7922105,22.6924912 12.8590877,23.6256842 12.8590877,24.7726316 Z M15.8847719,24.7726316 C15.8847719,25.2940351 15.4606316,25.7181754 14.9392281,25.7181754 C14.4178246,25.7181754 13.9936842,25.2940351 13.9936842,24.7726316 C13.9936842,24.2512281 14.4178246,23.8270877 14.9392281,23.8270877 C15.4606316,23.8270877 15.8847719,24.2512982 15.8847719,24.7726316 Z" id="Shape"></path>
                </g>
            </g>
        </g>
    </g>
</svg>
