
<svg width="52px" height="55px" viewBox="0 0 52 55" version="1.1" xmlns="http://www.w3.org/2000/svg" xmlns:xlink="http://www.w3.org/1999/xlink">
    <g id="Page-1" stroke="none" stroke-width="1" fill="none" fill-rule="evenodd">
        <g id="Dashboard---Notification" transform="translate(-758.000000, -755.000000)" fill-rule="nonzero" fill="#9013FE">
            <g id="Alert-Line" transform="translate(719.000000, 755.000000)">
                <g id="flt-Alert" transform="translate(39.000000, 0.000000)">
                    <g id="network">
                        <path d="M14.9835057,1.19206254 C14.2750237,0.434606133 13.274474,0 12.2383216,0 L9.76157514,0 C8.72552782,0 7.72497811,0.434606133 7.01649608,1.19206254 C6.30811908,1.94983464 5.9405402,2.97847264 6.00785965,4.01447685 L6.11802829,5.70565244 L6.37501843,9.65499098 C6.47857065,11.24546 7.3726275,12.6536681 8.76638158,13.4218581 C9.46572665,13.8074263 10.2327062,14 11.0000009,14 C11.7670855,14 12.5342751,13.8072159 13.2335152,13.4219633 C14.6273743,12.6537733 15.5213261,11.2456705 15.6249833,9.65499098 L15.9187314,5.14192724 L15.9921421,4.01447685 C16.0594616,2.97847264 15.6917777,1.9497294 14.9835057,1.19206254 Z M8.14569839,3.8747294 C8.11629208,3.42223391 8.27036014,2.99067949 8.57986156,2.65983163 C8.88936297,2.32887853 9.30903303,2.14661756 9.76168016,2.14661756 L11.4709219,2.14661756 L11.1652013,2.96352977 C11.0109232,3.18367408 10.2543409,4.10329224 8.18308642,4.44950391 L8.14569839,3.8747294 Z M13.4870396,9.51534877 C13.4314826,10.3706705 12.9505845,11.1279164 12.2010386,11.5410553 C11.4488672,11.955457 10.5508195,11.955457 9.79875311,11.5410553 C9.04920727,11.1278112 8.5684141,10.3706705 8.51275216,9.51534877 L8.32297644,6.59843656 C10.0845194,6.34009321 11.2440733,5.73564342 11.9763954,5.16507817 C12.1073585,5.25641912 12.2516595,5.34281419 12.4089832,5.42426338 C12.7142837,5.58232111 13.1478168,5.73848467 13.7225001,5.89696332 L13.4870396,9.51534877 Z M13.3925193,3.51715274 C13.344734,3.49242333 13.3056656,3.46990379 13.2712183,3.44906795 L13.521697,2.77990078 C13.726806,3.04561034 13.8426459,3.36277811 13.8564038,3.69773001 C13.5922721,3.61165063 13.4559529,3.5500902 13.3925193,3.51715274 Z" id="Shape"></path>
                        <path d="M22.982524,22.7697768 L22.5649623,20.5624189 C22.5649623,20.5624189 22.5649623,20.5624189 22.5649623,20.5623166 C22.0461379,17.8206266 19.7775108,15.6324142 16.9200202,15.1172275 C16.4887714,15.0394171 16.0475782,15 15.6084167,15 L14.3505989,15 C14.0613533,15 13.7839768,15.1100607 13.5794197,15.3058153 L11.4999518,17.2968398 L9.42048392,15.3058153 C9.21603374,15.1100607 8.93855036,15 8.64930469,15 L7.39159391,15 C6.95253929,15 6.51123914,15.0395195 6.08020427,15.1172275 C3.22249976,15.6324142 0.953979607,17.8206266 0.435155199,20.5624189 L0.0174865811,22.7697768 C-0.0401486941,23.0742611 0.0462507537,23.3876527 0.253588043,23.6251792 C0.460818402,23.8626032 0.767386739,24 1.09063616,24 L21.9093744,24 C22.2326238,23.9998976 22.5392991,23.8627056 22.7464225,23.6251792 C22.9536529,23.3876527 23.0401593,23.0742611 22.982524,22.7697768 Z M2.39657237,21.9116101 L2.58145435,20.9346802 C2.94009761,19.0388711 4.50844006,17.5257662 6.48407892,17.1696813 C6.78252058,17.1158283 7.08780576,17.0885946 7.39170084,17.0885946 L8.19773926,17.0885946 L10.7288795,19.5121835 C11.1547817,19.919869 11.8453357,19.919869 12.2713449,19.5121835 L14.8024852,17.0885946 L15.6085236,17.0885946 C15.9123117,17.0885946 16.2175969,17.1159307 16.5163594,17.1696813 C18.4917844,17.5257662 20.0600199,19.0388711 20.4187701,20.9346802 L20.6036521,21.9116101 L2.39657237,21.9116101 Z" id="Shape"></path>
                        <path d="M43.983578,32.1920625 C43.2749853,31.4343957 42.2744275,31 41.2383718,31 L38.7616054,31 C37.7254447,31 36.724887,31.4346061 36.0165043,32.1920625 C35.3081216,32.9498346 34.9405397,33.9784726 35.0078597,35.0143716 L35.1178192,36.7056524 L35.3749164,40.654991 C35.4784695,42.2455652 36.3724285,43.6538785 37.7664039,44.4220686 C38.4656495,44.8074263 39.2328453,45 39.9999361,45 C40.7671319,45 41.5342227,44.8073211 42.2335734,44.4219633 C43.6274437,43.6537733 44.5212977,42.2456705 44.6249558,40.654991 L44.9187062,36.1419272 L44.9921176,35.0144768 C45.0595426,33.9784726 44.6919607,32.9498346 43.983578,32.1920625 Z M37.1457157,34.8747294 C37.1162041,34.4221287 37.2704834,33.9906795 37.5799874,33.6598316 C37.8894913,33.3288785 38.3091647,33.1466176 38.7617104,33.1466176 L40.470966,33.1466176 L40.1652429,33.9635298 C40.0109636,34.1836741 39.2543751,35.1032922 37.183104,35.4496091 L37.1457157,34.8747294 Z M42.4869948,40.5153488 C42.4315425,41.3707757 41.9507454,42.1279164 41.2011936,42.5410553 C40.4490161,42.9555622 39.5508561,42.955457 38.7987837,42.5410553 C38.0492318,42.1279164 37.5684348,41.3707757 37.5127724,40.5153488 L37.3228901,37.5985418 C39.0843423,37.3400932 40.2440105,36.7356434 40.9762335,36.1651834 C41.1073027,36.2565244 41.2516048,36.3429194 41.4091399,36.4244738 C41.7144428,36.5824263 42.1479793,36.7385899 42.7224572,36.8969633 L42.4869948,40.5153488 Z M42.3925788,34.5171527 C42.3447932,34.4924233 42.3057245,34.4699038 42.2712768,34.4490679 L42.5217576,33.7799008 C42.7268682,34.0455051 42.842814,34.3626729 42.8564671,34.69773 C42.5923333,34.6115454 42.4559079,34.549985 42.3925788,34.5171527 Z" id="Shape"></path>
                        <path d="M51.9825654,53.769572 L51.564898,51.5623166 L51.564898,51.5624189 C51.046182,48.820729 48.7775614,46.6325166 45.9197581,46.1172275 C45.4880829,46.0394171 45.0468909,46 44.6084791,46 L43.3507719,46 C43.0615271,46 42.7841514,46.1100607 42.5795949,46.3058153 L40.500026,48.2968398 L38.420564,46.3058153 C38.2161144,46.1100607 37.9386318,46 37.649387,46 L36.3916798,46 C35.953268,46 35.512076,46.0395195 35.0801869,46.1172275 C32.2224906,46.6325166 29.9539769,48.8208313 29.435154,51.5624189 L29.0174865,53.7696744 C28.9598514,54.0742611 29.0462506,54.3876527 29.2535873,54.6251792 C29.4608171,54.8626032 29.7673846,55 30.0906331,55 L50.9094189,55 C51.2326674,55 51.5392349,54.8627056 51.7464646,54.6251792 C51.9536944,54.3875503 52.0400936,54.0741588 51.9825654,53.769572 Z M31.3964586,52.9116101 L31.5813401,51.9347826 C31.9399823,50.0389734 33.5083203,48.5258685 35.4836327,48.1696813 C35.782822,48.1158283 36.0881063,48.0885946 36.3915728,48.0885946 L37.197609,48.0885946 L39.728742,50.5121835 C39.9331916,50.707938 40.2106742,50.8179988 40.499919,50.8179988 C40.7891639,50.8179988 41.0665396,50.707938 41.2710961,50.5121835 L43.8023361,48.0885946 L44.6082652,48.0885946 C44.9116248,48.0885946 45.217123,48.1159307 45.5160984,48.1696813 C47.4915178,48.5258685 49.0597489,50.0389734 49.418498,51.9347826 C49.418498,51.9347826 49.418498,51.9347826 49.418498,51.934885 L49.6033795,52.9116101 L31.3964586,52.9116101 Z" id="Shape"></path>
                        <path d="M47.9727099,26.9369028 C47.9450335,26.3925362 47.4798565,25.9722147 46.9368759,26.001436 C46.3924437,26.0292058 45.9736199,26.4928754 46.0012964,27.037242 C46.0177474,27.3603205 46.0260697,27.6888176 46.0260697,28.0131541 C46.0260697,28.5581013 46.4679249,29 47.0130345,29 C47.558144,29 47.9999992,28.5581013 47.9999992,28.0131541 C48.000096,27.6554358 47.9909028,27.2933633 47.9727099,26.9369028 Z" id="Shape"></path>
                        <path d="M46.9501327,21.5811452 C45.5308359,17.0058682 42.6498153,12.8995129 38.8376186,10.0185809 C35.2809334,7.33075942 31.1158122,5.78598156 26.7142823,5.50835163 L27.3511084,4.86279518 C27.7714727,4.43666801 27.7714727,3.74574929 27.3511084,3.31951514 C26.930744,2.89349495 26.2491692,2.89349495 25.8286993,3.31951514 L23.3152732,5.86739828 C22.8949089,6.29352545 22.8949089,6.98444417 23.3152732,7.41067832 L25.8286993,9.95856146 C26.0389342,10.1715716 26.3143927,10.2781301 26.5898511,10.2781301 C26.8653095,10.2781301 27.1408734,10.1715716 27.3510028,9.95856146 C27.7713671,9.53243429 27.7713671,8.84151557 27.3510028,8.41528141 L26.6362885,7.69044798 C35.0898011,8.24923839 42.3269696,13.95226 44.8964372,22.2357955 C45.0410265,22.7018287 45.4654013,23 45.9230211,23 C46.0300383,23 46.1387441,22.9837381 46.2461834,22.9493954 C46.8132478,22.7686952 47.1284946,22.1559836 46.9501327,21.5811452 Z" id="Shape"></path>
                        <path d="M26.6779665,49.5026907 L24.1108621,46.9048587 C23.6814841,46.4704868 22.9852946,46.4704868 22.5558089,46.9048587 C22.1264309,47.3393397 22.1264309,48.0438032 22.5558089,48.4783933 L23.3604479,49.2925952 C12.6378575,48.3401841 4.19895841,39.205611 4.19895841,28.1125463 C4.19895841,27.498186 3.70673152,27 3.09947921,27 C2.49222689,27 2,27.498186 2,28.1125463 C2,40.358191 11.3092977,50.4433208 23.1424709,51.5068884 L22.5557011,52.1006319 C22.1263231,52.5351129 22.1263231,53.2395764 22.5557011,53.6741665 C22.770444,53.8913525 23.0518089,54 23.3331738,54 C23.6145387,54 23.8960114,53.8913525 24.1106465,53.6741665 L26.6779665,51.0763345 C27.1073445,50.6417444 27.1073445,49.9372808 26.6779665,49.5026907 Z" id="Shape"></path>
                    </g>
                </g>
            </g>
        </g>
    </g>
</svg>
