
<svg width="59px" height="58px" viewBox="0 0 59 58" version="1.1" xmlns="http://www.w3.org/2000/svg" xmlns:xlink="http://www.w3.org/1999/xlink">
    <g id="Page-1" stroke="none" stroke-width="1" fill="none" fill-rule="evenodd">
        <g id="Dashboard---Notification" transform="translate(-758.000000, -471.000000)" fill-rule="nonzero" fill="#FF385D">
            <g id="Alert-Line" transform="translate(722.000000, 471.000000)">
                <g id="escalator" transform="translate(36.000000, 0.000000)">
                    <path d="M58.9917791,18.4813036 C58.8935116,14.2542178 55.1578467,10.8134968 50.8323461,10.8134968 L39.9203847,10.8134968 C38.6424456,10.8134968 37.3643913,11.4033281 36.5780205,12.3863419 L27.5338338,23.1039911 L27.5338338,18.6779524 C27.5338338,16.1580365 26.2171868,13.9780799 24.2260303,12.7796395 C26.2170716,11.5811991 27.5338338,9.40124259 27.5338338,6.88132664 C27.5338338,3.04742326 24.4863875,0 20.6524551,0 C16.8185227,0 13.7710764,3.04742326 13.7710764,6.88132664 C13.7710764,9.40124259 15.0877234,11.5811991 17.0788799,12.7796395 C15.0878386,13.9780799 13.7710764,16.1580365 13.7710764,18.6779524 L13.7710764,39.4134023 L11.6083837,41.9762884 C11.5101161,42.1729372 11.2151982,42.271204 10.9202804,42.271204 L8.16763671,42.271204 C3.74386855,42.271204 0.106586466,45.7119249 0.00820370547,49.9390108 C-0.0900638528,52.0034203 0.696307018,54.0678298 2.26927916,55.6406748 C3.74386855,57.1152531 5.71002613,58 7.87271883,58 L17.1134406,58 C18.3913796,58 19.6694339,57.4101687 20.4558048,56.427155 L44.9339886,26.9355905 C45.2289065,26.7389417 45.5238243,26.542408 45.9170098,26.542408 L51.127264,26.542408 C53.2899567,26.542408 55.2561143,25.6576611 56.7307037,24.1830829 C58.3036758,22.6101226 59.0901619,20.6439799 58.9917791,18.4813036 Z M15.737234,6.88121144 C15.737234,4.12870383 17.8999266,1.9659123 20.6525703,1.9659123 C23.405214,1.9659123 25.5679067,4.12858862 25.5679067,6.88121144 C25.5679067,9.63371906 23.405214,11.7965106 20.6525703,11.7965106 C17.8999266,11.7965106 15.737234,9.63383426 15.737234,6.88121144 Z M15.737234,37.0609892 L15.737234,18.6778372 C15.737234,15.9253296 17.8999266,13.7625381 20.6525703,13.7625381 C23.405214,13.7625381 25.5679067,15.9252144 25.5679067,18.6778372 L25.5679067,25.4338247 L20.1921067,31.8043483 L15.737234,37.0609892 Z M55.354497,22.8066563 C54.2730931,23.9863188 52.7002361,24.5761501 51.1273792,24.5761501 L45.917125,24.5761501 C44.9341038,24.5761501 44.0493501,25.0677146 43.4595144,25.7558127 L18.9813306,55.1491104 C18.4897624,55.7389417 17.8016591,56.0338573 17.1135558,56.0338573 L7.87271883,56.0338573 C6.29986188,56.0338573 4.72688974,55.444026 3.64560099,54.2643634 C2.56419704,53.0847009 1.97436129,51.5118558 1.97436129,49.9388956 C2.07262884,46.7930903 4.8252725,44.2372315 8.16763671,44.2372315 L10.9201652,44.2372315 C11.8049188,44.2372315 12.5914049,43.8440491 13.1812406,43.1558357 L38.0526098,13.6642713 C38.544178,13.07444 39.2322814,12.7795243 39.9203847,12.7795243 L50.8323461,12.7795243 C54.1747103,12.7795243 56.927354,15.3354983 57.0256215,18.4811884 C57.0257367,20.1524155 56.435901,21.6269937 55.354497,22.8066563 Z" id="Shape"></path>
                    <path d="M48.3167835,36.4710946 C48.1635233,36.1770706 47.8735924,36 47.5000549,36 C47.1265175,36 46.8366964,36.1770706 46.6833263,36.4710946 L40.2812243,43.2999739 C39.9062586,43.6999355 39.9062586,44.2999366 40.2812243,44.7000154 C40.6561899,45.0999771 41.2186934,45.0999771 41.5937689,44.7000154 L46.5625858,39.399967 L46.5625858,57.0000373 C46.5625858,57.6000384 46.9375515,58 47.5000549,58 C48.0625584,58 48.437524,57.6000384 48.437524,57.0000373 L48.437524,39.4000842 L53.406341,44.7001326 C53.5938787,44.9001721 53.7813066,45.0001332 54.0625584,45.0001332 C54.3438101,45.0001332 54.5313478,44.9001721 54.7187757,44.7001326 C55.0937414,44.300171 55.0937414,43.7001699 54.7187757,43.3000911 L48.3167835,36.4710946 Z" id="Shape"></path>
                </g>
            </g>
        </g>
    </g>
</svg>
