
<svg width="49px" height="49px" viewBox="0 0 49 49" version="1.1" xmlns="http://www.w3.org/2000/svg" xmlns:xlink="http://www.w3.org/1999/xlink">
    <g id="Page-1" stroke="none" stroke-width="1" fill="none" fill-rule="evenodd">
        <g id="Dashboard---Notification" transform="translate(-872.000000, -568.000000)" fill-rule="nonzero" fill="#006DF0">
            <g id="Alert-Line" transform="translate(722.000000, 568.000000)">
                <g id="flt-Alert" transform="translate(150.000000, 0.000000)">
                    <g id="Group-7">
                        <g id="customer">
                            <path d="M25,16 C29.411221,16 33,12.4112453 33,7.99994595 C33,3.58875474 29.411221,0 25,0 C20.588779,0 17,3.58875474 17,7.99994595 C17,12.4112453 20.588779,16 25,16 Z M25,1.62152302 C28.5171072,1.62152302 31.378466,4.48286253 31.378466,7.99994595 C31.378466,11.5170294 28.5171072,14.378477 25,14.378477 C21.4828928,14.378477 18.621534,11.5170294 18.621534,7.99994595 C18.621534,4.48286253 21.4828928,1.62152302 25,1.62152302 Z" id="Shape"></path>
                            <path d="M24.5,18.5493696 C30.8063261,18.5493696 35.9842784,23.3720405 36.3924203,29.4506304 L18.1169166,29.4506304 C17.6802015,29.4506304 17.3261481,29.7973794 17.3261481,30.2253152 C17.3261481,30.6532511 17.6802015,31 18.1169166,31 L37.2092315,31 C37.6459466,31 38,30.6532511 38,30.2253152 C38,22.9328459 31.9439784,17 24.5,17 C17.0560216,17 11,22.9328459 11,30.2253152 C11,30.6532511 11.3540534,31 11.7907685,31 L14.9538425,31 C15.3905576,31 15.7446111,30.6532511 15.7446111,30.2253152 C15.7446111,29.7973794 15.3905576,29.4506304 14.9538425,29.4506304 L12.6074742,29.4506304 C13.0157216,23.3720405 18.1937793,18.5493696 24.5,18.5493696 L24.5,18.5493696 Z" id="Shape"></path>
                            <path d="M15.3173886,39.1276316 L10.8290572,38.3889848 L8.7256734,34.4315281 C8.58472781,34.1663426 8.30512756,34 8.00010909,34 C7.69509063,34 7.41549037,34.1663426 7.27454478,34.4315281 L5.17116102,38.3889848 L0.682829593,39.1276316 C0.382065678,39.17716 0.134319994,39.3865057 0.0400653614,39.6709462 C-0.0541892713,39.9552798 0.0207562526,40.2675332 0.23435645,40.4808369 L3.4227594,43.6654155 L2.75217696,48.079432 C2.70723147,48.3753186 2.83377704,48.6709912 3.0805409,48.8467475 C3.32708658,49.0226107 3.65315961,49.0491399 3.92610532,48.9158519 L8,46.9264797 L12.0738947,48.9158519 C12.189313,48.9721195 12.3142222,48.9999324 12.4384768,48.9999324 C12.6083315,48.9999324 12.7770953,48.9481576 12.9194591,48.8466405 C13.166223,48.6708843 13.2927685,48.3752116 13.247823,48.079325 L12.5772406,43.6653085 L15.7656435,40.4807299 C15.9792437,40.2674262 16.0541893,39.9551728 15.9599346,39.6708392 C15.8658982,39.3865057 15.6181525,39.17716 15.3173886,39.1276316 L15.3173886,39.1276316 Z M11.1242574,42.8264283 C10.9445845,43.0059285 10.8610208,43.2577424 10.8988754,43.506668 L11.398185,46.7931916 L8.36490943,45.31194 C8.13527285,45.1997256 7.86516351,45.1997256 7.63541784,45.31194 L4.60203322,46.7931916 L5.10134277,43.506668 C5.13919735,43.2577424 5.05574273,43.0058216 4.87596075,42.8264283 L2.50192218,40.4552704 L5.84381619,39.9052165 C6.09690733,39.8634971 6.31541662,39.7078518 6.43399855,39.4847066 L8.00010909,36.5380354 L9.56621963,39.4847066 C9.68480156,39.7078518 9.90331085,39.8634971 10.156402,39.9052165 L13.498296,40.4552704 L11.1242574,42.8264283 L11.1242574,42.8264283 Z" id="Shape"></path>
                            <path d="M32.3171797,39.1276316 L27.8289095,38.3889848 L25.7255544,34.4315281 C25.5846108,34.1663426 25.3050143,34 25,34 C24.6949857,34 24.4153892,34.1663426 24.2744456,34.4315281 L22.1710905,38.3889848 L17.6828203,39.1276316 C17.3820605,39.17716 17.1343182,39.3865057 17.0400648,39.6709462 C16.9458115,39.9552798 17.020756,40.2675332 17.2343533,40.4808369 L20.4227127,43.6654155 L19.7522485,48.079432 C19.7073036,48.3753186 19.8338475,48.6709912 20.080608,48.8467475 C20.3271503,49.0226107 20.6532189,49.0491399 20.9261609,48.9158519 L25,46.9264797 L29.0738391,48.9158519 C29.1892558,48.9721195 29.3141633,48.9999324 29.4384163,48.9999324 C29.6082687,48.9999324 29.7770302,48.9481576 29.919392,48.8466405 C30.1661525,48.6708843 30.2926964,48.3752116 30.2477515,48.079325 L29.5772873,43.6653085 L32.7656467,40.4807299 C32.979244,40.2674262 33.0541885,39.9551728 32.9599352,39.6708392 C32.8656818,39.3865057 32.6179395,39.17716 32.3171797,39.1276316 L32.3171797,39.1276316 Z M28.1241057,42.8264283 C27.9444353,43.0059285 27.8608727,43.2577424 27.8987268,43.506668 L28.3979204,46.7931916 L25.3646863,45.31194 C25.249815,45.2558863 25.1249075,45.2278595 25,45.2278595 C24.8750925,45.2278595 24.7500759,45.2558863 24.6353137,45.31194 L21.6020796,46.7931916 L22.1012732,43.506668 C22.1391273,43.2577424 22.0556738,43.0058216 21.8758943,42.8264283 L19.5018881,40.4552704 L22.8437365,39.9052165 C23.0968242,39.8634971 23.3153305,39.7078518 23.4339108,39.4847066 L25,36.5381424 L26.5660892,39.4848136 C26.6846695,39.7079588 26.9031758,39.8636041 27.1562635,39.9053235 L30.4981119,40.4553773 L28.1241057,42.8264283 L28.1241057,42.8264283 Z" id="Shape"></path>
                            <path d="M48.9599403,39.6709462 C48.8656869,39.3865057 48.6180536,39.17716 48.3171846,39.1276316 L43.8289129,38.3889848 L41.7255572,34.4315281 C41.5846135,34.1663426 41.305017,34 41.0000025,34 C40.6949881,34 40.4153916,34.1663426 40.2744479,34.4315281 L38.1710922,38.3889848 L33.6828205,39.1276316 C33.3820606,39.17716 33.1343182,39.3865057 33.0400648,39.6709462 C32.9458115,39.9552798 33.020756,40.2675332 33.2343533,40.4808369 L36.4227138,43.6654155 L35.7521403,48.079432 C35.7071954,48.3753186 35.8337393,48.6709912 36.0804999,48.8467475 C36.3270423,49.0226107 36.653111,49.0491399 36.926053,48.9158519 L40.9998935,46.9264797 L45.0737339,48.9158519 C45.1891506,48.9721195 45.3140582,48.9999324 45.4383112,48.9999324 C45.6081636,48.9999324 45.7769252,48.9481576 45.919287,48.8466405 C46.1660476,48.6708843 46.2925915,48.3752116 46.2476466,48.079325 L45.5770731,43.6653085 L48.7654336,40.4807299 C48.9792491,40.2675332 49.0541936,39.9552798 48.9599403,39.6709462 L48.9599403,39.6709462 Z M44.1242184,42.8264283 C43.9445479,43.0059285 43.8609853,43.2577424 43.8988394,43.506668 L44.3981423,46.7931916 L41.364798,45.31194 C41.2499267,45.2558863 41.1250192,45.2278595 41.0001116,45.2278595 C40.875095,45.2278595 40.7501875,45.2558863 40.6354252,45.31194 L37.6021901,46.7931916 L38.101493,43.506668 C38.1393471,43.2577424 38.0558936,43.0058216 37.876114,42.8264283 L35.502107,40.4552704 L38.8439565,39.9052165 C39.0970443,39.8634971 39.3155507,39.7078518 39.434131,39.4847066 L41.0002207,36.5380354 L42.5663104,39.4847066 C42.6848908,39.7078518 42.9033971,39.8634971 43.1564849,39.9052165 L46.4983344,40.4552704 L44.1242184,42.8264283 L44.1242184,42.8264283 Z" id="Shape"></path>
                            <path d="M25.0000221,11 C26.0724894,11 27.0928115,10.646099 27.7992807,10.0290089 C28.0956792,9.77004478 28.0596794,9.37762221 27.7186629,9.15245764 C27.3775374,8.92729308 26.8607763,8.95471378 26.5643778,9.21367788 C26.1689253,9.55921188 25.5986009,9.75736995 25.0000221,9.75736995 C24.4014434,9.75736995 23.8312281,9.55921188 23.4356664,9.21367788 C23.1391588,8.95471378 22.6223978,8.92737592 22.2813814,9.15245764 C21.9403649,9.37762221 21.904256,9.77004478 22.2007636,10.0290089 C22.9072327,10.6460161 23.9275548,11 25.0000221,11 L25.0000221,11 Z" id="Shape"></path>
                        </g>
                    </g>
                </g>
            </g>
        </g>
    </g>
</svg>
