
<svg width="46px" height="46px" viewBox="0 0 46 46" version="1.1" xmlns="http://www.w3.org/2000/svg" xmlns:xlink="http://www.w3.org/1999/xlink">
    <g id="Page-1" stroke="none" stroke-width="1" fill="none" fill-rule="evenodd">
        <g id="Dashboard---Action-Menu" transform="translate(-757.000000, -278.000000)" fill-rule="nonzero" fill="#FF5959">
            <g id="Popup-action-menu" transform="translate(433.000000, 200.000000)">
                <g id="Buttons" transform="translate(64.000000, 67.000000)">
                    <g id="Pop_icon" transform="translate(235.000000, 0.000000)">
                        <g id="forbidden" transform="translate(25.000000, 11.000000)">
                            <path d="M39.3803396,6.59883019 C30.5821887,-2.19932075 16.2649057,-2.19932075 7.46675472,6.59883019 C-1.33226415,15.3978491 -1.33226415,29.7133962 7.46675472,38.5124151 C11.8653962,42.9110566 17.6449057,45.1121132 23.4235472,45.1121132 C29.2021887,45.1121132 34.9808302,42.9119245 39.3803396,38.5124151 C48.1784906,29.7133962 48.1784906,15.3969811 39.3803396,6.59883019 Z M8.694,7.82607547 C12.7550189,3.7650566 18.089283,1.73411321 23.4235472,1.73411321 C28.485283,1.73411321 33.534,3.58626415 37.5082264,7.24283019 L8.11162264,36.639434 C0.601471698,28.4783396 0.780264151,15.7398113 8.694,7.82607547 Z M38.1530943,37.2843019 C30.2384906,45.1989057 17.5008302,45.3776981 9.33886792,37.8666792 L38.7354717,8.4709434 C46.2464906,16.6320377 46.0676981,29.370566 38.1530943,37.2843019 Z" id="Shape"></path>
                        </g>
                    </g>
                </g>
            </g>
        </g>
    </g>
</svg>
