
<svg width="14px" height="14px" viewBox="0 0 14 14" version="1.1" xmlns="http://www.w3.org/2000/svg" xmlns:xlink="http://www.w3.org/1999/xlink">
    <g id="Page-1" stroke="none" stroke-width="1" fill="none" fill-rule="evenodd">
        <g id="Dashboard---Action-Menu" transform="translate(-979.000000, -214.000000)" fill-rule="nonzero" fill="#FFFFFF">
            <g id="Popup-action-menu" transform="translate(433.000000, 200.000000)">
                <g id="cancel" transform="translate(546.000000, 14.000000)">
                    <path d="M13.5735294,0.37605042 C13.2394958,0.0420168067 12.7037815,0.0420168067 12.3697479,0.37605042 L6.97478992,5.7710084 L1.57983193,0.37605042 C1.24579832,0.0420168067 0.710084034,0.0420168067 0.37605042,0.37605042 C0.0420168067,0.710084034 0.0420168067,1.24579832 0.37605042,1.57983193 L5.7710084,6.97478992 L0.37605042,12.3697479 C0.0420168067,12.7037815 0.0420168067,13.2394958 0.37605042,13.5735294 C0.539915966,13.737395 0.760504202,13.8256303 0.974789916,13.8256303 C1.18907563,13.8256303 1.40966387,13.7436975 1.57352941,13.5735294 L6.96848739,8.17857143 L12.3634454,13.5735294 C12.5273109,13.737395 12.7478992,13.8256303 12.9621849,13.8256303 C13.1827731,13.8256303 13.3970588,13.7436975 13.5609244,13.5735294 C13.894958,13.2394958 13.894958,12.7037815 13.5609244,12.3697479 L8.17857143,6.97478992 L13.5735294,1.57983193 C13.907563,1.24579832 13.907563,0.710084034 13.5735294,0.37605042 Z" id="Shape"></path>
                </g>
            </g>
        </g>
    </g>
</svg>
