
<svg width="46px" height="46px" viewBox="0 0 46 46" version="1.1" xmlns="http://www.w3.org/2000/svg" xmlns:xlink="http://www.w3.org/1999/xlink">
    <g id="Page-1" stroke="none" stroke-width="1" fill="none" fill-rule="evenodd">
        <g id="Dashboard---Action-Menu" transform="translate(-522.000000, -276.000000)" fill-rule="nonzero" fill="#4A90E2">
            <g id="Popup-action-menu" transform="translate(433.000000, 200.000000)">
                <g id="Buttons" transform="translate(64.000000, 67.000000)">
                    <g id="Pop_icon">
                        <g id="engineer" transform="translate(25.000000, 9.000000)">
                            <path d="M43.7000274,38.1800018 C39.1242876,35.7535216 35.6145002,34.3929024 32.4899902,33.8712525 L32.8133382,33.4266947 C32.9667002,33.2733327 33.0433355,33.0433355 32.9667002,32.8133382 L32.2482099,29.9394686 C34.1484732,27.2531225 35.2666728,23.8946875 35.2666728,20.7000274 L35.2666728,17.6333364 L36.0332998,17.6333364 L37.5666454,17.6333364 C38.0266399,17.6333364 38.3332724,17.3267038 38.3332724,16.8667093 C38.3332724,16.4067148 38.0266399,16.1000822 37.5666454,16.1000822 L36.8000183,16.1000822 L36.8000183,15.3334551 C36.8000183,9.27679972 32.8133382,4.14013336 26.8333181,2.45342589 L26.8333181,2.2999726 C26.8333181,1.07325965 25.8366938,0 24.5333455,0 L21.4666545,0 C20.2399415,0 19.1666819,0.996624345 19.1666819,2.2999726 L19.1666819,2.45333455 C13.1866618,4.14004202 9.19998173,9.27670838 9.19998173,15.3333638 L9.19998173,16.0999909 L8.43335465,16.0999909 C7.97336013,16.0999909 7.66672756,16.4066234 7.66672756,16.866618 C7.66672756,17.3266125 7.97336013,17.633245 8.43335465,17.633245 L9.96670016,17.633245 L10.7333272,17.633245 L10.7333272,20.6999361 C10.7333272,23.8945962 11.8515268,27.2530311 13.7517901,29.9394686 L13.0332998,32.8133382 C13.0332998,32.9667002 13.0332998,33.2733327 13.1866618,33.4266947 L13.5100098,33.8712525 C10.3855911,34.3929937 6.87571236,35.7535216 2.2999726,38.1800018 C0.843353733,38.8700849 0,40.3267038 0,41.9366846 L0,45.2333729 C0,45.6933674 0.306632566,46 0.766627085,46 L19.1666819,46 L19.4733145,46 L26.5266855,46 L26.8333181,46 L45.2333729,46 C45.6933674,46 46,45.6933674 46,45.2333729 L46,41.9366846 C46.0000913,40.4033391 45.080011,38.9467203 43.7000274,38.1800018 Z M22.5402795,37.4703717 L23.0043844,36.4261585 L24.1502603,38.947177 L24.8997153,40.6333364 L21.1601133,40.6333364 L22.5402795,37.4703717 Z M20.5773561,42.1666819 L25.4168894,42.1666819 L25.854962,44.4666545 L20.1173616,44.4666545 L20.5773561,42.1666819 Z M31.0499954,31.4333546 L31.356628,32.8133382 L30.5734681,33.8886987 C30.5235045,33.9295282 30.4772858,33.9790352 30.436639,34.0399598 L27.2477333,38.4553957 L26.235855,39.8447874 L24.1689853,35.1943305 C26.6395833,34.8929957 28.8450177,33.6527643 30.6262634,31.8704225 C30.6459931,31.8508755 30.6658141,31.8315111 30.6854525,31.8117814 C30.6902023,31.8069403 30.694952,31.8020993 30.6997018,31.7972582 C30.817806,31.6787886 30.9346314,31.5576701 31.0499954,31.4333546 Z M30.0511789,5.60734781 C30.1363089,5.66397938 30.2207083,5.72152437 30.3041942,5.78016545 C31.2814542,6.50842921 32.1835403,7.36155645 32.8900649,8.27999269 L29.3633793,8.96998447 L30.0511789,5.60734781 Z M16.636712,8.96998447 L13.1100265,8.27999269 C13.816551,7.36146511 14.7187285,6.50833787 15.6959885,5.78007411 C15.7793831,5.72152437 15.8637824,5.66397938 15.9489124,5.60734781 L16.636712,8.96998447 Z M10.7333272,15.3333638 C10.7333272,13.293257 11.2469391,11.3686056 12.1765189,9.6866479 L17.4800658,10.7334186 C17.5567011,10.7334186 17.5567011,10.7334186 17.6334277,10.7334186 C17.863425,10.7334186 18.0167869,10.6567833 18.2467842,10.5800566 C18.4767815,10.4266947 18.5534168,10.1200621 18.4767815,9.89006485 L17.4242563,4.76764772 C17.9786063,4.50093128 18.5603587,4.27184744 19.1667732,4.08350179 L19.1667732,6.13338205 C19.1667732,6.59337657 19.4734058,6.90000913 19.9334003,6.90000913 C20.3933948,6.90000913 20.7000274,6.59337657 20.7000274,6.13338205 L20.7000274,3.06669102 L20.7000274,2.2999726 C20.7000274,1.91661338 21.00666,1.53334551 21.4666545,1.53334551 L24.5333455,1.53334551 C24.9167047,1.53334551 25.2999726,1.83997808 25.2999726,2.2999726 L25.2999726,3.06659968 L25.2999726,6.13329071 C25.2999726,6.59328523 25.6066052,6.89991779 26.0665997,6.89991779 C26.5265942,6.89991779 26.8332268,6.59328523 26.8332268,6.13329071 L26.8332268,4.08350179 C27.4598277,4.27805864 28.0603964,4.51591125 28.6312792,4.79404534 L27.5999452,9.81342955 C27.5999452,10.0434268 27.6765805,10.3500594 27.8299425,10.5034213 C27.9833044,10.6567833 28.136575,10.7334186 28.3665723,10.7334186 C28.4432076,10.7334186 28.4432076,10.7334186 28.5199342,10.7334186 L33.7891367,9.62407914 C34.7405472,11.3208341 35.2665814,13.2680468 35.2665814,15.3333638 L35.2665814,16.0999909 L34.4999543,16.0999909 L11.5000457,16.0999909 L10.7334186,16.0999909 L10.7334186,15.3333638 L10.7333272,15.3333638 Z M12.2666728,17.6333364 L33.7333272,17.6333364 L33.7333272,20.7000274 C33.7333272,24.0430257 32.5865379,27.0137171 30.8647554,29.271764 L30.8199982,29.2866527 C30.7433629,29.363288 30.6666362,29.4400146 30.5900009,29.5166499 C30.2042668,30.0309925 29.7971589,30.4999384 29.3717827,30.9227571 C27.5666056,32.6045321 25.4134184,33.6231697 23.3386933,33.7241018 C23.2342903,33.6792532 23.1171908,33.6566919 23,33.6566919 C22.8821698,33.6566919 22.7759399,33.6798013 22.680671,33.7251065 C21.4106623,33.6668308 20.1108764,33.2642899 18.8787743,32.5756683 C17.6305961,31.8585482 16.4564044,30.8247479 15.4099077,29.5166499 C15.3332724,29.4400146 15.2565458,29.363288 15.1799105,29.2866527 L15.1351533,29.271764 C13.4133708,27.0136257 12.2665814,24.0429344 12.2665814,20.7000274 L12.2665814,17.6333364 L12.2666728,17.6333364 Z M21.8310147,35.1945132 L19.764145,39.8449701 L18.7522667,38.4555784 L15.563361,34.0401425 C15.5389729,34.0157544 15.5119359,33.9915489 15.4839855,33.9677089 L14.643372,32.8134295 L14.9500046,31.433446 C15.0539509,31.545339 15.1593587,31.6544005 15.2657713,31.7617264 C17.0655592,33.6023439 19.3102703,34.8870585 21.8310147,35.1945132 Z M1.53334551,41.9366846 C1.53334551,40.9400603 2.06997534,40.0199799 2.99005572,39.5599854 C7.87690377,36.9637931 11.3948206,35.6608102 14.5285561,35.2716052 L19.1036564,41.5622769 L18.5228174,44.4665631 L1.53334551,44.4665631 L1.53334551,41.9366846 Z M44.4667458,44.4667458 L27.4773652,44.4667458 L26.8965263,41.5624595 L31.5211336,35.2036473 C34.6439081,35.6748768 38.224759,36.9768549 43.0100356,39.4834414 C43.9300247,40.0200712 44.4667458,40.9401516 44.4667458,41.936776 L44.4667458,44.4667458 L44.4667458,44.4667458 Z" id="Shape"></path>
                        </g>
                    </g>
                </g>
            </g>
        </g>
    </g>
</svg>
