
<svg width="46px" height="46px" viewBox="0 0 46 46" version="1.1" xmlns="http://www.w3.org/2000/svg" xmlns:xlink="http://www.w3.org/1999/xlink">
    <g id="Page-1" stroke="none" stroke-width="1" fill="none" fill-rule="evenodd">
        <g id="Dashboard---Action-Menu" transform="translate(-639.000000, -277.000000)" fill-rule="nonzero" fill="#4A90E2">
            <g id="Popup-action-menu" transform="translate(433.000000, 200.000000)">
                <g id="Buttons" transform="translate(64.000000, 67.000000)">
                    <g id="Pop_icon" transform="translate(117.000000, 0.000000)">
                        <g id="history" transform="translate(25.000000, 10.000000)">
                            <path d="M23,0 C22.2557344,0 21.6523437,0.603390625 21.6523437,1.34765625 C21.6523437,2.09192187 22.2557344,2.6953125 23,2.6953125 C34.1960586,2.6953125 43.3046875,11.8039414 43.3046875,23 C43.3046875,34.1960586 34.1960586,43.3046875 23,43.3046875 C11.8039414,43.3046875 2.6953125,34.1960586 2.6953125,23 C2.6953125,17.5773008 4.97464844,12.3416562 8.89605859,8.53192187 L8.89605859,10.8710937 C8.89605859,11.6153594 9.49944922,12.21875 10.2437148,12.21875 C10.9879805,12.21875 11.5898437,11.6153594 11.5898437,10.8710937 L11.5898437,5.48046875 C11.5898437,4.73620312 10.9879805,4.1328125 10.2437148,4.1328125 L4.80664062,4.1328125 C4.062375,4.1328125 3.45898437,4.73620312 3.45898437,5.48046875 C3.45898437,6.22473437 4.062375,6.81914062 4.80664062,6.81914062 L6.78428125,6.81914062 C2.4265,11.1695547 0,16.9875664 0,23 C0,35.6446094 10.3508086,46 23,46 C35.6446094,46 46,35.6491914 46,23 C46,10.3553906 35.6491914,0 23,0 Z" id="Shape"></path>
                            <path d="M23,8 C14.7295455,8 8,14.7317273 8,23 C8,31.271 14.7322727,38 23,38 C31.2704545,38 38,31.2682727 38,23 C38,14.729 31.2677273,8 23,8 Z M32.5844545,30.656 L31.6781818,29.7496364 C31.1457273,29.2170909 30.2822727,29.2170909 29.7497273,29.7496364 C29.2171818,30.2821818 29.2171818,31.1455455 29.7497273,31.6780909 L30.6560909,32.5844545 C28.8901818,33.9978182 26.7272727,34.934 24.3636364,35.1965455 L24.3636364,33.9090909 C24.3636364,33.156 23.7530909,32.5454545 23,32.5454545 C22.2469091,32.5454545 21.6363636,33.156 21.6363636,33.9090909 L21.6363636,35.1965455 C19.2727273,34.934 17.1098182,33.9978182 15.344,32.5844545 L16.2503636,31.6780909 C16.7829091,31.1455455 16.7829091,30.2821818 16.2503636,29.7496364 C15.7179091,29.2170909 14.8544545,29.2170909 14.3219091,29.7496364 L13.4155455,30.656 C12.0021818,28.8901818 11.0659091,26.7272727 10.8034545,24.3636364 L12.0909091,24.3636364 C12.844,24.3636364 13.4545455,23.7530909 13.4545455,23 C13.4545455,22.2469091 12.844,21.6363636 12.0909091,21.6363636 L10.8034545,21.6363636 C11.066,19.2727273 12.0021818,17.1098182 13.4155455,15.344 L14.3219091,16.2503636 C14.8543636,16.7829091 15.7179091,16.7829091 16.2503636,16.2503636 C16.7829091,15.7178182 16.7829091,14.8544545 16.2503636,14.3219091 L15.344,13.4155455 C17.1098182,12.0021818 19.2727273,11.066 21.6363636,10.8034545 L21.6363636,12.0909091 C21.6363636,12.844 22.2469091,13.4545455 23,13.4545455 C23.7530909,13.4545455 24.3636364,12.844 24.3636364,12.0909091 L24.3636364,10.8034545 C26.7272727,11.066 28.8901818,12.0021818 30.656,13.4155455 L29.7496364,14.3219091 C29.2170909,14.8544545 29.2170909,15.7178182 29.7496364,16.2503636 C30.2820909,16.7829091 31.1456364,16.7829091 31.6780909,16.2503636 L32.5843636,15.344 C33.9978182,17.1098182 34.9340909,19.2727273 35.1965455,21.6363636 L33.9090909,21.6363636 C33.156,21.6363636 32.5454545,22.2469091 32.5454545,23 C32.5454545,23.7530909 33.156,24.3545455 33.9090909,24.3545455 L35.1965455,24.3545455 C34.934,26.7181818 33.9978182,28.8901818 32.5844545,30.656 Z" id="Shape"></path>
                            <path d="M26.4359941,24.7140377 L24.1236366,22.4017705 L24.1236366,17.5447089 C24.1236366,16.796649 23.5171699,16.1901823 22.76911,16.1901823 C22.0210501,16.1901823 21.4145833,16.796649 21.4145833,17.5447089 L21.4145833,22.9628154 C21.4145833,23.3220359 21.5573504,23.6665371 21.8113693,23.920556 L24.5204226,26.6296093 C25.0493201,27.1585971 25.9070966,27.1585971 26.4359941,26.6296093 C26.9649819,26.1006215 26.9649819,25.2430255 26.4359941,24.7140377 Z" id="Shape"></path>
                        </g>
                    </g>
                </g>
            </g>
        </g>
    </g>
</svg>
