
<svg width="30px" height="30px" viewBox="0 0 30 30" version="1.1" xmlns="http://www.w3.org/2000/svg" xmlns:xlink="http://www.w3.org/1999/xlink">
    <g id="Page-1" stroke="none" stroke-width="1" fill="none" fill-rule="evenodd">
        <g id="Dashboard---Alert-Copy" transform="translate(-952.000000, -470.000000)" fill-rule="nonzero" fill="#92D162">
            <g id="Group-2" transform="translate(952.000000, 461.000000)">
                <g id="success-(1)" transform="translate(0.000000, 9.000000)">
                    <path d="M15,0 C6.72923077,0 0,6.72865385 0,15 C0,23.2713462 6.72923077,30 15,30 C23.2707692,30 30,23.2713462 30,15 C30,6.72865385 23.2707692,0 15,0 Z M15,28.8461538 C7.36557692,28.8461538 1.15384615,22.6344231 1.15384615,15 C1.15384615,7.36557692 7.36557692,1.15384615 15,1.15384615 C22.6344231,1.15384615 28.8461538,7.36557692 28.8461538,15 C28.8461538,22.6344231 22.6344231,28.8461538 15,28.8461538 Z" id="Shape"></path>
                    <path d="M22.0007576,9.20188007 L13.2187476,19.5756338 L7.92805652,15.1315393 C7.68234995,14.9245442 7.32178984,14.9671432 7.12522458,15.2251371 C6.92808792,15.4843309 6.96808666,15.861722 7.21436464,16.0687171 L12.928471,20.8686031 C13.0336105,20.956801 13.1598923,21 13.2856026,21 C13.4433119,21 13.6004499,20.9316016 13.7130178,20.7984048 L22.8555879,9.99866115 C23.0652956,9.75146702 23.0441534,9.37167604 22.8081608,9.15208125 C22.5715968,8.93128649 22.2110367,8.95348596 22.0007576,9.20188007 Z" id="Shape"></path>
                </g>
            </g>
        </g>
    </g>
</svg>
