<?xml version="1.0" encoding="utf-8"?>
<!-- Generator: Adobe Illustrator 21.0.0, SVG Export Plug-In . SVG Version: 6.00 Build 0)  -->
<svg version="1.1" xmlns="http://www.w3.org/2000/svg" xmlns:xlink="http://www.w3.org/1999/xlink" x="0px" y="0px"
	 viewBox="0 0 34.8 35.8" style="enable-background:new 0 0 34.8 35.8;" xml:space="preserve">
<style type="text/css">
	.st0{display:none;}
	.st1{display:inline;}
	.st2{fill:#FEFEFE;}
	.st3{fill:#8999A6;}
	.st4{fill:#8899A6;}
	.st5{display:inline;fill:#FFFFFF;}
</style>
<g id="Layer_1">
	<g class="st0">
		<g class="st1">
			<path class="st2" d="M0.2,18.2c0-5.8,0-11.5,0-17.3c0-0.6,0.1-0.7,0.7-0.7c11.2,0,22.4,0,33.6,0c0.6,0,0.7,0.1,0.7,0.7
				c0,11.5,0,23,0,34.6c0,0.6-0.1,0.7-0.7,0.7c-11.2,0-22.4,0-33.6,0c-0.6,0-0.7-0.1-0.7-0.7C0.2,29.8,0.2,24,0.2,18.2z M20.6,11.5
				c0-5.4-4.3-9.7-9.6-9.8c-5.5,0-9.8,4.3-9.8,9.7c0,5.4,4.3,9.7,9.6,9.8C16.2,21.1,20.6,16.9,20.6,11.5z"/>
			<path class="st3" d="M20.6,11.5c0,5.4-4.4,9.7-9.8,9.7c-5.3,0-9.6-4.4-9.6-9.8c0-5.4,4.4-9.7,9.8-9.7
				C16.3,1.7,20.6,6.1,20.6,11.5z"/>
		</g>
	</g>
	<circle class="st4" cx="10.7" cy="11.6" r="10"/>
</g>
<g id="Layer_2" class="st0">
	<rect class="st5" width="34.8" height="35.8"/>
	<circle class="st5" cx="5.9" cy="5.9" r="5.7"/>
</g>
</svg>
