<?xml version="1.0" encoding="utf-8"?>
<!-- Generator: Adobe Illustrator 21.0.0, SVG Export Plug-In . SVG Version: 6.00 Build 0)  -->
<svg version="1.1" id="Layer_1" xmlns="http://www.w3.org/2000/svg" xmlns:xlink="http://www.w3.org/1999/xlink" x="0px" y="0px"
	 viewBox="0 0 129.4 123" style="enable-background:new 0 0 129.4 123;" xml:space="preserve">
<style type="text/css">
	.st0{fill:#FFFFFF;}
</style>
<title>Icons</title>
<path class="st0" d="M104.7,123l-40-21l-40,21l7.7-44.5L0,47l44.7-6.5L64.7,0l20,40.5l44.7,6.5L97,78.5L104.7,123z M16.2,51.8
	l24.3,23.6l-5.8,33.4l30-15.8l30,15.8l-5.7-33.4l24.3-23.6l-33.5-4.9l-15-30.4l-15,30.4L16.2,51.8z"/>
<path class="st0" d="M112.1,17.2h-7v-6.7c0-1-0.8-1.9-1.8-1.9c0,0,0,0,0,0h-4.6c-1,0.1-1.8,0.9-1.8,1.9v6.8h-6.9
	c-1.1,0.1-1.9,0.9-1.9,2v4.6c0.1,1,0.9,1.7,1.9,1.7h6.9v7c0,1,0.8,1.7,1.8,1.7c0,0,0,0,0.1,0h4.6c0.9,0.1,1.7-0.7,1.8-1.6
	c0,0,0-0.1,0-0.1v-7h7c1,0,1.8-0.7,1.8-1.7c0,0,0,0,0,0v-4.6C113.9,18.2,113.1,17.4,112.1,17.2"/>
</svg>
