<?xml version="1.0" encoding="utf-8"?>
<!-- Generator: Adobe Illustrator 21.0.0, SVG Export Plug-In . SVG Version: 6.00 Build 0)  -->
<svg version="1.1" id="Layer_1" xmlns="http://www.w3.org/2000/svg" xmlns:xlink="http://www.w3.org/1999/xlink" x="0px" y="0px"
	 viewBox="0 0 131.6 135.3" style="enable-background:new 0 0 131.6 135.3;" xml:space="preserve">
<style type="text/css">
	.st0{fill:#FFFFFF;}
</style>
<title>Icons</title>
<path class="st0" d="M115.3,77.1V32c0-9.9-8-17.8-17.9-17.9H96V9.1c-0.2-5-4.4-8.9-9.4-8.8c-4.8,0.2-8.6,4-8.8,8.8v5.1H37.5V9.1
	c0-5-4.1-9.1-9.1-9.1c-5,0-9.1,4.1-9.1,9.1v5.1h-1.5C8,14.2,0,22.1,0,32v72.5c0,9.9,8,17.8,17.9,17.9h57.4
	c9.9,14,29.3,17.2,43.2,7.3c8.1-5.8,13-15.2,13-25.2C131.7,93,125.4,82.5,115.3,77.1 M100.8,129.6c-13.8,0-25-11.2-25-25
	c0-13.8,11.2-25,25-25c13.7,0,24.9,11.1,25,24.9C125.8,118.3,114.7,129.5,100.8,129.6C100.8,129.6,100.8,129.6,100.8,129.6 M28.4,6
	c1.7,0,3.1,1.3,3.1,3v15.9c0,1.7-1.4,3.1-3.1,3.1c-1.7,0.1-3.1-1.2-3.1-2.9c0-0.1,0-0.2,0-0.2V9.1C25.4,7.4,26.8,6.1,28.4,6
	 M87.1,5.9c1.7,0,3.1,1.3,3.1,3v15.9c0,1.7-1.4,3.1-3.1,3.1c-1.7,0-3.1-1.3-3.1-3c0-0.1,0-0.1,0-0.2V9.1C83.9,7.4,85.3,6,87.1,5.9
	 M109.4,74.7c-2.8-0.8-5.7-1.2-8.6-1.2c-4.5,0-9,1-13.1,3V66.4h21.7V74.7L109.4,74.7z M81.7,60.3h-21V41.1h21V60.3z M81.7,66.3v13.8
	c-3,2.3-5.4,5.1-7.3,8.3H60.7V66.2L81.7,66.3L81.7,66.3z M54.8,60.3h-21V41.1h21L54.8,60.3L54.8,60.3z M54.8,88.3h-21v-22h21
	L54.8,88.3L54.8,88.3z M87.7,41.1h21.7v19.2H87.6L87.7,41.1L87.7,41.1z M27.8,60.3H6.1V41.1h21.7V60.3z M6.1,66.3h21.7v22H6.1
	L6.1,66.3L6.1,66.3z M6.1,94.4h21.7v22H18c-6.6,0-11.9-5.3-11.9-11.9V94.4L6.1,94.4z M33.7,94.4h21v22h-21L33.7,94.4L33.7,94.4z
	 M60.7,94.4h10.9c-2.6,7.1-2.4,15,0.6,22H60.7L60.7,94.4L60.7,94.4z"/>
<path class="st0" d="M99.6,105.4h-12c-1.4,0.2-2.4,1.4-2.2,2.8c0.1,1.1,1,2,2.2,2.2h14.5c1.4,0,2.5-1.1,2.5-2.5V88.6
	c-0.1-1.4-1.3-2.5-2.7-2.4c-1.3,0.1-2.3,1.1-2.4,2.4L99.6,105.4L99.6,105.4z"/>
</svg>
