<?xml version="1.0" encoding="utf-8"?>
<!-- Generator: Adobe Illustrator 21.0.0, SVG Export Plug-In . SVG Version: 6.00 Build 0)  -->
<svg version="1.1" id="Layer_1" xmlns="http://www.w3.org/2000/svg" xmlns:xlink="http://www.w3.org/1999/xlink" x="0px" y="0px"
	 viewBox="0 0 130.9 161.9" style="enable-background:new 0 0 130.9 161.9;" xml:space="preserve">
<style type="text/css">
	.header-icon-st0{fill:#abb3b7;}
</style>
<title>Icons</title>
<path class="header-icon-st0" d="M125.7,127c-2.5,0-4.7,1.8-5.1,4.2l-11.4-0.1l-10.7-10.7v-17.3c4.3-2,8.4-4.2,12.5-6.7l10.1,9.2
	c-0.4,0.8-0.6,1.6-0.6,2.4c0,2.9,2.3,5.3,5.1,5.3s5.3-2.3,5.3-5.1s-2.3-5.3-5.1-5.3c-1.3,0-2.5,0.4-3.5,1.3l-9.6-8.9
	c5.8-3.8,11.3-8,16.4-12.7c0.9-0.8,0.9-2.2,0-3.1c0,0,0,0,0,0c-5.1-4.7-10.7-9-16.6-12.7l9.8-8.9c2.2,1.8,5.4,1.6,7.2-0.6
	c1.8-2.2,1.6-5.4-0.6-7.2c-2.2-1.8-5.4-1.6-7.2,0.6c-0.8,0.9-1.2,2.1-1.2,3.4c0,0.9,0.2,1.7,0.6,2.4l-10.1,9
	c-4-2.5-8.2-4.7-12.5-6.6V41.5l10.7-10.7l11.4-0.1c0.5,2.8,3.1,4.7,5.9,4.3s4.7-3.1,4.3-5.9c-0.4-2.5-2.6-4.3-5.1-4.3
	c-2.5,0-4.6,1.8-5.1,4.2L108.8,29c-0.2,0-0.5,0.1-0.6,0.3L96.9,40.5c-0.2,0.2-0.2,0.4-0.2,0.6v17c-3.6-1.5-7.2-2.9-10.9-4V38.1
	l15.5-15.6c0.2-0.2,0.3-0.4,0.3-0.6V10.3c2.8-0.5,4.7-3.1,4.3-5.9c-0.5-2.8-3.1-4.7-5.9-4.3c-2.5,0.4-4.3,2.6-4.4,5.1
	c0,2.5,1.8,4.7,4.2,5.1v11L84,36.9c-0.2,0.2-0.3,0.4-0.3,0.6v15.9c-3.6-0.9-7.3-1.6-11-2.1V32l11.2-11.2c0.8,0.4,1.7,0.6,2.6,0.6
	c2.8,0,5.1-2.3,5.1-5.1s-2.3-5.1-5.1-5.1s-5.1,2.3-5.1,5.1l0,0c0,1.2,0.4,2.3,1.1,3.2L71.1,30.9c-0.2,0.2-0.2,0.4-0.2,0.6v19.7
	c-1.8-0.1-3.6-0.3-5.4-0.3s-3.6,0.1-5.4,0.3V31.6c0-0.2-0.1-0.5-0.2-0.6L48.5,19.7c0.8-0.9,1.2-2,1.2-3.2c0-2.8-2.3-5.1-5.1-5.1
	c-2.8,0-5.1,2.3-5.1,5.1c0,2.8,2.3,5.1,5.1,5.1c0.9,0,1.8-0.2,2.6-0.6l11.2,11.2v19.4c-3.7,0.4-7.4,1.1-11.1,2.1V37.7
	c0-0.2-0.1-0.5-0.3-0.6L31.1,21.5V10.3c2.8-0.5,4.7-3.1,4.3-5.9c-0.5-2.8-3.1-4.7-5.9-4.3c-2.5,0.4-4.3,2.6-4.4,5.1
	c0,2.5,1.8,4.7,4.2,5.1v11.4c0,0.2,0.1,0.5,0.3,0.6l15.5,15.5V54c-3.7,1.1-7.4,2.4-10.9,4V41.1c0-0.2-0.1-0.5-0.2-0.6L22.8,29.3
	c-0.2-0.2-0.4-0.3-0.6-0.3l-11.8-0.1c-0.5-2.8-3.1-4.7-5.9-4.3c-2.8,0.5-4.7,3.1-4.3,5.9c0.4,2.5,2.6,4.3,5.1,4.4
	c2.5,0,4.7-1.8,5.1-4.2l11.4,0.1l10.7,10.7v17.4c-4.3,2-8.5,4.2-12.5,6.7L9.8,56.2c0.4-0.8,0.6-1.6,0.6-2.4c0.1-2.9-2.2-5.3-5.1-5.3
	c-2.9-0.1-5.3,2.2-5.3,5.1c-0.1,2.9,2.2,5.3,5.1,5.3c1.3,0,2.6-0.4,3.5-1.3l9.8,8.9c-5.8,3.8-11.4,8-16.6,12.7C1,80,1,81.4,1.8,82.2
	c0,0,0,0,0,0c5.1,4.7,10.6,9,16.4,12.7l-9.6,8.9c-2.2-1.8-5.4-1.6-7.2,0.6c-1.8,2.2-1.6,5.4,0.6,7.2c2.2,1.8,5.4,1.6,7.2-0.6
	c0.8-0.9,1.2-2.1,1.2-3.3c0-0.9-0.2-1.7-0.6-2.4L20,96c4,2.5,8.2,4.7,12.5,6.7v17.2l-10.7,10.7l-11.4,0.1c-0.5-2.8-3.1-4.7-5.9-4.3
	c-2.8,0.5-4.7,3.1-4.3,5.9c0.4,2.5,2.6,4.3,5.1,4.4c2.5,0,4.7-1.8,5.1-4.2l11.8-0.1c0.2,0,0.5-0.1,0.6-0.3L34,120.9
	c0.2-0.2,0.2-0.4,0.2-0.6V104c3.6,1.5,7.2,2.9,10.9,4v15.9l-15.5,15.6c-0.2,0.2-0.3,0.4-0.3,0.6v11.4c-2.8,0.5-4.7,3.1-4.3,5.9
	c0.5,2.8,3.1,4.7,5.9,4.3c2.5-0.4,4.4-2.6,4.4-5.1c0-2.5-1.8-4.7-4.2-5.1v-11.1l15.6-15.6c0.2-0.2,0.3-0.4,0.3-0.6v-15.8
	c3.6,0.9,7.3,1.6,11,2v19.4l-11.2,11.2c-0.8-0.4-1.7-0.6-2.6-0.6c-2.8,0-5.1,2.3-5.1,5.1s2.3,5.1,5.1,5.1s5.1-2.3,5.1-5.1l0,0
	c0-1.2-0.4-2.3-1.2-3.2l11.3-11.3c0.2-0.2,0.3-0.4,0.3-0.6v-19.8c1.8,0.1,3.6,0.2,5.4,0.2s3.6-0.1,5.4-0.2v19.7
	c0,0.2,0.1,0.5,0.3,0.6l11.3,11.3c-0.8,0.9-1.2,2-1.1,3.2c0,2.8,2.3,5.1,5.1,5.1s5.1-2.3,5.1-5.1s-2.3-5.1-5.1-5.1l0,0
	c-0.9,0-1.8,0.2-2.6,0.6l-11.2-11.2v-19.3c3.7-0.4,7.4-1.1,11-2v15.8c0,0.2,0.1,0.5,0.3,0.6l15.6,15.6v11.1
	c-2.8,0.5-4.7,3.1-4.3,5.9c0.5,2.8,3.1,4.7,5.9,4.3c2.5-0.4,4.4-2.6,4.4-5.1c0-2.5-1.8-4.7-4.2-5.1v-11.5c0-0.2-0.1-0.5-0.3-0.6
	l-15-15.5v-16c3.7-1.1,7.4-2.4,10.9-4v16.9c0,0.2,0.1,0.5,0.3,0.6l11.2,11.2c0.2,0.2,0.4,0.3,0.6,0.3l11.8,0.1
	c0.5,2.5,2.7,4.2,5.3,4.2c2.8,0,5.1-2.3,5.1-5.1C130.9,129.3,128.6,127,125.7,127 M65.3,105.1C52,105.1,41.2,94.3,41.2,81
	c0-13.3,10.8-24.1,24.1-24.1c13.3,0,24.1,10.8,24.1,24.1C89.4,94.3,78.6,105.1,65.3,105.1"/>
<path class="header-icon-st0" d="M65.3,63.1c-9.9,0-17.9,8-17.9,17.9s8,17.9,17.9,17.9s17.9-8,17.9-17.9c0,0,0,0,0,0
	C83.2,71.1,75.2,63.1,65.3,63.1C65.4,63.1,65.3,63.1,65.3,63.1 M65.3,89.7c-4.8,0-8.7-3.9-8.7-8.7s3.9-8.7,8.7-8.7S74,76.1,74,81
	C74.1,85.8,70.2,89.7,65.3,89.7C65.3,89.7,65.3,89.7,65.3,89.7"/>
</svg>
