<?xml version="1.0" encoding="utf-8"?>
<!-- Generator: Adobe Illustrator 21.0.0, SVG Export Plug-In . SVG Version: 6.00 Build 0)  -->
<svg version="1.1" id="Layer_1" xmlns="http://www.w3.org/2000/svg" xmlns:xlink="http://www.w3.org/1999/xlink" x="0px" y="0px"
	 viewBox="0 0 146.6 125.4" style="enable-background:new 0 0 146.6 125.4;" xml:space="preserve">
<style type="text/css">
	.header-icon-st0{fill:#abb3b7;}
</style>
<title>Icons</title>
<path class="header-icon-st0" d="M111.6,53c0.4,0,0.8-0.1,1.1-0.3c0.9-0.6,1.2-1.8,0.6-2.7l-8.3-12.8c6.6-1.6,11.2-7.4,11.2-14.2v-8.4
	c0-8.1-6.5-14.6-14.6-14.6H47.5c-8.1,0-14.6,6.5-14.6,14.6V23c0,6.7,4.6,12.6,11.2,14.2L35.8,50c-0.6,0.9-0.3,2.1,0.6,2.7
	c0.3,0.2,0.7,0.3,1.1,0.3c0.7,0,1.3-0.3,1.7-0.9l9.4-14.6h24.3V51c0,1.1,0.9,2,2,2c1.1,0,2-0.9,2-2V37.5h23.6l9.4,14.6
	C110.3,52.7,110.9,53,111.6,53 M58,24.8c0,0.6-0.4,1-1,1H44.9c-0.6,0-1-0.4-1-1V12.7c0-0.6,0.4-1,1-1H57c0.3,0,0.5,0.1,0.7,0.3
	c0.2,0.2,0.3,0.4,0.3,0.7L58,24.8L58,24.8z M83.2,26c-0.2,0.3-0.5,0.5-0.9,0.5H66.8c-0.4,0-0.7-0.2-0.9-0.5c-0.2-0.3-0.2-0.7,0-1
	l7.8-13.4c0.3-0.5,1-0.7,1.5-0.4c0.1,0.1,0.3,0.2,0.4,0.4L83.2,25C83.3,25.3,83.3,25.6,83.2,26 M98.2,26.5c-3.9,0-7-3.2-7-7
	c0-3.9,3.2-7,7-7c1.9,0,3.7,0.8,5,2.1c1.4,1.3,2.1,3.1,2.1,5C105.2,23.3,102,26.4,98.2,26.5"/>
<path class="header-icon-st0" d="M31.5,62.4c7.8,0,14.1,6.3,14.1,14.1s-6.3,14.1-14.1,14.1s-14.1-6.3-14.1-14.1S23.7,62.4,31.5,62.4L31.5,62.4"
	/>
<path class="header-icon-st0" d="M73.4,90.3L73.4,90.3c7.8,0,14.1-6.3,14.1-14.1s-6.3-14.1-14.1-14.1s-14.1,6.3-14.1,14.1c0,0,0,0,0,0
	c-0.1,7.7,6.2,14,13.9,14.1C73.3,90.3,73.4,90.3,73.4,90.3"/>
<path class="header-icon-st0" d="M49.8,99.8C44.5,96,38,93.9,31.5,93.9C14.1,93.9,0,108,0,125.4h38.4C38.3,115.6,42.5,106.2,49.8,99.8"/>
<path class="header-icon-st0" d="M115.4,62.4c7.8,0,14.1,6.3,14.1,14.1s-6.3,14.1-14.1,14.1c-7.8,0-14.1-6.3-14.1-14.1S107.6,62.4,115.4,62.4
	C115.4,62.4,115.4,62.4,115.4,62.4"/>
<path class="header-icon-st0" d="M115.4,93.9c-6.6,0-13,2.1-18.4,5.9c7.2,6.6,11.2,15.9,11.1,25.6h38.4c0.3-17.1-13.4-31.2-30.5-31.5
	C115.8,93.9,115.6,93.9,115.4,93.9"/>
<path class="header-icon-st0" d="M73.4,93.9L73.4,93.9C56.1,93.9,42,108,42,125.3h62.6c0.3-17.1-13.4-31.2-30.5-31.5
	C73.9,93.9,73.6,93.9,73.4,93.9"/>
</svg>
