<?xml version="1.0" encoding="utf-8"?>
<!-- Generator: Adobe Illustrator 21.0.0, SVG Export Plug-In . SVG Version: 6.00 Build 0)  -->
<svg version="1.1" id="Layer_1" xmlns="http://www.w3.org/2000/svg" xmlns:xlink="http://www.w3.org/1999/xlink" x="0px" y="0px"
	 viewBox="0 0 90 111.3" style="enable-background:new 0 0 90 111.3;" xml:space="preserve">
<style type="text/css">
	.header-icon-st0{fill:#abb3b7;}
</style>
<title>Icons</title>
<path class="header-icon-st0" d="M86.9,111.3H0L0.1,8.9h3.2v99.2h82.2L86.9,111.3z"/>
<path class="header-icon-st0" d="M34.7,44.1c7.9,0,14.2-6.4,14.2-14.2s-6.4-14.2-14.2-14.2c-7.9,0-14.2,6.4-14.2,14.2l0,0
	C20.5,37.7,26.8,44.1,34.7,44.1z M30.3,20.3h2.8v11.2h11.2v2.7h-14L30.3,20.3L30.3,20.3z"/>
<polygon class="header-icon-st0" points="3.3,8.9 9.1,8.8 9.1,11.9 3,11.9 "/>
<polyline class="header-icon-st0" points="85.1,108.1 85.1,93.7 88.2,93.7 88.1,111.3 86.9,111.3 "/>
<path class="header-icon-st0" d="M21.9,0C13.2,0,6.1,7.1,6.1,15.9l0,0v89.5h71.1L90,92.5V0H21.9z M70.6,24.3h2.9v18.2h-2.9V24.3z M65.5,15.9h2.9
	v26.5h-2.9V15.9z M60.4,24.9h2.9v17.6h-2.9V24.9z M54.8,37.2h2.9v5.3h-2.9V37.2z M34.7,12.5c9.6,0,17.3,7.8,17.3,17.3
	s-7.8,17.3-17.3,17.3s-17.3-7.8-17.3-17.3C17.4,20.3,25.1,12.5,34.7,12.5z M25.6,71.3l-6.3-6.1l2.4-2.6l3.6,3.5l8.6-10.4l2.6,2.3
	L25.6,71.3z M76.8,59.7H42.4v-3.5h34.4L76.8,59.7L76.8,59.7z M76.8,65.6H42.4v-3.5h34.4L76.8,65.6L76.8,65.6z M76.8,71.6H42.4V68
	h34.4L76.8,71.6L76.8,71.6z M25.6,96l-6.3-6.1l2.4-2.6l3.6,3.5l8.6-10.5l2.6,2.3L25.6,96z M76.8,84.5H42.4v-3.5h34.4L76.8,84.5
	L76.8,84.5z M76.8,90.4H42.4v-3.5h34.4L76.8,90.4L76.8,90.4z M76.8,96.3H42.4v-3.5h34.4L76.8,96.3L76.8,96.3z M78.5,42.5h-2.9v-9.6
	h2.9V42.5z"/>
</svg>
