<?xml version="1.0" encoding="utf-8"?>
<!-- Generator: Adobe Illustrator 21.0.0, SVG Export Plug-In . SVG Version: 6.00 Build 0)  -->
<svg version="1.1" id="Layer_1" xmlns="http://www.w3.org/2000/svg" xmlns:xlink="http://www.w3.org/1999/xlink" x="0px" y="0px"
	 viewBox="0 0 193.7 138.4" style="enable-background:new 0 0 193.7 138.4;" xml:space="preserve">
 <style type="text/css">
    .header-icon-st0{fill:#abb3b7;}
 </style>
<title>Icons</title>
<path class="header-icon-st0" d="M160.5,71.9H83c-1.5,0-2.8,1.2-2.8,2.8c0,0,0,0,0,0v49.8c0,1.5,1.2,2.8,2.8,2.8c0,0,0,0,0,0h77.5c1.5,0,2.8-1.2,2.8-2.8
	c0,0,0,0,0,0V74.7C163.2,73.2,162,71.9,160.5,71.9C160.5,71.9,160.5,71.9,160.5,71.9z"/>
<path class="header-icon-st0" d="M155,130c0.7,5.3,5.6,9,10.9,8.2c4.3-0.6,7.6-4,8.2-8.2H155z"/>
<path class="header-icon-st0" d="M111.9,130c-0.8,5.3-5.7,8.9-11,8.2c-4.2-0.6-7.5-3.9-8.2-8.2H111.9z"/>
<path class="header-icon-st0" d="M138.3,66.4V39L71.9,5.8L5.5,39v96.5c-0.1,1.5-1.4,2.7-2.9,2.6c-1.4-0.1-2.5-1.2-2.6-2.6V37.3l0,0c0-1,0.6-2,1.5-2.5
	L70.7,0.3c0.8-0.4,1.7-0.4,2.5,0l68.9,34.5c1.1,0.4,1.8,1.4,1.8,2.6v29.1c-0.1,1.5-1.4,2.7-2.9,2.6
	C139.5,68.9,138.4,67.8,138.3,66.4z"/>
<path class="header-icon-st0" d="M14.8,103.7h23.1c1.3,0,2.3,1,2.3,2.3v23.1c0,1.3-1,2.3-2.3,2.3H14.8c-1.3,0-2.3-1-2.3-2.3v-23
	C12.4,104.8,13.5,103.7,14.8,103.7z"/>
<path class="header-icon-st0" d="M45.2,103.7h23.1c1.3,0,2.3,1,2.3,2.3v23.1c0,1.3-1,2.3-2.3,2.3H45.2c-1.3,0-2.3-1-2.3-2.3v-23
	C42.9,104.8,43.9,103.7,45.2,103.7z"/>
<path class="header-icon-st0" d="M14.8,73.3h23.1c1.3,0,2.3,1,2.3,2.3v23.1c0,1.3-1,2.3-2.3,2.3H14.8c-1.3,0-2.3-1-2.3-2.3v-23
	C12.4,74.4,13.5,73.3,14.8,73.3z"/>
<path class="header-icon-st0" d="M183,83.7l9.6,7.9c0.6,0.5,1,1.3,1,2.1v30.8c0,1.5-1.2,2.8-2.7,2.8c0,0,0,0,0,0h-22.1c-1.5,0-2.8-1.2-2.8-2.8c0,0,0,0,0,0
	V85.8c0-1.5,1.2-2.8,2.8-2.8c0,0,0,0,0,0h12.4C181.9,83,182.5,83.2,183,83.7L183,83.7z M188.1,95l-7.9-6.5h-8.7v13.8h16.6L188.1,95
	L188.1,95z"/>
</svg>
