<?xml version="1.0" encoding="utf-8"?>
<!-- Generator: Adobe Illustrator 21.0.0, SVG Export Plug-In . SVG Version: 6.00 Build 0)  -->
<svg version="1.1" id="Layer_1" xmlns="http://www.w3.org/2000/svg" xmlns:xlink="http://www.w3.org/1999/xlink" x="0px" y="0px"
	 viewBox="0 0 154.5 130.1" style="enable-background:new 0 0 154.5 130.1;" xml:space="preserve">
<style type="text/css">
	.header-icon-st0{fill:#abb3b7;}
</style>
<title>Icons</title>
<path class="header-icon-st0" d="M154.4,125.5l-3.4-23.6c-1.2-8.3-7.3-15-15.5-16.9l-17.5-3.6c4.9-12.5,7.3-32.6,7.5-35.4c0.1-2,0.8-3.9-1.6-4.2
	c-2.7,0-7.7,4.7-8.6,6.2c-0.2-4-1-3.8-2-6.4c0.2-1.5,0.4-3.2,0.6-4.9h15.1c1.1,0.1,2-0.8,2.1-1.9c0-0.7-0.3-1.4-0.9-1.8l-14.2-10.5
	l-7.5-21c-0.3-1-1.4-1.5-2.4-1.3L90.6,4L74.8,0.1c-1-0.3-2.1,0.3-2.4,1.3l-7,20.7L50.7,32.9c-0.9,0.6-1.2,1.8-0.6,2.8
	c0.4,0.6,1.1,1,1.8,0.9H67c0.2,1.7,0.4,3.5,0.6,4.9c-1.2,2.2-1.8,4.7-2,7.2c-2.5-1.7-5.2-3.1-8-4.2C56.2,44,56,44.9,56,46.8
	c0,0.8,0.1,18.8,5.3,34.5L45.5,85c-8.2,1.9-14.3,8.6-15.5,16.9l-3.4,23.6c-0.3,2.2,1.2,4.3,3.5,4.6c0.2,0,0.4,0,0.5,0h119.8
	c2.2,0,4.1-1.8,4.1-4.1C154.5,125.9,154.5,125.7,154.4,125.5z M67.5,21.3l6.6-19.2l16,3.6c0.3,0.1,0.7,0.1,1,0l16-3.6l6.6,19.3
	L67.5,21.3L67.5,21.3z M116.2,72.3L90.1,93.6c0,0,6.7,6.3,5.4,13.3s-14.3,21-14.3,21c-0.6-12.1,2.5-24,8.9-34.2
	c-12.2-7.1-13.7-10-26.8-19.6c0,0,18.6,11.5,25.8,11.5C98.2,85.5,110.6,76.8,116.2,72.3l3-2.4C119.2,69.9,118.1,70.9,116.2,72.3
	L116.2,72.3z M109.9,41.5c-0.6,0.2-1.1,0.7-1.1,1.4c0,1.1,0.2,8.4-6.4,8.4s-7.7-2.6-8.7-4.2s-1.1-4.9-3.2-4.9s-2.1,3.4-3.2,4.9
	s-2.1,4.2-8.7,4.2s-6.4-7.3-6.4-8.4c0-0.6-0.5-1.2-1.1-1.4v-2.6c3.2-0.5,6.4-0.8,9.7-0.8c3.6,0,7,1.4,7.5,1.4h4.4
	c0.5,0,3.9-1.4,7.5-1.4c3.3,0,6.5,0.3,9.7,0.8C109.9,38.9,109.9,41.5,109.9,41.5z M26.1,26.2l-6.3-3.4c-0.2-0.1-0.4-0.1-0.5,0
	c-0.1,0.1-0.2,0.3-0.2,0.4v14.7c0,0.2,0.1,0.3,0.2,0.4c0.1,0,0.2,0.1,0.2,0.1c0.1,0,0.2,0,0.3-0.1l6.3-3.7c0.1-0.1,0.2-0.2,0.2-0.4
	v-7.6C26.3,26.5,26.2,26.3,26.1,26.2z M47,26.7H29c-0.1,0-0.2,0-0.2,0.1c0,0.1-0.1,0.1-0.1,0.2c0.1,1.5,0.4,2.9,0.8,4.3
	c-0.4,0.2-0.8,0.6-0.8,1.1c0,2.3,1.9,4.1,4.2,4.1c1.9,0,3.6-1.4,4-3.3h10c0.1,0,0.2-0.1,0.2-0.2v-6.1C47.2,26.8,47.1,26.7,47,26.7
	L47,26.7z M14.5,26.3c-0.1,0-0.2,0-0.3-0.1L13,25.6c-0.4-0.2-0.5-0.7-0.3-1s0.7-0.5,1-0.3l1.1,0.6c0.4,0.2,0.5,0.6,0.3,1
	c0,0,0,0,0,0C15.1,26.2,14.8,26.4,14.5,26.3L14.5,26.3z M11.4,24.7c-0.1,0-0.2,0-0.3-0.1l-1.4-0.7c-0.4-0.2-0.5-0.7-0.3-1
	s0.7-0.5,1-0.3l1.4,0.7c0.4,0.2,0.5,0.6,0.3,1c0,0,0,0,0,0C12,24.5,11.7,24.7,11.4,24.7L11.4,24.7z M8.1,22.9c-0.1,0-0.2,0-0.3-0.1
	l-1.5-0.7c-0.4-0.2-0.5-0.7-0.3-1s0.7-0.5,1-0.3l1.4,0.7c0.4,0.2,0.5,0.6,0.3,1c0,0,0,0,0,0C8.6,22.7,8.4,22.9,8.1,22.9L8.1,22.9z
	 M4.7,21.2c-0.1,0-0.2,0-0.3-0.1l-1.1-0.6c-0.4-0.2-0.5-0.7-0.3-1c0.2-0.4,0.7-0.5,1-0.3l0,0l1.1,0.6c0.4,0.2,0.5,0.6,0.3,0.9
	c0,0,0,0,0,0.1C5.3,21,5,21.1,4.7,21.2L4.7,21.2z M13.5,37.2c-0.3,0-0.6-0.1-0.7-0.4c-0.2-0.4,0-0.8,0.3-1l1.1-0.6
	c0.4-0.2,0.8-0.1,1,0.3c0.2,0.4,0.1,0.8-0.3,1l-1.1,0.6C13.7,37.2,13.6,37.2,13.5,37.2L13.5,37.2z M6.6,40.7c-0.3,0-0.6-0.1-0.7-0.4
	c-0.2-0.4,0-0.8,0.3-1l1.4-0.7c0.4-0.2,0.8-0.1,1,0.3c0.2,0.4,0.1,0.8-0.3,1l0,0l-1.4,0.7C6.8,40.7,6.7,40.7,6.6,40.7L6.6,40.7z
	 M10,38.9c-0.3,0-0.6-0.1-0.7-0.4c-0.2-0.4,0-0.8,0.3-1l1.4-0.7c0.4-0.2,0.8-0.1,1,0.3c0.2,0.4,0.1,0.8-0.3,1l0,0l-1.4,0.7
	C10.3,38.9,10.1,39,10,38.9L10,38.9z M3.5,42.3c-0.3,0-0.6-0.1-0.7-0.4c-0.2-0.4,0-0.8,0.3-1l1.1-0.6c0.4-0.2,0.8-0.1,1,0.3
	c0.2,0.4,0.1,0.8-0.3,1l0,0l-1.1,0.6C3.7,42.3,3.6,42.4,3.5,42.3L3.5,42.3z M14.5,31.5h-1.6c-0.4,0-0.7-0.3-0.7-0.7s0.3-0.7,0.7-0.7
	h1.6c0.4,0,0.7,0.3,0.7,0.7c0,0,0,0,0,0c0.1,0.3-0.1,0.7-0.4,0.7C14.7,31.5,14.6,31.5,14.5,31.5L14.5,31.5z M10.5,31.5H8.9
	c-0.4,0-0.7-0.3-0.7-0.7S8.5,30,8.9,30h1.6c0.3-0.2,0.9,0,1.1,0.4s0.1,0.8-0.2,1C11,31.5,10.7,31.5,10.5,31.5L10.5,31.5z M6.5,31.5
	H4.9c-0.4,0-0.7-0.3-0.7-0.7S4.5,30,4.9,30h1.6c0.3-0.2,0.9,0,1.1,0.4s0.1,0.8-0.2,1c-0.2,0.1-0.5,0.1-0.8,0.1L6.5,31.5z M2.4,31.5
	H0.7c-0.4,0-0.7-0.3-0.7-0.7S0.3,30,0.7,30h1.5c0.4,0,0.7,0.3,0.7,0.7c0,0,0,0,0,0c0.1,0.3-0.1,0.7-0.4,0.7c-0.1,0-0.2,0-0.3,0
	L2.4,31.5z M46,38.5H29.7c-7,0-8.8,10.8-8.9,11.2v21.4c0,4.3,3.4,7.8,7.7,7.9c0,0,0.1,0,0.1,0h11c4.3-0.1,7.7-3.6,7.7-7.9V39.9
	c0-0.7-0.6-1.3-1.3-1.4L46,38.5z M23.4,50.1v-0.3c0.3-1.6,2-8.7,6.3-8.7h15v9.6H23.4V50.1z M39.5,76.4h-11c-2.9-0.1-5.2-2.4-5.1-5.3
	c0,0,0,0,0,0v-8h21.3v8c0.1,2.9-2.2,5.3-5.1,5.4C39.6,76.5,39.5,76.5,39.5,76.4L39.5,76.4z"/>
</svg>
