<?xml version="1.0" encoding="utf-8"?>
<!-- Generator: Adobe Illustrator 21.0.0, SVG Export Plug-In . SVG Version: 6.00 Build 0)  -->
<svg version="1.1" id="Layer_1" xmlns="http://www.w3.org/2000/svg" xmlns:xlink="http://www.w3.org/1999/xlink" x="0px" y="0px"
	 viewBox="0 0 141.9 135.3" style="enable-background:new 0 0 141.9 135.3;" xml:space="preserve">
<style type="text/css">
	.header-icon-st0{fill:#abb3b7;}
</style>
<title>Icons</title>
<path class="header-icon-st0" d="M65.6,7.5C76.3,18.3,64,33,72.5,40.4c-2.8,2.1-5.2,4.2-8,6.2c-7.5-2.5-18.7,1.5-23.8,12.6
	c-5.3,11.7,0.2,29,13.2,29.9C49.4,74.6,54,79,66.5,74.6c6.8-2.4,9.1-6.1,9.9-12.3c13.3-8.7,25.2-15.1,38.3-24.1
	c3.5,27.4-18,79.6-55.6,93.1C4.1,151.2-3.3,90.9,1.1,61.3C5.3,33.5,38.9-19.6,65.6,7.5L65.6,7.5z M89,50.7c-1.4-2.2-2.9-4.4-4.4-6.6
	c-1.4-2-2.8-3.9-4.3-5.8c-4.7,3.5-9.1,6.9-12.9,10.2c1.4,1.7,2.8,3.5,4.1,5.4s2.6,3.8,3.7,5.7C79.4,56.9,84.1,54,89,50.7L89,50.7z
	 M69.3,56c-4.2-6.5-11.5-7.7-17.6-3.7c-15,10-9,28.9-1.4,33.2c-3.9-5.2-1.3-10.5,2.8-11.8C59.4,72,79.5,71.8,69.3,56L69.3,56
	L69.3,56z M111,37c47.6-33.5,37.2-48.4-10.5-14.9c-6.2,4.3-12.1,9-17.9,13.9c1.6,2,3.3,4.2,4.9,6.4s3,4.5,4.4,6.7
	C97.8,45.8,104.3,41.7,111,37L111,37z M82.1,95.6c5.2,0,9.4-4.2,9.4-9.4c0-5.2-4.2-9.4-9.4-9.4c-5.2,0-9.4,4.2-9.4,9.4
	C72.7,91.4,76.9,95.6,82.1,95.6C82.1,95.6,82.1,95.6,82.1,95.6L82.1,95.6z M21.6,76.2c5.2,0,9.4-4.2,9.4-9.4s-4.2-9.4-9.4-9.4
	s-9.4,4.2-9.4,9.4S16.4,76.2,21.6,76.2L21.6,76.2L21.6,76.2z M22.1,103.1c5.2,0,9.4-4.2,9.4-9.4c0-5.2-4.2-9.4-9.4-9.4
	c-5.2,0-9.4,4.2-9.4,9.4S16.9,103.1,22.1,103.1L22.1,103.1C22.1,103.1,22.1,103.1,22.1,103.1z M37.6,124.8c5.2,0,9.4-4.2,9.4-9.4
	c0-5.2-4.2-9.4-9.4-9.4c-5.2,0-9.4,4.2-9.4,9.4S32.4,124.8,37.6,124.8L37.6,124.8C37.6,124.8,37.6,124.8,37.6,124.8z M63.6,114.4
	c5.2,0,9.4-4.2,9.4-9.4c0-5.2-4.2-9.4-9.4-9.4c-5.2,0-9.4,4.2-9.4,9.4C54.2,110.2,58.4,114.4,63.6,114.4
	C63.6,114.4,63.6,114.4,63.6,114.4L63.6,114.4z M43.4,43.5c7.8,0,14.1-6.3,14.1-14.1c0-7.8-6.3-14.1-14.1-14.1
	c-7.8,0-14.1,6.3-14.1,14.1c0,0,0,0,0,0C29.3,37.2,35.6,43.5,43.4,43.5z"/>
</svg>
