<?xml version="1.0" encoding="utf-8"?>
<!-- Generator: Adobe Illustrator 21.0.0, SVG Export Plug-In . SVG Version: 6.00 Build 0)  -->
<svg version="1.1" id="Layer_1" xmlns="http://www.w3.org/2000/svg" xmlns:xlink="http://www.w3.org/1999/xlink" x="0px" y="0px"
	 viewBox="0 0 134.6 85.7" style="enable-background:new 0 0 134.6 85.7;" xml:space="preserve">
 <style type="text/css">
 	.header-icon-st0{fill:#abb3b7;}
 </style>
<title>Icons</title>
<path class="header-icon-st0" d="M112.7,23H112c-1.3,0-2.3-1-2.4-2.2c0-1.3,1-2.3,2.2-2.4C105.6,12.5,97.4,9,89.6,9c-2.7,0-5.3,0.3-7.9,1
	c-1.2,0.3-2.5-0.4-2.8-1.7c-0.3-1.2,0.4-2.5,1.7-2.8c2.8-0.7,5.6-1,8.5-1.1c-9.3-6.6-21.9-5.7-30.1,2.2c0.7,0.9,1.4,1.9,1.9,2.9
	c0.6,1.1,0.2,2.5-1,3.1c-1.1,0.6-2.5,0.2-3.1-1C53,4.3,44,1.5,36.7,5.3c-4.9,2.6-8,7.7-8,13.2c0,0.6,0,1.3,0.1,1.9
	c0.2,1.3-0.7,2.4-2,2.6c0,0,0,0,0,0h-0.3c-1.2,0-2.1-0.9-2.3-2c-0.1-0.8-0.2-1.7-0.2-2.5c0-0.3,0-0.6,0-1C10.4,17.9-0.4,29.3,0,42.9
	c0.4,13.4,11.3,24,24.7,24h13.5c-0.8-2.4-1.2-4.9-1.2-7.4c0-7.8,2.6-13.7,7.6-17.4c1.1-0.8,2.4-1.5,3.7-2.1c0.1,0,0.1-0.1,0.2-0.1
	l0.2-0.1c0.4-0.2,0.8-0.3,1.2-0.5c1.9-0.8,4.6-2.4,5.2-4.4c0.1-0.4,0.5-1.6-1.2-3.8c-0.7-1.1-0.5-2.5,0.6-3.2c1-0.7,2.3-0.5,3.1,0.4
	c2.6,3.4,2.5,6.3,1.9,8.1c-0.1,0.4-0.3,0.8-0.5,1.2c6-0.2,11.9,0.6,17.7,2.2c1.2,0.4,1.9,1.7,1.5,2.9c-0.4,1.2-1.7,1.9-2.9,1.5
	c-0.2,0-13.7-4.1-23.5-0.7c-0.6,0.3-1.1,0.4-1.4,0.6c-1.1,0.4-2.1,1-3,1.7c-3.8,2.8-5.7,7.4-5.7,13.7c0,8.8,5,12.7,9.2,14.5
	c8.4,3.6,21.1,1.7,28.2-4l0,0c0.5-0.4,0.9-0.8,1.3-1.2c5.1-4.9,9.9-8.7,14.9-10.7c0.1-0.1,5.8-2.7,5.9-7.4c0-1.3,1.1-2.3,2.3-2.2
	h0.1c1.3,0,2.3,1.1,2.2,2.4c-0.1,2.1-0.8,4.2-2,5.9c3.6,0.4,7,1.7,10,3.7c1.1,0.7,1.4,2.1,0.7,3.2c-0.7,1.1-2.1,1.4-3.2,0.7
	c-8.6-5.6-15.9-3.6-27.7,7.8c-0.2,0.2-0.5,0.4-0.8,0.7c1.7,7.8,8.8,13.2,16.8,12.7c5.7-0.4,11.8-4.4,12.4-14.1h-11.2
	c-1.3,0-2.3-1-2.3-2.3s1-2.3,2.3-2.3h11.8c3.9,0,7.8-1.1,11.2-3.1c4.7-2.8,6.5-10.8,3.8-17.4c-1.2-3-5.3-9.8-16.2-6.8
	c-3.1,0.9-6.2,1.6-9.3,2.1l0,0c-0.3,0.1-7.5,1.7-7.5,9.2c0,1.3-1,2.3-2.3,2.3S90,52.2,90,51l0,0c-0.1-3.1,1-6.1,2.9-8.6
	c-3.5,0-7-0.9-10-2.6c-3.1-1.9-5.1-5.1-5.7-8.6c-0.2-1.3,0.6-2.5,1.9-2.7s2.5,0.6,2.7,1.9c0.3,2.3,1.6,4.3,3.5,5.5
	c3.1,2,9.9,3.5,24.5-0.5c-1.8-1.5-3.4-3.2-4.8-5.1c-0.8-1-0.6-2.5,0.5-3.2s2.5-0.6,3.2,0.5c5,6.6,8.8,6.9,8.9,6.9l0,0
	c6.5,0.4,11.6,4,14.2,10.4c0.9,2.3,1.4,4.8,1.5,7.2c3.9-11.5-2.3-23.9-13.8-27.8C117.4,23.4,115.1,23,112.7,23z M81.1,51.7
	c1.2-0.5,2.5,0.1,3,1.2c0.5,1.1,0,2.4-1,2.9c-0.4,0.2-3.8,2.1-3,7c0.2,1.3-0.6,2.5-1.9,2.7c-1.3,0.2-2.5-0.6-2.7-1.9l0,0
	c-0.3-1.5-0.2-3.1,0.1-4.6c-0.9-0.6-8.2-5.5-14.7,0.8c1,1.7,1.5,3.6,1.6,5.5c0.1,1.3-0.9,2.3-2.2,2.4h-0.1c-1.2,0-2.3-1-2.3-2.2
	c-0.3-5.6-4.9-5.9-5.9-5.9c-1.3,0-2.3-1-2.3-2.3s1-2.3,2.3-2.3h0.1c1.9,0,3.8,0.6,5.5,1.5c7.1-7,15.7-4.6,20-1.8
	C78.6,53.5,79.8,52.4,81.1,51.7L81.1,51.7z M39.7,40.4c-0.4,1.2-1.7,1.9-2.9,1.5c0,0,0,0-0.1,0c-2.1-0.7-4-2.1-5.3-3.9
	c-4.7-0.2-8.9,2.6-10.5,7c2.4,1.7,4.1,4.1,4.9,6.9c0.4,1.2-0.2,2.5-1.4,3s-2.5-0.2-3-1.4c-0.9-2.6-2.3-4.3-4.1-5.2
	c-3.2-1.5-7,0.1-7,0.1c-1.2,0.5-2.5-0.1-3-1.2c-0.5-1.2,0.1-2.5,1.2-3l0,0c2.6-1,5.4-1.3,8.1-0.8c2-5.5,7.1-9.3,12.9-9.8
	c-0.3-1.9-0.3-3.8,0.1-5.7c0.3-1.3,1.5-2,2.8-1.7c1.3,0.3,2,1.5,1.7,2.8c-0.2,0.7-1.4,6.9,4,8.7C39.4,37.8,40.1,39.1,39.7,40.4
	C39.7,40.4,39.7,40.4,39.7,40.4L39.7,40.4z M96.5,21.8c-1,0.4-1.8,1.2-2.2,2.2c-0.3,1.1-0.2,2.3,0.4,3.3c0.6,1.2,0.1,2.5-1.1,3.1
	c0,0,0,0,0,0c-0.3,0.2-0.7,0.2-1,0.2c-0.9,0-1.7-0.5-2.1-1.3c-0.8-1.5-1.1-3.2-1-4.9c-13-5.4-27.8-4.2-39.8,3.3
	c0.6,1.5,0.8,3.1,0.6,4.6c-0.2,1.1-1.1,2-2.3,2h-0.3c-1.3-0.2-2.2-1.3-2-2.6c0.5-3.9-3.2-5.6-3.2-5.6c-1.2-0.5-1.7-1.9-1.2-3.1
	c0.5-1.2,1.9-1.7,3.1-1.2c1,0.5,1.9,1.1,2.7,1.9c5.2-3.4,22.1-12.5,44.1-3.7c1-1.1,2.2-2,3.6-2.6c1.2-0.5,2.6,0.1,3,1.3
	C98.3,20,97.7,21.4,96.5,21.8z"/>
</svg>
