<?xml version="1.0" encoding="utf-8"?>
<!-- Generator: Adobe Illustrator 21.0.0, SVG Export Plug-In . SVG Version: 6.00 Build 0)  -->
<svg version="1.1" id="Layer_1" xmlns="http://www.w3.org/2000/svg" xmlns:xlink="http://www.w3.org/1999/xlink" x="0px" y="0px"
	 viewBox="0 0 71.2 76.6" style="enable-background:new 0 0 71.2 76.6;" xml:space="preserve">
<style type="text/css">
	.st0{fill:#FFFFFF;}
</style>
<title>Icons</title>
<path class="st0" d="M34.4,68.6h-19c-4.1,0-7.5-3.3-7.5-7.5V15.4c0-4.1,3.3-7.5,7.5-7.5h19.3c2.2-0.3,3.7-2.3,3.4-4.5
	c-0.3-1.8-1.6-3.1-3.4-3.4H15.4C6.9,0,0,6.9,0,15.4v45.7c0,8.5,6.9,15.4,15.4,15.4h19c2.2,0.3,4.2-1.2,4.6-3.4s-1.2-4.2-3.4-4.6
	C35.2,68.6,34.8,68.6,34.4,68.6z"/>
<path class="st0" d="M70.1,35.5L56.8,22.3c-1.6-1.5-4-1.5-5.6,0c-1.5,1.6-1.5,4,0,5.6l6.5,6.5H19.9c-2.2-0.3-4.2,1.2-4.5,3.4
	s1.2,4.2,3.4,4.5c0.4,0.1,0.8,0.1,1.1,0h37.8l-6.5,6.5c-1.5,1.6-1.5,4,0,5.6c0.7,0.7,1.8,1.2,2.8,1.2c1.1,0,2.1-0.4,2.8-1.2
	l13.2-13.2c0.8-0.7,1.2-1.8,1.2-2.8C71.3,37.2,70.8,36.2,70.1,35.5z"/>
</svg>
