
<svg width="32px" height="32px" viewBox="0 0 32 32" version="1.1" xmlns="http://www.w3.org/2000/svg" xmlns:xlink="http://www.w3.org/1999/xlink">
    <g id="Page-1" stroke="none" stroke-width="1" fill="none" fill-rule="evenodd">
        <g id="Dashboard---Switch-View" transform="translate(-134.000000, -81.000000)" fill-rule="nonzero" fill="#FFFFFF">
            <g id="QuickP" transform="translate(83.000000, 69.000000)">
                <g id="engineer" transform="translate(51.000000, 12.000000)">
                    <path d="M30.376254,26.5392381 C27.195619,24.8525714 24.7559365,23.9067937 22.5840635,23.5441905 L22.8088254,23.2351746 C22.9154286,23.1285714 22.9686984,22.9686984 22.9154286,22.8088254 L22.416,20.8111746 C23.7368889,18.943873 24.5141587,16.6093968 24.5141587,14.3887619 L24.5141587,12.2570794 L25.0470476,12.2570794 L26.1128889,12.2570794 C26.4326349,12.2570794 26.6457778,12.0439365 26.6457778,11.7241905 C26.6457778,11.4044444 26.4326349,11.1913016 26.1128889,11.1913016 L25.58,11.1913016 L25.58,10.6584127 C25.58,6.44838095 22.8088254,2.87784127 18.6520635,1.70539683 L18.6520635,1.59873016 C18.6520635,0.746031746 17.9593016,0 17.0533333,0 L14.9216508,0 C14.0689524,0 13.3229206,0.692761905 13.3229206,1.59873016 L13.3229206,1.70533333 C9.16615873,2.87777778 6.39498413,6.44831746 6.39498413,10.6583492 L6.39498413,11.1912381 L5.86209524,11.1912381 C5.54234921,11.1912381 5.32920635,11.404381 5.32920635,11.724127 C5.32920635,12.043873 5.54234921,12.2570159 5.86209524,12.2570159 L6.92793651,12.2570159 L7.4608254,12.2570159 L7.4608254,14.3886984 C7.4608254,16.6093333 8.23809524,18.9438095 9.55898413,20.8111746 L9.05955556,22.8088254 C9.05955556,22.9154286 9.05955556,23.1285714 9.16615873,23.2351746 L9.39092063,23.5441905 C7.21911111,23.9068571 4.77936508,24.8525714 1.59873016,26.5392381 C0.586222222,27.0189206 0,28.0314286 0,29.1505397 L0,31.4420952 C0,31.7618413 0.213142857,31.9749841 0.532888889,31.9749841 L13.3229206,31.9749841 L13.5360635,31.9749841 L18.4389206,31.9749841 L18.6520635,31.9749841 L31.4420952,31.9749841 C31.7618413,31.9749841 31.9749841,31.7618413 31.9749841,31.4420952 L31.9749841,29.1505397 C31.9750476,28.0846984 31.3354921,27.0721905 30.376254,26.5392381 Z M15.6679365,26.0459683 L15.9905397,25.320127 L16.7870476,27.0725079 L17.308,28.2445714 L14.7085714,28.2445714 L15.6679365,26.0459683 Z M14.3034921,29.3104127 L17.6674921,29.3104127 L17.972,30.9091429 L13.983746,30.9091429 L14.3034921,29.3104127 Z M21.5831111,21.8495873 L21.796254,22.8088254 L21.251873,23.5563175 C21.2171429,23.5846984 21.1850159,23.6191111 21.1567619,23.6614603 L18.940127,26.7306667 L18.2367619,27.6964444 L16.8000635,24.463873 C18.5173968,24.2544127 20.0504127,23.3923175 21.2885714,22.1533968 C21.3022857,22.1398095 21.3160635,22.1263492 21.3297143,22.1126349 C21.3330159,22.1092698 21.3363175,22.1059048 21.339619,22.1025397 C21.4217143,22.0201905 21.5029206,21.936 21.5831111,21.8495873 Z M20.8888254,3.89771429 C20.948,3.93707937 21.0066667,3.97707937 21.0646984,4.01784127 C21.744,4.52406349 22.3710476,5.11707937 22.8621587,5.75549206 L20.4107302,6.23511111 L20.8888254,3.89771429 Z M11.5643175,6.23511111 L9.11288889,5.75549206 C9.604,5.11701587 10.2311111,4.524 10.9104127,4.01777778 C10.968381,3.97707937 11.0270476,3.93707937 11.0862222,3.89771429 L11.5643175,6.23511111 Z M7.4608254,10.6583492 C7.4608254,9.24025397 7.81784127,7.9024127 8.464,6.73326984 L12.1505397,7.46088889 C12.2038095,7.46088889 12.2038095,7.46088889 12.2571429,7.46088889 C12.4170159,7.46088889 12.523619,7.40761905 12.6834921,7.35428571 C12.8433651,7.24768254 12.8966349,7.03453968 12.8433651,6.87466667 L12.111746,3.31403175 C12.4970794,3.12863492 12.9014603,2.96939683 13.3229841,2.83847619 L13.3229841,4.26336508 C13.3229841,4.58311111 13.536127,4.79625397 13.855873,4.79625397 C14.175619,4.79625397 14.3887619,4.58311111 14.3887619,4.26336508 L14.3887619,2.13168254 L14.3887619,1.59873016 C14.3887619,1.33225397 14.6019048,1.06584127 14.9216508,1.06584127 L17.0533333,1.06584127 C17.3198095,1.06584127 17.5862222,1.27898413 17.5862222,1.59873016 L17.5862222,2.13161905 L17.5862222,4.26330159 C17.5862222,4.58304762 17.7993651,4.79619048 18.1191111,4.79619048 C18.4388571,4.79619048 18.652,4.58304762 18.652,4.26330159 L18.652,2.83847619 C19.0875556,2.97371429 19.5050159,3.13904762 19.9018413,3.33238095 L19.1849524,6.82139683 C19.1849524,6.98126984 19.2382222,7.1944127 19.3448254,7.30101587 C19.4514286,7.40761905 19.5579683,7.46088889 19.7178413,7.46088889 C19.7711111,7.46088889 19.7711111,7.46088889 19.8244444,7.46088889 L23.4871111,6.68977778 C24.1484444,7.86920635 24.5140952,9.22273016 24.5140952,10.6583492 L24.5140952,11.1912381 L23.9812063,11.1912381 L7.99377778,11.1912381 L7.46088889,11.1912381 L7.46088889,10.6583492 L7.4608254,10.6583492 Z M8.52666667,12.2570794 L23.4483175,12.2570794 L23.4483175,14.3887619 C23.4483175,16.7125079 22.6511746,18.7774603 21.4543492,20.3470476 L21.4232381,20.3573968 C21.3699683,20.4106667 21.3166349,20.464 21.2633651,20.5172698 C20.9952381,20.8747937 20.712254,21.2007619 20.4165714,21.4946667 C19.1617778,22.6636825 17.6650794,23.371746 16.2229206,23.4419048 C16.1503492,23.4107302 16.0689524,23.3950476 15.9874921,23.3950476 C15.9055873,23.3950476 15.831746,23.4111111 15.7655238,23.4426032 C14.8827302,23.4020952 13.9792381,23.1222857 13.1227937,22.643619 C12.2551746,22.1451429 11.4389841,21.4265397 10.7115556,20.5172698 C10.6582857,20.464 10.6049524,20.4106667 10.5516825,20.3573968 L10.5205714,20.3470476 C9.32374603,18.7773968 8.52660317,16.7124444 8.52660317,14.3887619 L8.52660317,12.2570794 L8.52666667,12.2570794 Z M15.1749206,24.464 L13.7382222,27.6965714 L13.0348571,26.7307937 L10.8182222,23.6615873 C10.8012698,23.6446349 10.7824762,23.6278095 10.7630476,23.6112381 L10.1787302,22.8088889 L10.391873,21.8496508 C10.464127,21.9274286 10.5373968,22.0032381 10.6113651,22.0778413 C11.8624127,23.3572698 13.4227302,24.2502857 15.1749206,24.464 Z M1.06584127,29.1505397 C1.06584127,28.4577778 1.43885714,27.8182222 2.0784127,27.4984762 C5.47530159,25.6938413 7.92063492,24.788127 10.0989206,24.5175873 L13.2791111,28.8902857 L12.8753651,30.9090794 L1.06584127,30.9090794 L1.06584127,29.1505397 Z M30.9092063,30.9092063 L19.099746,30.9092063 L18.696,28.8904127 L21.9106032,24.4703492 C24.0812698,24.7979048 26.5703492,25.7029206 29.8966349,27.4452698 C30.536127,27.8182857 30.9092063,28.4578413 30.9092063,29.1506032 L30.9092063,30.9092063 L30.9092063,30.9092063 Z" id="Shape"></path>
                </g>
            </g>
        </g>
    </g>
</svg>
